<svg width="34" height="34" viewBox="0 0 34 34" fill="none" xmlns="http://www.w3.org/2000/svg">
<path d="M7.96875 19.9883C7.96875 18.3405 6.62821 17 4.98047 17C3.33273 17 1.99219 18.3405 1.99219 19.9883C1.99219 21.636 3.33273 22.9766 4.98047 22.9766C6.62821 22.9766 7.96875 21.636 7.96875 19.9883ZM4.98047 20.9844C4.43122 20.9844 3.98438 20.5375 3.98438 19.9883C3.98438 19.439 4.43122 18.9922 4.98047 18.9922C5.52971 18.9922 5.97656 19.439 5.97656 19.9883C5.97656 20.5375 5.52971 20.9844 4.98047 20.9844Z" fill="#282828"/>
<path d="M4.98047 22.9766C2.23424 22.9766 0 25.2108 0 27.957V32.9375H9.96094V27.957C9.96094 25.2108 7.7267 22.9766 4.98047 22.9766ZM7.96875 30.9453H1.99219V27.957C1.99219 26.3093 3.33273 24.9688 4.98047 24.9688C6.62821 24.9688 7.96875 26.3093 7.96875 27.957V30.9453Z" fill="#282828"/>
<path d="M19.9883 19.9883C19.9883 18.3405 18.6477 17 17 17C15.3523 17 14.0117 18.3405 14.0117 19.9883C14.0117 21.636 15.3523 22.9766 17 22.9766C18.6477 22.9766 19.9883 21.636 19.9883 19.9883ZM17 20.9844C16.4508 20.9844 16.0039 20.5375 16.0039 19.9883C16.0039 19.439 16.4508 18.9922 17 18.9922C17.5492 18.9922 17.9961 19.439 17.9961 19.9883C17.9961 20.5375 17.5492 20.9844 17 20.9844Z" fill="#282828"/>
<path d="M17 22.9766C14.2538 22.9766 12.0195 25.2108 12.0195 27.957V32.9375H21.9805V27.957C21.9805 25.2108 19.7462 22.9766 17 22.9766ZM19.9883 30.9453H14.0117V27.957C14.0117 26.3093 15.3523 24.9688 17 24.9688C18.6477 24.9688 19.9883 26.3093 19.9883 27.957V30.9453Z" fill="#282828"/>
<path d="M32.0078 19.9883C32.0078 18.3405 30.6673 17 29.0195 17C27.3718 17 26.0312 18.3405 26.0312 19.9883C26.0312 21.636 27.3718 22.9766 29.0195 22.9766C30.6673 22.9766 32.0078 21.636 32.0078 19.9883ZM29.0195 20.9844C28.4703 20.9844 28.0234 20.5375 28.0234 19.9883C28.0234 19.439 28.4703 18.9922 29.0195 18.9922C29.5688 18.9922 30.0156 19.439 30.0156 19.9883C30.0156 20.5375 29.5688 20.9844 29.0195 20.9844Z" fill="#282828"/>
<path d="M29.0195 22.9766C26.2733 22.9766 24.0391 25.2108 24.0391 27.957V32.9375H34V27.957C34 25.2108 31.7658 22.9766 29.0195 22.9766ZM32.0078 30.9453H26.0312V27.957C26.0312 26.3093 27.3718 24.9688 29.0195 24.9688C30.6673 24.9688 32.0078 26.3093 32.0078 27.957V30.9453Z" fill="#282828"/>
<path d="M27.3735 15.0078L30.3618 12.0195L27.3735 9.03125H23.9012C23.948 8.70579 23.9727 8.37336 23.9727 8.03516C23.9727 4.19043 20.8447 1.0625 17 1.0625C13.1553 1.0625 10.0273 4.19043 10.0273 8.03516C10.0273 8.37044 10.0524 8.70287 10.0995 9.03125H6.04297V15.0078H27.3735ZM26.5484 11.0234L27.5444 12.0195L26.5484 13.0156H21.8745C22.4589 12.4435 22.9434 11.77 23.299 11.0234H26.5484ZM8.03516 13.0156V11.0234H17C18.6477 11.0234 19.9883 9.68289 19.9883 8.03516C19.9883 6.38742 18.6477 5.04688 17 5.04688C15.3523 5.04688 14.0117 6.38742 14.0117 8.03516C14.0117 8.38432 14.0725 8.71947 14.183 9.03125H12.1198C12.0537 8.70533 12.0195 8.37237 12.0195 8.03516C12.0195 5.28893 14.2538 3.05469 17 3.05469C19.7462 3.05469 21.9805 5.28893 21.9805 8.03516C21.9805 10.7814 19.7462 13.0156 17 13.0156H8.03516ZM16.0039 8.03516C16.0039 7.48591 16.4508 7.03906 17 7.03906C17.5492 7.03906 17.9961 7.48591 17.9961 8.03516C17.9961 8.5844 17.5492 9.03125 17 9.03125C16.4508 9.03125 16.0039 8.5844 16.0039 8.03516Z" fill="#282828"/>
</svg>
