<svg width="32" height="30" viewBox="0 0 32 30" fill="none" xmlns="http://www.w3.org/2000/svg">
<path d="M22.2754 20.814C22.4249 20.4379 22.6829 20.1148 23.0166 19.8857C23.3502 19.6567 23.7445 19.5321 24.1492 19.5277C24.5538 19.5234 24.9507 19.6395 25.2892 19.8613C25.6277 20.0831 25.8926 20.4006 26.0501 20.7734C26.2077 21.1461 26.2508 21.5574 26.174 21.9547C26.0972 22.3521 25.904 22.7176 25.6189 23.0048C25.3337 23.292 24.9696 23.4879 24.5728 23.5676C24.176 23.6473 23.7645 23.6072 23.3906 23.4524C22.8954 23.2473 22.5007 22.8555 22.2921 22.3618C22.0834 21.8681 22.0774 21.3121 22.2754 20.814Z" fill="#282828"/>
<path d="M20.1468 20.2529C20.3136 20.6336 20.3852 21.0492 20.3556 21.4639C20.326 21.8785 20.196 22.2797 19.9768 22.6329L19.2764 23.7651L20.1366 25.1523L21.466 25.0197C21.5498 25.0145 21.6339 25.0145 21.7176 25.0197C22.0912 25.0197 22.4604 25.1012 22.7992 25.2586C23.138 25.4159 23.4384 25.6454 23.6794 25.9309L24.5396 26.9509L26.124 26.5599L26.4096 25.2577C26.4983 24.851 26.6845 24.4721 26.9523 24.1534C27.22 23.8347 27.5612 23.586 27.9464 23.4285L29.1806 22.9253L29.2962 21.2967L28.147 20.6167C27.7858 20.4057 27.4816 20.1094 27.2611 19.7539C27.0407 19.3983 26.9106 18.9941 26.8822 18.5767L26.7836 17.2507L25.274 16.6387L24.2778 17.5227C23.966 17.799 23.5919 17.9957 23.1874 18.0957C22.783 18.1958 22.3603 18.1963 21.9556 18.0973L20.6602 17.7777L19.613 19.0289L20.1468 20.2529ZM30.8126 19.9129C30.9692 20.0033 31.0975 20.1354 31.1834 20.2945C31.2692 20.4536 31.3092 20.6334 31.2988 20.8139L31.0982 23.6563C31.0852 23.8391 31.0213 24.0146 30.9138 24.163C30.8062 24.3114 30.6593 24.4268 30.4896 24.4961L28.691 25.2305C28.5999 25.2675 28.5191 25.3261 28.4557 25.4014C28.3923 25.4766 28.3482 25.5662 28.3272 25.6623L27.8988 27.5595C27.8607 27.7388 27.7729 27.9037 27.6455 28.0354C27.518 28.1671 27.356 28.2602 27.178 28.3041L24.4104 28.9841C24.3334 29.0015 24.2548 29.0106 24.1758 29.0113C24.0335 29.0118 23.8928 28.9817 23.7632 28.923C23.6335 28.8643 23.518 28.7785 23.4244 28.6713L22.1732 27.1855C22.1097 27.1104 22.0288 27.052 21.9375 27.0153C21.8463 26.9786 21.7475 26.9646 21.6496 26.9747L19.7388 27.1651C19.557 27.1833 19.3737 27.1503 19.2097 27.0698C19.0457 26.9893 18.9074 26.8645 18.8106 26.7095L17.2874 24.2887C17.1934 24.1352 17.1436 23.9587 17.1436 23.7787C17.1436 23.5987 17.1934 23.4222 17.2874 23.2687L18.3074 21.6163C18.3592 21.5324 18.3896 21.4371 18.3961 21.3387C18.4027 21.2404 18.385 21.1419 18.3448 21.0519L17.5662 19.2737C17.4942 19.1065 17.4701 18.9226 17.4965 18.7425C17.5229 18.5624 17.5989 18.3932 17.7158 18.2537L19.5484 16.0743C19.6665 15.9341 19.8213 15.8297 19.9955 15.7726C20.1697 15.7155 20.3563 15.7082 20.5344 15.7513L22.4248 16.1967C22.5203 16.2202 22.62 16.22 22.7153 16.1964C22.8107 16.1727 22.8989 16.1261 22.9722 16.0607L24.424 14.7687C24.5608 14.6472 24.7287 14.5663 24.9089 14.5351C25.0891 14.5038 25.2744 14.5235 25.444 14.5919L28.0858 15.6629C28.2552 15.7316 28.402 15.8463 28.5096 15.9942C28.6171 16.142 28.6812 16.317 28.6944 16.4993L28.8372 18.4373C28.8443 18.5355 28.8753 18.6305 28.9274 18.714C28.9796 18.7976 29.0513 18.8671 29.1364 18.9167L30.8126 19.9129Z" fill="#282828"/>
<path d="M6.69653 10.7057C6.69587 9.93835 6.92296 9.18809 7.34906 8.54995C7.77516 7.9118 8.38107 7.41449 9.09005 7.12101C9.79903 6.82752 10.5792 6.75108 11.3316 6.90136C12.0841 7.05163 12.775 7.42187 13.3169 7.96517C13.8588 8.50846 14.2272 9.20036 14.3755 9.95322C14.5238 10.7061 14.4453 11.486 14.1499 12.1942C13.8545 12.9024 13.3556 13.507 12.7164 13.9314C12.0771 14.3558 11.3263 14.581 10.5589 14.5783C9.53418 14.5738 8.55283 14.164 7.82916 13.4384C7.1055 12.7129 6.69832 11.7304 6.69653 10.7057ZM8.65494 10.7057C8.65494 11.0847 8.76747 11.4552 8.97826 11.7702C9.18905 12.0852 9.48861 12.3305 9.83898 12.4751C10.1893 12.6197 10.5748 12.657 10.9463 12.5823C11.3179 12.5076 11.659 12.3243 11.9263 12.0556C12.1936 11.7868 12.3751 11.4448 12.4478 11.0728C12.5205 10.7008 12.4811 10.3156 12.3347 9.96604C12.1882 9.61645 11.9413 9.31821 11.6252 9.1091C11.309 8.9 10.938 8.78945 10.5589 8.79147C10.053 8.79417 9.56876 8.99703 9.21198 9.35572C8.8552 9.71441 8.65493 10.1998 8.65494 10.7057Z" fill="#282828"/>
<path d="M8.2911 17.6077C8.91338 17.0389 9.72598 16.7234 10.5691 16.7234C11.4122 16.7234 12.2248 17.0389 12.8471 17.6077L13.4217 18.1381L14.5267 17.6043L14.4689 16.8257C14.4118 15.9846 14.6714 15.1525 15.1968 14.4931C15.7222 13.8337 16.4752 13.3947 17.3079 13.2625L18.0831 13.1469L18.3551 11.9501L17.6989 11.5081C17.0045 11.0295 16.5146 10.3081 16.3258 9.48618C16.137 8.66424 16.263 7.80138 16.6789 7.06773L17.0665 6.38773L16.3389 5.43233L15.5909 5.66013C14.7815 5.90811 13.9084 5.84262 13.145 5.47667C12.3816 5.11072 11.7837 4.47107 11.4701 3.68473L11.1845 2.95713H9.9571L9.6681 3.68473C9.35466 4.46727 8.75955 5.10408 7.99998 5.46971C7.24041 5.83533 6.37146 5.90327 5.5643 5.66013L4.8163 5.43233L4.0547 6.39113L4.4423 7.07113C4.85821 7.80478 4.98418 8.66764 4.79538 9.48958C4.60657 10.3115 4.11668 11.0329 3.4223 11.5115L2.7865 11.9467L3.0585 13.1435L3.8303 13.2591C4.66296 13.3913 5.41603 13.8303 5.9414 14.4897C6.46677 15.1491 6.72643 15.9812 6.6693 16.8223L6.6115 17.6009L7.7165 18.1347L8.2911 17.6077ZM20.0143 10.7091C20.1746 10.8204 20.2983 10.9767 20.3697 11.1582C20.4411 11.3398 20.4571 11.5385 20.4155 11.7291L19.8443 14.2247C19.8013 14.4166 19.7014 14.591 19.5576 14.725C19.4138 14.8591 19.2329 14.9466 19.0385 14.9761L17.6071 15.1971C17.2609 15.2515 16.9475 15.4334 16.7286 15.7071C16.5097 15.9808 16.401 16.3264 16.4239 16.6761L16.5293 18.1211C16.5472 18.3191 16.504 18.5178 16.4055 18.6904C16.307 18.863 16.158 19.0014 15.9785 19.0867L13.6699 20.1985C13.5379 20.2643 13.3923 20.2981 13.2449 20.2971C12.9929 20.3009 12.7493 20.2071 12.5649 20.0353L11.5007 19.0561C11.2432 18.8186 10.9058 18.6867 10.5555 18.6867C10.2052 18.6867 9.86777 18.8186 9.6103 19.0561L8.5461 20.0353C8.40215 20.1699 8.2207 20.2576 8.02579 20.2867C7.83089 20.3159 7.63173 20.2851 7.4547 20.1985L5.1597 19.0867C4.98282 19.0018 4.83565 18.8655 4.7374 18.6957C4.63914 18.5259 4.59436 18.3304 4.6089 18.1347L4.7109 16.6897C4.7356 16.3407 4.62844 15.9951 4.41062 15.7212C4.1928 15.4474 3.88015 15.2652 3.5345 15.2107L2.1031 14.9897C1.90811 14.9609 1.72643 14.8736 1.58199 14.7395C1.43754 14.6054 1.33711 14.4306 1.2939 14.2383L0.7227 11.7359C0.680567 11.5449 0.696589 11.3457 0.768701 11.1639C0.840812 10.9821 0.96571 10.8261 1.1273 10.7159L2.3207 9.90672C2.61249 9.70611 2.81771 9.40266 2.89526 9.05715C2.97281 8.71165 2.91696 8.3496 2.7389 8.04353L2.0181 6.78893C1.92019 6.61795 1.87594 6.42149 1.8911 6.22505C1.90626 6.02861 1.98012 5.84126 2.1031 5.68733L3.7011 3.68812C3.82163 3.53131 3.98696 3.41483 4.17519 3.35411C4.36342 3.29339 4.56566 3.29131 4.7551 3.34813L6.1389 3.78673C6.47342 3.88572 6.83281 3.85665 7.14707 3.70518C7.46133 3.55371 7.70795 3.29068 7.8389 2.96733L8.3693 1.60733C8.44259 1.42469 8.56885 1.26816 8.73185 1.15788C8.89484 1.0476 9.0871 0.98862 9.2839 0.988525H11.8509C12.0472 0.98884 12.2389 1.04795 12.4014 1.15825C12.5638 1.26854 12.6894 1.42496 12.7621 1.60733L13.2959 2.96733C13.4262 3.29117 13.6728 3.55469 13.9872 3.70626C14.3017 3.85783 14.6614 3.88652 14.9959 3.78673L16.3797 3.36513C16.5691 3.30831 16.7714 3.31039 16.9596 3.37111C17.1478 3.43183 17.3132 3.54832 17.4337 3.70513L19.0317 5.70433C19.1547 5.85826 19.2285 6.04561 19.2437 6.24205C19.2589 6.43849 19.2146 6.63495 19.1167 6.80592L18.3959 8.06053C18.276 8.26714 18.2127 8.50167 18.2123 8.74053C18.2098 8.96963 18.2638 9.19582 18.3693 9.39919C18.4748 9.60255 18.6287 9.77685 18.8175 9.90672L20.0143 10.7091Z" fill="#282828"/>
</svg>
