<svg width="34" height="34" viewBox="0 0 34 34" fill="none" xmlns="http://www.w3.org/2000/svg">
<path d="M5 5H7V7H5V5Z" fill="#282828"/>
<path d="M5 27H7V29H5V27Z" fill="#282828"/>
<path d="M34 22V12H30.9377C30.444 8.05907 27.0726 5 23 5H11.9162C11.4387 2.16593 8.96773 0 6 0C2.6916 0 0 2.6916 0 6C0 9.3084 2.6916 12 6 12C8.96773 12 11.4387 9.83407 11.9162 7H23C25.9677 7 28.4387 9.16593 28.9162 12H24V16H12C8.4542 16 5.51607 18.6501 5.0614 22.0736C2.19727 22.5255 0 25.0109 0 28C0 31.3084 2.6916 34 6 34C8.96773 34 11.4387 31.8341 11.9162 29H22.5858L21.2929 30.2929L22.7071 31.7071L26.4142 28L22.7071 24.2929L21.2929 25.7071L22.5858 27H11.9162C11.4982 24.519 9.55247 22.5503 7.08307 22.0982C7.509 19.7703 9.551 18 12 18H24V22H34ZM6 10C3.7944 10 2 8.2056 2 6C2 3.7944 3.7944 2 6 2C8.2056 2 10 3.7944 10 6C10 8.2056 8.2056 10 6 10ZM10 28C10 30.2056 8.2056 32 6 32C3.7944 32 2 30.2056 2 28C2 25.7944 3.7944 24 6 24C8.2056 24 10 25.7944 10 28ZM26 14H32V20H26V14Z" fill="#282828"/>
<path d="M28 16H30V18H28V16Z" fill="#282828"/>
</svg>
