<svg width="32" height="32" viewBox="0 0 32 32" fill="none" xmlns="http://www.w3.org/2000/svg">
<path d="M15.9278 2.42509C10.4989 2.4633 5.96733 7.00913 5.96802 12.458C5.96843 15.4787 7.31073 18.3092 9.65081 20.224C10.1248 20.6119 10.4185 21.1541 10.4781 21.7366C10.4488 21.9113 10.4689 21.7099 10.4628 26.0772C10.4628 26.6434 10.9219 27.1025 11.4882 27.1025H11.8642V27.1367C11.8642 29.4172 13.7194 31.2725 15.9999 31.2725C18.2804 31.2725 20.1356 29.4172 20.1356 27.1367V27.1025H20.5116C21.0779 27.1025 21.537 26.6434 21.537 26.0772C21.5302 21.7272 21.553 21.901 21.5189 21.7182C21.5685 21.1509 21.8396 20.634 22.281 20.2792C24.6647 18.363 26.0318 15.5118 26.0318 12.4566C26.0317 6.87385 21.4894 2.38387 15.9278 2.42509ZM19.4862 22.9326V25.0518H12.5136V22.9326H19.4862ZM18.0849 27.1367C18.0849 28.2864 17.1496 29.2217 15.9999 29.2217C14.8502 29.2217 13.9149 28.2864 13.9149 27.1367V27.1025H18.0849V27.1367ZM20.9961 18.6808C20.2903 19.2482 19.8034 20.0201 19.5868 20.8818H12.4003C12.1721 20.0139 11.6714 19.2277 10.9495 18.6369C9.08733 17.1131 8.01914 14.8609 8.0188 12.4577C8.01825 8.16133 11.6467 4.50601 15.9422 4.4758C15.9616 4.47566 15.9808 4.47559 16.0002 4.47559C20.4093 4.47559 23.981 8.0432 23.981 12.4566C23.9809 14.8873 22.893 17.1559 20.9961 18.6808Z" fill="#282828"/>
<path d="M19.3363 10.3647L17.0254 12.1576V11.1748C17.0254 10.3234 16.0439 9.84293 15.3715 10.3647L11.4066 13.4409C10.9592 13.788 10.8779 14.4322 11.2251 14.8796C11.5727 15.3277 12.217 15.4078 12.6638 15.0611L14.9747 13.2682V14.251C14.9747 15.1024 15.9562 15.583 16.6286 15.0611L20.5935 11.985C21.0409 11.6378 21.1222 10.9937 20.775 10.5463C20.4279 10.0989 19.7838 10.0176 19.3363 10.3647Z" fill="#282828"/>
<path d="M6.01826 3.97642C6.41864 4.37687 7.06791 4.37694 7.46836 3.97642C7.86881 3.57597 7.86881 2.92676 7.46836 2.52631L5.96993 1.02788C5.56954 0.627427 4.92027 0.627427 4.51982 1.02788C4.11937 1.42833 4.11937 2.07753 4.51982 2.47798L6.01826 3.97642Z" fill="#282828"/>
<path d="M3.93457 12.5078C3.93457 11.9415 3.47547 11.4824 2.90918 11.4824H0.790039C0.22375 11.4824 -0.235352 11.9415 -0.235352 12.5078C-0.235352 13.0741 0.22375 13.5332 0.790039 13.5332H2.90918C3.47547 13.5332 3.93457 13.0741 3.93457 12.5078Z" fill="#282828"/>
<path d="M31.21 11.4824H29.0908C28.5245 11.4824 28.0654 11.9415 28.0654 12.5078C28.0654 13.0741 28.5245 13.5332 29.0908 13.5332H31.21C31.7763 13.5332 32.2354 13.0741 32.2354 12.5078C32.2354 11.9415 31.7763 11.4824 31.21 11.4824Z" fill="#282828"/>
<path d="M30.4445 17.3812L28.4867 16.5703C27.9635 16.3535 27.3637 16.602 27.1469 17.1252C26.9302 17.6484 27.1786 18.2482 27.7019 18.465L29.6597 19.2759C30.1849 19.4935 30.7835 19.2422 30.9995 18.721C31.2162 18.1977 30.9677 17.5979 30.4445 17.3812Z" fill="#282828"/>
<path d="M4.29802 6.55092L2.34021 5.73997C1.81699 5.5232 1.2172 5.77169 1.00044 6.29491C0.783737 6.81813 1.03215 7.41792 1.55538 7.63469L3.51319 8.44563C4.03839 8.66322 4.63702 8.41187 4.85297 7.89069C5.06966 7.36747 4.82125 6.76761 4.29802 6.55092Z" fill="#282828"/>
<path d="M25.9817 3.97642L27.4801 2.47798C27.8805 2.07753 27.8805 1.42833 27.4801 1.02788C27.0797 0.627427 26.4304 0.627427 26.03 1.02788L24.5315 2.52631C24.1311 2.92676 24.1311 3.57597 24.5315 3.97642C24.9319 4.37687 25.5812 4.37694 25.9817 3.97642Z" fill="#282828"/>
<path d="M3.51319 16.5703L1.55538 17.3813C1.03215 17.598 0.783737 18.1978 1.00044 18.721C1.21679 19.2434 1.81624 19.4931 2.34021 19.276L4.29802 18.465C4.82125 18.2483 5.06966 17.6485 4.85297 17.1253C4.6362 16.602 4.03648 16.3535 3.51319 16.5703Z" fill="#282828"/>
<path d="M27.1469 7.89068C27.3632 8.41302 27.9627 8.66273 28.4867 8.44562L30.4445 7.63468C30.9677 7.41798 31.2161 6.81813 30.9994 6.29491C30.7827 5.77169 30.1829 5.5232 29.6596 5.73997L27.7018 6.55091C27.1787 6.76761 26.9303 7.36746 27.1469 7.89068Z" fill="#282828"/>
</svg>
