<svg width="34" height="34" viewBox="0 0 34 34" fill="none" xmlns="http://www.w3.org/2000/svg">
<g clip-path="url(#clip0)">
<path d="M33.0039 0H29.0195C28.4694 0 28.0234 0.445984 28.0234 0.996094V1.99219H19.817C19.4058 0.832867 18.2986 0 17 0C15.7014 0 14.5942 0.832867 14.183 1.99219H5.97656V0.996094C5.97656 0.445984 5.53058 0 4.98047 0H0.996094C0.445984 0 0 0.445984 0 0.996094V4.98047C0 5.53058 0.445984 5.97656 0.996094 5.97656H4.98047C5.53058 5.97656 5.97656 5.53058 5.97656 4.98047V3.97109H10.1188C6.52514 6.2471 4.34064 10.0921 4.07788 14.1739C2.90448 14.5774 2.05859 15.6914 2.05859 17C2.05859 18.6477 3.39914 19.9883 5.04688 19.9883C6.69461 19.9883 8.03516 18.6477 8.03516 17C8.03516 15.713 7.21736 14.6135 6.07418 14.1937C6.42786 9.50227 9.80608 5.46165 14.3236 4.31521C14.8132 5.29882 15.8287 5.97656 17 5.97656C18.1713 5.97656 19.1868 5.29882 19.6764 4.31528C24.194 5.46171 27.5721 9.50234 27.9258 14.1937C26.7826 14.6135 25.9648 15.713 25.9648 17C25.9648 18.6477 27.3054 19.9883 28.9531 19.9883C30.6009 19.9883 31.9414 18.6477 31.9414 17C31.9414 15.6914 31.0955 14.5774 29.9221 14.1739C29.6588 10.0839 27.4678 6.25593 23.8812 3.98438H28.0234V4.98047C28.0234 5.53058 28.4694 5.97656 29.0195 5.97656H33.0039C33.554 5.97656 34 5.53058 34 4.98047V0.996094C34 0.445984 33.554 0 33.0039 0ZM3.98438 3.98438H1.99219V1.99219H3.98438V3.98438ZM5.04688 17.9961C4.49763 17.9961 4.05078 17.5492 4.05078 17C4.05078 16.4508 4.49763 16.0039 5.04688 16.0039C5.59612 16.0039 6.04297 16.4508 6.04297 17C6.04297 17.5492 5.59612 17.9961 5.04688 17.9961ZM17 3.98438C16.4508 3.98438 16.0039 3.53753 16.0039 2.98828C16.0039 2.43904 16.4508 1.99219 17 1.99219C17.5492 1.99219 17.9961 2.43904 17.9961 2.98828C17.9961 3.53753 17.5492 3.98438 17 3.98438ZM28.9531 16.0039C29.5024 16.0039 29.9492 16.4508 29.9492 17C29.9492 17.5492 29.5024 17.9961 28.9531 17.9961C28.4039 17.9961 27.957 17.5492 27.957 17C27.957 16.4508 28.4039 16.0039 28.9531 16.0039ZM32.0078 3.98438H30.0156V1.99219H32.0078V3.98438Z" fill="#282828"/>
<path d="M25.7975 20.4319L17.8287 8.4788C17.8285 8.4784 17.8281 8.478 17.8279 8.47753C17.825 8.47328 17.8219 8.46923 17.819 8.46505C17.8053 8.44519 17.7909 8.42607 17.7759 8.40741C17.3561 7.88585 16.5569 7.92105 16.181 8.46505C16.1781 8.46923 16.175 8.47328 16.1721 8.47753C16.1718 8.478 16.1715 8.47833 16.1712 8.4788L8.20249 20.4319C7.93906 20.827 7.99119 21.353 8.32694 21.6888C10.3143 23.6761 11.5792 26.2739 11.9238 29.0533C11.7691 29.1784 11.6198 29.3122 11.4782 29.4571C10.5426 30.4142 10.0273 31.6738 10.0273 33.0039C10.0273 33.5541 10.4733 34 11.0234 34H22.9766C23.5267 34 23.9727 33.5541 23.9727 33.0039C23.9727 31.6738 23.4574 30.4142 22.5219 29.4571C22.3802 29.3122 22.2309 29.1783 22.0762 29.0532C22.4207 26.2737 23.6856 23.6759 25.673 21.6888C26.0088 21.353 26.0609 20.8269 25.7975 20.4319ZM17 19.9883C17.5492 19.9883 17.9961 20.4352 17.9961 20.9844C17.9961 21.5337 17.5492 21.9805 17 21.9805C16.4507 21.9805 16.0039 21.5337 16.0039 20.9844C16.0039 20.4352 16.4507 19.9883 17 19.9883ZM12.1894 32.0079C12.6038 30.8236 13.7273 29.9493 15.0078 29.9493H18.9922C20.2727 29.9493 21.3962 30.8236 21.8106 32.0079H12.1894ZM20.2038 28.1087C19.812 28.0087 19.4058 27.9571 18.9922 27.9571H15.0078C14.5942 27.9571 14.188 28.0087 13.7962 28.1087C13.3301 25.424 12.1194 22.9144 10.2999 20.8772L16.0039 12.3212V18.1675C14.8445 18.5787 14.0117 19.6859 14.0117 20.9845C14.0117 22.6322 15.3523 23.9728 17 23.9728C18.6477 23.9728 19.9883 22.6322 19.9883 20.9845C19.9883 19.6859 19.1555 18.5787 17.9961 18.1675V12.3212L23.7001 20.8772C21.8806 22.9142 20.6699 25.4239 20.2038 28.1087Z" fill="#282828"/>
</g>
<defs>
<clipPath id="clip0">
<rect width="34" height="34" fill="white"/>
</clipPath>
</defs>
</svg>
