<svg width="34" height="32" viewBox="0 0 34 32" fill="none" xmlns="http://www.w3.org/2000/svg">
<path d="M33.7518 15.3421C33.6755 15.2553 31.8483 13.193 28.8893 11.1125C21.0101 5.57254 13.306 5.35027 5.11058 11.1125C2.15165 13.193 0.324478 15.2553 0.248177 15.3421C-0.0827256 15.7183 -0.0827256 16.2817 0.248177 16.6579C0.324478 16.7447 2.15165 18.807 5.11064 20.8874C12.9899 26.4274 20.694 26.6497 28.8894 20.8874C31.8484 18.807 33.6755 16.7446 33.7519 16.6579C34.0827 16.2817 34.0827 15.7183 33.7518 15.3421ZM24.2347 16C24.2347 19.9679 20.9626 23.1491 17 23.1491C13.0309 23.1491 9.76533 19.9612 9.76533 16C9.76533 12.0321 13.0374 8.85081 17 8.85081C20.9691 8.85081 24.2347 12.0387 24.2347 16ZM2.37371 16C4.34013 14.0349 6.80062 12.1653 9.37459 10.8588C7.25902 13.9289 7.21805 18.0116 9.37459 21.1411C6.78773 19.8282 4.32838 17.9531 2.37371 16ZM24.6253 21.1411C26.7409 18.0711 26.7819 13.9884 24.6253 10.8588C27.2122 12.1718 29.6715 14.0468 31.6262 16C29.664 17.9607 27.2045 19.8321 24.6253 21.1411Z" fill="#282828"/>
<path d="M17.9961 15.0039H18.5796L17 16.5835L15.7105 15.294C15.3219 14.9052 14.6907 14.905 14.3018 15.294L12.3267 17.2692C11.9377 17.6582 11.9377 18.2888 12.3267 18.6778C12.7156 19.0669 13.3463 19.0668 13.7353 18.6778L15.0062 17.407L16.2957 18.6965C16.6848 19.0855 17.3154 19.0855 17.7044 18.6965L19.9883 16.4126V16.6641C19.9883 17.2142 20.4343 17.6602 20.9844 17.6602C21.5345 17.6602 21.9805 17.2142 21.9805 16.6641V14.0078C21.9805 13.4577 21.5345 13.0117 20.9844 13.0117H17.9961C17.446 13.0117 17 13.4577 17 14.0078C17 14.5579 17.446 15.0039 17.9961 15.0039Z" fill="#282828"/>
<path d="M17 4.97656C17.5501 4.97656 17.9961 4.53058 17.9961 3.98047V1.98828C17.9961 1.43817 17.5501 0.992188 17 0.992188C16.4499 0.992188 16.0039 1.43817 16.0039 1.98828V3.98047C16.0039 4.53058 16.4499 4.97656 17 4.97656Z" fill="#282828"/>
<path d="M23.5077 6.7204C23.9821 6.99432 24.5922 6.83442 24.8684 6.35583L25.8645 4.6306C26.1396 4.1542 25.9764 3.54492 25.4999 3.26993C25.0235 2.99475 24.4143 3.15797 24.1393 3.6345L23.1432 5.35974C22.8681 5.83613 23.0313 6.44534 23.5077 6.7204Z" fill="#282828"/>
<path d="M17 26.957C16.4499 26.957 16.0039 27.403 16.0039 27.9531V30.0117C16.0039 30.5618 16.4499 31.0078 17 31.0078C17.5501 31.0078 17.9961 30.5618 17.9961 30.0117V27.9531C17.9961 27.403 17.5501 26.957 17 26.957Z" fill="#282828"/>
<path d="M24.8352 25.5866C24.5601 25.1102 23.9509 24.9469 23.4745 25.2221C22.9981 25.4971 22.8349 26.1063 23.11 26.5827L24.1393 28.3655C24.4152 28.8435 25.0249 29.0044 25.4999 28.7301C25.9764 28.4551 26.1396 27.8459 25.8645 27.3695L24.8352 25.5866Z" fill="#282828"/>
<path d="M9.13146 6.3558C9.40738 6.83372 10.0171 6.99469 10.4921 6.72037C10.9686 6.44531 11.1318 5.8361 10.8567 5.35971L9.8606 3.63447C9.58548 3.15794 8.97634 2.99478 8.49994 3.2699C8.02347 3.54496 7.86025 4.15417 8.13537 4.63057L9.13146 6.3558Z" fill="#282828"/>
<path d="M10.5253 25.2221C10.0489 24.9468 9.43965 25.1103 9.16466 25.5866L8.13537 27.3695C7.86025 27.8459 8.02347 28.4551 8.49994 28.7301C8.97448 29.0042 9.58442 28.8439 9.8606 28.3655L10.8899 26.5827C11.165 26.1063 11.0018 25.4971 10.5253 25.2221Z" fill="#282828"/>
</svg>
