<svg width="32" height="32" viewBox="0 0 32 32" fill="none" xmlns="http://www.w3.org/2000/svg">
<path d="M17.2058 27.9787L17.2058 24.2161C17.2058 22.3099 15.6548 20.7589 13.7487 20.7589L4.02116 20.7589C2.11499 20.7589 0.564002 22.3099 0.564002 24.2161L0.564002 27.9787C0.564002 29.8849 2.11499 31.4359 4.02115 31.4359L13.7487 31.4359C15.6548 31.4359 17.2058 29.8849 17.2058 27.9787ZM4.02116 29.024C3.44481 29.024 2.97586 28.5551 2.97586 27.9787L2.97586 24.2161C2.97586 23.6397 3.44481 23.1708 4.02116 23.1708L13.7487 23.1708C14.325 23.1708 14.794 23.6397 14.794 24.2161L14.794 27.9787C14.794 28.5551 14.325 29.024 13.7487 29.024L4.02116 29.024ZM18.2511 11.241L27.9786 11.241C29.8848 11.241 31.4358 9.69005 31.4358 7.78388L31.4358 4.02124C31.4358 2.11507 29.8848 0.564087 27.9786 0.564087L18.2511 0.564086C16.345 0.564086 14.794 2.11507 14.794 4.02124L14.794 7.78388C14.794 9.69005 16.345 11.241 18.2511 11.241ZM18.2511 2.97594L27.9786 2.97595C28.555 2.97595 29.0239 3.44489 29.0239 4.02124L29.0239 7.78388C29.0239 8.36023 28.555 8.82918 27.9786 8.82918L18.2511 8.82918C17.6748 8.82918 17.2058 8.36023 17.2058 7.78388L17.2058 4.02124C17.2058 3.44489 17.6748 2.97594 18.2511 2.97594ZM29.0239 21.0486C29.0239 18.9298 27.3001 17.2059 25.1812 17.2059L6.81858 17.2059C3.36991 17.2059 0.564002 14.4 0.564003 10.9513C0.564003 7.50242 3.36991 4.69651 6.81858 4.69651L11.2565 4.69651C11.9226 4.69651 12.4624 5.23659 12.4624 5.90244C12.4624 6.56853 11.9226 7.10837 11.2565 7.10837L6.81858 7.10837C4.69973 7.10837 2.97586 8.83247 2.97586 10.9513C2.97586 13.0702 4.69973 14.7941 6.81858 14.7941L25.1812 14.7941C28.6299 14.7941 31.4358 17.6 31.4358 21.0486C31.4358 24.4975 28.6299 27.3034 25.1812 27.3034L20.7433 27.3034C20.0772 27.3034 19.5374 26.7634 19.5374 26.0975C19.5374 25.4314 20.0772 24.8916 20.7433 24.8916L25.1812 24.8916C27.3001 24.8916 29.0239 23.1677 29.0239 21.0486Z" fill="#282828"/>
</svg>
