<svg width="813" height="827" viewBox="0 0 813 827" fill="none" xmlns="http://www.w3.org/2000/svg">
<path d="M277.702 620.25L411.5 389.995L545.298 620.25H277.702Z" stroke="url(#paint0_linear)"/>
<path opacity="0.7" d="M235.262 619.75L411.5 313.004L587.738 619.75H235.262Z" stroke="url(#paint1_linear)"/>
<path opacity="0.5" d="M194.626 620L412 242.003L629.374 620H194.626Z" stroke="url(#paint2_linear)"/>
<path opacity="0.3" d="M149.527 619.5L411.5 165.001L673.473 619.5H149.527Z" stroke="url(#paint3_linear)"/>
<path opacity="0.2" d="M104.426 618.75L411 87.0011L717.574 618.75H104.426Z" stroke="url(#paint4_linear)"/>
<path opacity="0.1" d="M56.062 619.75L412 1.00274L767.938 619.75H56.062Z" stroke="url(#paint5_linear)"/>
<defs>
<linearGradient id="paint0_linear" x1="411.5" y1="389" x2="411" y2="924" gradientUnits="userSpaceOnUse">
<stop stop-color="white"/>
<stop offset="0.602083" stop-color="white" stop-opacity="0"/>
</linearGradient>
<linearGradient id="paint1_linear" x1="411.5" y1="312" x2="411" y2="763" gradientUnits="userSpaceOnUse">
<stop stop-color="white"/>
<stop offset="0.659375" stop-color="white" stop-opacity="0"/>
</linearGradient>
<linearGradient id="paint2_linear" x1="412" y1="241" x2="412" y2="772" gradientUnits="userSpaceOnUse">
<stop stop-color="white"/>
<stop offset="0.628125" stop-color="white" stop-opacity="0"/>
</linearGradient>
<linearGradient id="paint3_linear" x1="411.5" y1="164" x2="411" y2="829" gradientUnits="userSpaceOnUse">
<stop stop-color="white"/>
<stop offset="0.555208" stop-color="white" stop-opacity="0"/>
</linearGradient>
<linearGradient id="paint4_linear" x1="411" y1="86" x2="411" y2="797" gradientUnits="userSpaceOnUse">
<stop stop-color="white"/>
<stop offset="0.555208" stop-color="white" stop-opacity="0"/>
</linearGradient>
<linearGradient id="paint5_linear" x1="412" y1="0" x2="412" y2="827" gradientUnits="userSpaceOnUse">
<stop stop-color="white"/>
<stop offset="0.503125" stop-color="white" stop-opacity="0"/>
</linearGradient>
</defs>
</svg>
