<svg width="126" height="15" fill="none" xmlns="http://www.w3.org/2000/svg"><path d="M4.74 14h1.44V1.3h4.62V.04H.14V1.3h4.6V14zm9.1 0h1.42V7.26h7.88V14h1.44V.04h-1.44V6h-7.88V.04h-1.42V14zm24.15-7.98h-7.05V1.3h7.39V.04h-8.8V14h8.94l.2-1.26h-7.73V7.28h7.04V6.02z" fill="#fff" fill-opacity=".9"/><path d="M48.8 14l5-13.78h-3.04l-2.16 6.4a50.21 50.21 0 00-1.48 4.94h-.04a52.07 52.07 0 00-1.42-4.98L43.62.22h-3.2L45.28 14h3.52zm17.14-8.4h-6.6V2.66h6.88V.22h-9.78V14h9.82l.36-2.44h-7.28v-3.5h6.6V5.6zm6.53 8.4V9.8c0-2.46-.04-5.3-.14-6.5h.04c.7 1.6 4.22 8 5.7 10.7h3.5V.22h-2.7V4.3c0 2.26 0 4.66.16 6.1h-.04c-.64-1.5-3.82-7.1-5.54-10.18h-3.7V14h2.72zm16.33 0h2.98V2.66h4.18V.22H84.6v2.44h4.2V14zM99.05.22v8.12c0 4.6 2.68 5.86 5.8 5.86 3.04 0 5.8-1.2 5.8-5.92V.22h-3v8.2c0 2.52-1.06 3.44-2.76 3.44-1.5 0-2.86-.78-2.86-3.44V.22h-2.98zm20.6 8.26c2.23 0 2.6.72 2.6 2.22v.2c0 1.46.05 2.5.29 3.1h2.84c-.2-.64-.2-1.7-.2-2.62v-.68c0-2.48-1.04-3.18-1.72-3.44 1-.42 2-1.42 2-3.26 0-2.14-1.62-3.78-4.62-3.78h-6.06V14h2.92V8.48h1.96zm-1.95-5.9h2.56c1.46 0 2.2.64 2.2 1.76 0 1.14-.64 1.76-2.26 1.76h-2.5V2.58z" fill="#fff"/></svg>