<svg width="34" height="32" viewBox="0 0 34 32" fill="none" xmlns="http://www.w3.org/2000/svg">
<path d="M34 26V0H0V26H13V30H10V32H13H21H24V30H21V26H34ZM32 2V20H2V2H32ZM2 24V22H32V24H21H13H2ZM19 30H15V26H19V30Z" fill="#282828"/>
<path d="M7.00007 10.9986C7.51773 10.9986 8.03513 10.8653 8.49673 10.5997L11.2033 12.9203C10.4524 14.8809 11.8873 17 14.0001 17C16.3011 17 17.7549 14.4997 16.6002 12.5027L18.9195 9.79765C19.7762 10.127 20.7231 10.0448 21.4967 9.59959L24.2024 11.9194C23.7897 12.9928 24.0146 14.2571 24.8788 15.1213C25.4636 15.7061 26.2319 15.9985 27.0001 15.9985C27.7683 15.9985 28.5365 15.7061 29.1213 15.1213C30.2911 13.9516 30.2911 12.0483 29.1213 10.8787C28.1424 9.89972 26.6499 9.74072 25.5035 10.4003L22.7977 8.08052C23.9613 5.05472 20.1535 2.60399 17.8788 4.87865C16.8999 5.85759 16.7408 7.35005 17.4005 8.49659L15.0817 11.201C14.7412 11.0695 14.3761 11 14.0001 11C13.4657 11 12.9531 11.1395 12.5028 11.3999L9.79773 9.08059C10.2105 8.00719 9.98553 6.74285 9.1214 5.87872H9.12133C7.95173 4.70899 6.0484 4.70899 4.87866 5.87872C3.70906 7.04839 3.70906 8.95166 4.87866 10.1213C5.4636 10.7062 6.2318 10.9986 7.00007 10.9986ZM27.0001 12C27.5527 12 28.0001 12.4473 28.0001 13C28.0001 13.5526 27.5528 14 27.0001 14C26.4475 14 26.0001 13.5527 26.0001 13C26.0001 12.4474 26.4473 12 27.0001 12ZM20.0001 5.99999C20.5527 5.99999 21.0001 6.44725 21.0001 6.99999C21.0001 7.55259 20.5528 7.99999 20.0001 7.99999C19.4475 7.99999 19.0001 7.55272 19.0001 6.99999C19.0001 6.44739 19.4473 5.99999 20.0001 5.99999ZM14.0001 13C14.5521 13 15.0001 13.4475 15.0001 14C15.0001 14.5514 14.5526 15 14.0001 15C13.7331 15 13.4821 14.896 13.2929 14.7066C12.6667 14.081 13.1122 13 14.0001 13ZM6.29293 7.29292C6.48186 7.10405 6.73293 6.99999 7.00007 6.99999C7.2672 6.99999 7.51827 7.10405 7.70713 7.29292C8.097 7.68285 8.097 8.31719 7.70713 8.70712C7.51827 8.89599 7.26713 8.99999 7 8.99999C6.73287 8.99999 6.4818 8.89592 6.29293 8.70712C5.90306 8.31719 5.90306 7.68279 6.29293 7.29292Z" fill="#282828"/>
</svg>
