<svg width="34" height="34" viewBox="0 0 34 34" fill="none" xmlns="http://www.w3.org/2000/svg">
<g clip-path="url(#clip0)">
<path d="M29.9861 12.7082L32.2996 15.0216C32.5845 15.3066 33.0131 15.3916 33.3851 15.2375C33.7574 15.0833 34.0001 14.7201 34.0001 14.3173V5.26382C34.0001 4.71371 33.5541 4.26773 33.004 4.26773H23.9505C23.5476 4.26773 23.1844 4.51045 23.0302 4.88265C22.8761 5.25486 22.9613 5.68331 23.2462 5.9682L25.5597 8.28159L18.0669 15.7743L10.2359 7.94325C9.84692 7.55424 9.21619 7.55424 8.82718 7.94325L1.99219 14.7782V0.996094C1.99219 0.445984 1.5462 0 0.996094 0C0.445984 0 0 0.445984 0 0.996094V33.0039C0 33.554 0.445984 34 0.996094 34H33.0039C33.554 34 34 33.554 34 33.0039C34 32.4538 33.554 32.0078 33.0039 32.0078H27.5984V15.0958L29.9861 12.7082ZM9.53149 10.0563L17.3626 17.8873C17.7515 18.2763 18.3822 18.2763 18.7713 17.8873L27.6727 8.98596C28.0617 8.59702 28.0614 7.96589 27.6727 7.57729L26.3553 6.25992H32.0078V11.9125L30.6904 10.5952C30.3015 10.2062 29.6708 10.2062 29.2818 10.5952L18.0669 21.8099L10.2359 13.9788C9.84685 13.5898 9.21606 13.5899 8.82718 13.9788L1.99219 20.8138V17.5956L9.53149 10.0563ZM10.5276 17.088L17.0708 23.6312V32.0078H10.5276V17.088ZM1.99219 23.6311L8.53539 17.0879V32.0078H1.99219V23.6311ZM25.6063 32.0078H19.063V23.6311L25.6063 17.088V32.0078Z" fill="#282828"/>
</g>
<defs>
<clipPath id="clip0">
<rect width="34" height="34" fill="white"/>
</clipPath>
</defs>
</svg>
