<svg width="34" height="34" viewBox="0 0 34 34" fill="none" xmlns="http://www.w3.org/2000/svg">
<path d="M18.048 21.9592H9.00052C8.45282 21.9592 8.00879 22.4033 8.00879 22.951C8.00879 23.4987 8.45282 23.9427 9.00052 23.9427H18.048C18.5957 23.9427 19.0397 23.4987 19.0397 22.951C19.0397 22.4033 18.5957 21.9592 18.048 21.9592Z" fill="#282828"/>
<path d="M9.00052 19.9754H16.9108C17.4585 19.9754 17.9025 19.5314 17.9025 18.9837C17.9025 18.436 17.4585 17.9919 16.9108 17.9919H9.00052C8.45282 17.9919 8.00879 18.436 8.00879 18.9837C8.00879 19.5314 8.45282 19.9754 9.00052 19.9754Z" fill="#282828"/>
<path d="M9.00052 16.0081H17.6438C18.1915 16.0081 18.6355 15.5641 18.6355 15.0164C18.6355 14.4687 18.1915 14.0247 17.6438 14.0247H9.00052C8.45282 14.0247 8.00879 14.4687 8.00879 15.0164C8.00879 15.5641 8.45282 16.0081 9.00052 16.0081Z" fill="#282828"/>
<path d="M9.00052 12.0408H14.462C15.0097 12.0408 15.4538 11.5967 15.4538 11.049V6.94229C15.4538 6.39459 15.0097 5.95056 14.462 5.95056H9.00052C8.45282 5.95056 8.00879 6.39459 8.00879 6.94229V11.049C8.00879 11.5967 8.45282 12.0408 9.00052 12.0408ZM9.99225 7.93402H13.4703V10.0573H9.99225V7.93402Z" fill="#282828"/>
<path d="M33.6349 24.9839L30.6753 22.0243C31.3689 21.0513 31.7773 19.8617 31.7773 18.5784C31.7773 15.6352 29.6293 13.1847 26.8186 12.7111V6.94158H26.8181C26.818 6.68373 26.7177 6.43024 26.5281 6.24056L20.578 0.290445C20.3884 0.100826 20.1347 0.000595038 19.8767 0.000528923V0H5.03351C4.48581 0 4.04178 0.44403 4.04178 0.99173V3.96725H1.06619C0.518493 3.96725 0.0744629 4.41128 0.0744629 4.95898V33.0083C0.0744629 33.556 0.518493 34 1.06619 34H21.8596C22.4073 34 22.8513 33.556 22.8513 33.0083V30.0328H25.8269C26.3746 30.0328 26.8186 29.5887 26.8186 29.041V24.4457C27.7214 24.2935 28.556 23.9378 29.2728 23.4269L32.2324 26.3864C32.4261 26.5801 32.6799 26.6769 32.9336 26.6769C33.1875 26.6769 33.4413 26.5801 33.6349 26.3864C34.0222 25.9991 34.0222 25.3712 33.6349 24.9839ZM29.7938 18.5784C29.7938 19.6698 29.3507 20.6595 28.6351 21.3775C28.6336 21.379 28.6318 21.3802 28.6303 21.3818C28.6288 21.3833 28.6275 21.3851 28.626 21.3866C27.9092 22.1011 26.9214 22.5437 25.8321 22.5451C25.8304 22.5451 25.8287 22.5449 25.827 22.5449C25.8252 22.5449 25.8235 22.5451 25.8219 22.5451C23.6368 22.5424 21.86 20.764 21.86 18.5783C21.86 16.391 23.6396 14.6114 25.827 14.6114C28.0143 14.6114 29.7938 16.391 29.7938 18.5784ZM20.8685 3.38596L23.4326 5.95011H20.8685V3.38596ZM20.8679 32.0165H2.05792V5.95071H4.04178V29.041C4.04178 29.5887 4.48581 30.0328 5.03351 30.0328H20.8679V32.0165ZM6.02524 28.0493V1.98346H18.885V6.94184C18.885 7.48954 19.329 7.93357 19.8767 7.93357H24.8352V12.7111C22.0245 13.1847 19.8765 15.6352 19.8765 18.5784C19.8765 21.5216 22.0245 23.9721 24.8352 24.4457V28.0493H6.02524Z" fill="#282828"/>
</svg>
