<svg width="179" height="281" viewBox="0 0 179 281" fill="none" xmlns="http://www.w3.org/2000/svg">
<rect opacity="0.5" x="223.343" y="283.248" width="54.784" height="54.5251" rx="20" transform="rotate(133.043 223.343 283.248)" fill="#3D2EE2"/>
<path opacity="0.5" d="M193.828 195.051C194.31 187.904 194.551 184.331 192.368 182.292C190.184 180.253 186.636 180.738 179.539 181.706L164.324 183.781C152.713 185.366 146.907 186.158 145.65 190.014C144.392 193.87 148.645 197.842 157.15 205.785L171.333 219.031C179.838 226.974 184.091 230.946 187.853 229.428C191.614 227.911 192.008 222.064 192.796 210.372L193.828 195.051Z" fill="#3D2EE2"/>
<ellipse rx="27.392" ry="27.2625" transform="matrix(0.682549 -0.73084 -0.73084 -0.682549 137.655 240.702)" fill="#3D2EE2"/>
<path opacity="0.5" d="M125.975 166.57C118.878 167.538 115.33 168.022 113.147 165.983C110.964 163.944 111.204 160.371 111.686 153.225L112.718 137.904C113.506 126.211 113.9 120.365 117.662 118.847C121.423 117.33 125.676 121.301 134.181 129.245L148.364 142.49C156.869 150.434 161.122 154.405 159.865 158.262C158.607 162.118 152.802 162.91 141.19 164.494L125.975 166.57Z" fill="#3D2EE2"/>
<ellipse opacity="0.5" cx="167.69" cy="107.408" rx="27.392" ry="27.2625" transform="rotate(133.043 167.69 107.408)" fill="#3D2EE2"/>
<rect opacity="0.5" x="125.831" y="192.169" width="54.784" height="54.5251" rx="20" transform="rotate(133.043 125.831 192.169)" fill="#3D2EE2"/>
<path opacity="0.5" d="M96.3221 103.967C96.8036 96.8204 97.0444 93.2473 94.8612 91.2084C92.6781 89.1695 89.1297 89.6536 82.033 90.6217L66.8178 92.6975C55.2064 94.2816 49.4007 95.0736 48.1434 98.9301C46.8861 102.786 51.1387 106.758 59.644 114.701L73.8267 127.947C82.332 135.89 86.5846 139.862 90.3462 138.344C94.1078 136.827 94.5018 130.98 95.2897 119.288L96.3221 103.967Z" fill="#3D2EE2"/>
<ellipse opacity="0.5" rx="27.392" ry="27.2625" transform="matrix(0.682549 -0.73084 -0.73084 -0.682549 40.1473 149.618)" fill="#3D2EE2"/>
<rect opacity="0.5" width="54.784" height="54.5251" rx="20" transform="matrix(0.682549 -0.73084 -0.73084 -0.682549 121.85 102.077)" fill="#3D2EE2"/>
<rect opacity="0.5" x="249.598" y="59.6455" width="54.784" height="54.5251" rx="20" transform="rotate(133.043 249.598 59.6455)" fill="#3D2EE2"/>
<path opacity="0.5" d="M220.088 -28.5558C220.57 -35.7021 220.811 -39.2752 218.628 -41.3141C216.444 -43.353 212.896 -42.8689 205.799 -41.9007L190.584 -39.825C178.973 -38.2409 173.167 -37.4488 171.91 -33.5924C170.652 -29.736 174.905 -25.7644 183.41 -17.8211L197.593 -4.57551C206.098 3.36776 210.351 7.33939 214.113 5.82182C217.874 4.30425 218.268 -1.54198 219.056 -13.2344L220.088 -28.5558Z" fill="#3D2EE2"/>
<ellipse opacity="0.5" rx="27.392" ry="27.2625" transform="matrix(0.682549 -0.73084 -0.73084 -0.682549 163.914 17.0964)" fill="#3D2EE2"/>
</svg>
