<svg width="650" height="327" viewBox="0 0 650 327" fill="none" xmlns="http://www.w3.org/2000/svg">
<rect opacity="0.5" width="116.318" height="115.768" rx="20" transform="matrix(0.906048 -0.423176 -0.423176 -0.906048 397.776 477.051)" fill="#3D2EE2"/>
<path opacity="0.5" d="M694.84 297.609C701.453 283.915 704.76 277.068 702.076 271.321C699.392 265.575 692.019 263.715 677.273 259.997L645.659 252.025C621.532 245.941 609.469 242.899 603.936 249.498C598.402 256.098 603.631 267.292 614.087 289.679L631.523 327.011C641.979 349.399 647.207 360.592 655.819 360.585C664.432 360.578 669.842 349.375 680.662 326.969L694.84 297.609Z" fill="#DBD9D9"/>
<ellipse rx="58.1588" ry="57.8839" transform="matrix(0.906048 -0.423176 -0.423176 -0.906048 548.011 343.001)" fill="#3D2EE2"/>
<path opacity="0.5" d="M234.915 350.654C220.17 346.936 212.797 345.076 210.113 339.33C207.429 333.583 210.735 326.736 217.348 313.042L231.527 283.682C242.347 261.276 247.757 250.073 256.369 250.066C264.981 250.058 270.209 261.252 280.666 283.64L298.102 320.972C308.558 343.359 313.786 354.553 308.253 361.152C302.72 367.752 290.656 364.71 266.53 358.626L234.915 350.654Z" fill="#DBD9D9"/>
<ellipse opacity="0.5" cx="363.976" cy="267.189" rx="58.1588" ry="57.8839" transform="rotate(154.965 363.976 267.189)" fill="#DBD9D9"/>
<rect opacity="0.5" x="214.339" y="400.96" width="116.318" height="115.768" transform="rotate(154.965 214.339 400.96)" fill="#DBD9D9"/>
<path opacity="0.5" d="M226.131 203.84C232.744 190.146 236.051 183.299 233.367 177.552C230.683 171.806 223.31 169.947 208.564 166.228L176.95 158.256C152.823 152.173 140.76 149.131 135.227 155.73C129.694 162.329 134.922 173.523 145.378 195.911L162.814 233.242C173.27 255.63 178.499 266.824 187.111 266.816C195.723 266.809 201.133 255.606 211.953 233.2L226.131 203.84Z" fill="#DBD9D9"/>
<ellipse opacity="0.5" rx="58.1588" ry="57.8839" transform="matrix(0.906048 -0.423176 -0.423176 -0.906048 79.2976 249.233)" fill="#DBD9D9"/>
<rect width="116.318" height="115.768" rx="20" transform="matrix(0.906048 -0.423176 -0.423176 -0.906048 277.911 220.353)" fill="#3D2EE2"/>
<path d="M583.736 187.732C568.99 184.013 561.617 182.154 558.933 176.408C556.249 170.661 559.556 163.814 566.169 150.12L580.347 120.76C591.168 98.3541 596.578 87.1511 605.19 87.1437C613.802 87.1363 619.03 98.3301 629.486 120.718L646.922 158.05C657.379 180.437 662.607 191.631 657.074 198.23C651.54 204.83 639.477 201.788 615.35 195.704L583.736 187.732Z" fill="#3D2EE2"/>
<ellipse opacity="0.5" cx="712.797" cy="104.267" rx="58.1588" ry="57.8839" transform="rotate(154.965 712.797 104.267)" fill="#3D2EE2"/>
<rect opacity="0.5" x="563.164" y="238.038" width="116.318" height="115.768" transform="rotate(154.965 563.164 238.038)" fill="#DBD9D9"/>
<path opacity="0.5" d="M574.945 40.9223C581.558 27.2281 584.865 20.3811 582.181 14.6345C579.497 8.88798 572.124 7.0288 557.378 3.31045L525.764 -4.6616C501.637 -10.7454 489.574 -13.7874 484.041 -7.18806C478.507 -0.588767 483.735 10.605 494.192 32.9926L511.628 70.3245C522.084 92.7121 527.312 103.906 535.924 103.899C544.536 103.891 549.947 92.6881 560.767 70.2822L574.945 40.9223Z" fill="#DBD9D9"/>
<ellipse opacity="0.5" rx="58.1588" ry="57.8839" transform="matrix(0.906048 -0.423176 -0.423176 -0.906048 428.111 86.3149)" fill="#DBD9D9"/>
<rect opacity="0.5" width="116.318" height="115.768" transform="matrix(0.906048 -0.423176 -0.423176 -0.906048 626.725 57.4348)" fill="#DBD9D9"/>
</svg>
