<svg width="30" height="30" viewBox="0 0 30 30" fill="none" xmlns="http://www.w3.org/2000/svg">
<path d="M26.9261 3.07388C24.9438 1.09177 22.3082 0 19.5049 0C16.7015 0 14.0662 1.09177 12.0838 3.07388C10.1015 5.05623 9.00993 7.6918 9.00993 10.4951C9.00993 13.0035 9.88403 15.3774 11.4878 17.2691L9.36584 19.3911C8.27797 18.8303 6.90582 19.0052 5.9951 19.9159L0.846863 25.0644C0.300751 25.6105 0 26.3365 0 27.1088C0 27.881 0.300751 28.607 0.846863 29.1531C1.4106 29.7166 2.1508 29.9986 2.89124 29.9986C3.63167 29.9986 4.37187 29.7166 4.93561 29.1531L10.0841 24.0047C10.6302 23.4588 10.9309 22.7328 10.9309 21.9603C10.9309 21.4909 10.8197 21.0384 10.6098 20.6332L12.7309 18.512C14.6228 20.116 16.9968 20.9901 19.5051 20.9901C22.3084 20.9901 24.944 19.8983 26.9261 17.9162C28.9082 15.9338 30 13.2985 30 10.4949C30 7.6918 28.9082 5.05623 26.9261 3.07388ZM8.84102 22.7618L3.69255 27.9103C3.25081 28.3521 2.53166 28.3521 2.08969 27.9103C1.87569 27.6961 1.75781 27.4116 1.75781 27.1088C1.75781 26.806 1.87569 26.5215 2.08969 26.3072L7.23816 21.159C7.6799 20.717 8.39905 20.717 8.84102 21.159C9.28299 21.601 9.28299 22.3199 8.84102 22.7618ZM25.6831 16.6731C24.0328 18.3234 21.8388 19.2323 19.5049 19.2323C17.1712 19.2323 14.9771 18.3234 13.3269 16.6731C11.6766 15.0229 10.7677 12.8288 10.7677 10.4951C10.7677 8.16124 11.6766 5.96718 13.3269 4.31694C14.9771 2.6667 17.1712 1.75781 19.5049 1.75781C21.8388 1.75781 24.0328 2.6667 25.6831 4.31694C27.3333 5.96718 28.2422 8.16124 28.2422 10.4949C28.2422 12.8288 27.3333 15.0229 25.6831 16.6731Z" fill="#3D2EE2"/>
<path d="M15.0517 10.5535C14.5665 10.5535 14.1728 10.9469 14.1728 11.4324V14.2451C14.1728 14.7306 14.5665 15.124 15.0517 15.124C15.5372 15.124 15.9306 14.7306 15.9306 14.2451V11.4324C15.9306 10.9469 15.5372 10.5535 15.0517 10.5535Z" fill="#3D2EE2"/>
<path d="M17.9814 7.62378C17.4962 7.62378 17.1025 8.01723 17.1025 8.50269V14.2451C17.1025 14.7306 17.4962 15.124 17.9814 15.124C18.4669 15.124 18.8603 14.7306 18.8603 14.2451V8.50269C18.8603 8.01723 18.4669 7.62378 17.9814 7.62378Z" fill="#3D2EE2"/>
<path d="M20.9111 8.79565C20.4259 8.79565 20.0322 9.1891 20.0322 9.67456V14.2451C20.0322 14.7306 20.4259 15.124 20.9111 15.124C21.3966 15.124 21.79 14.7306 21.79 14.2451V9.67456C21.79 9.1891 21.3966 8.79565 20.9111 8.79565Z" fill="#3D2EE2"/>
<path d="M23.8408 5.86597C23.3556 5.86597 22.9619 6.25941 22.9619 6.74487V14.2451C22.9619 14.7306 23.3556 15.124 23.8408 15.124C24.3262 15.124 24.7197 14.7306 24.7197 14.2451V6.74487C24.7197 6.25941 24.3262 5.86597 23.8408 5.86597Z" fill="#3D2EE2"/>
</svg>
