<svg width="30" height="28" viewBox="0 0 30 28" fill="none" xmlns="http://www.w3.org/2000/svg">
<path d="M29.944 22.4804L28.2422 17.9422V3.45312C28.2422 1.99924 27.0594 0.816406 25.6055 0.816406H4.39453C2.94064 0.816406 1.75781 1.99924 1.75781 3.45312V17.9422L0.055957 22.4804C0.0189258 22.5791 0 22.6837 0 22.7891V24.5469C0 26.0008 1.18283 27.1836 2.63672 27.1836H27.3633C28.8172 27.1836 30 26.0008 30 24.5469V22.7891C30 22.6837 29.9811 22.5791 29.944 22.4804ZM3.51562 3.45312C3.51562 2.9685 3.9099 2.57422 4.39453 2.57422H25.6055C26.0901 2.57422 26.4844 2.9685 26.4844 3.45312V17.2227H3.51562V3.45312ZM3.2458 18.9805H26.7543L27.8529 21.9102H2.14717L3.2458 18.9805ZM28.2422 24.5469C28.2422 25.0315 27.8479 25.4258 27.3633 25.4258H2.63672C2.15209 25.4258 1.75781 25.0315 1.75781 24.5469V23.668H28.2422V24.5469Z" fill="#3D2EE2"/>
<path d="M20.0807 6.41975C19.7775 6.0407 19.2244 5.97924 18.8454 6.28246C18.4664 6.58568 18.4049 7.13875 18.7081 7.51779L20.6126 9.89846L18.7081 12.2791C18.4049 12.6582 18.4664 13.2112 18.8454 13.5145C19.2244 13.8177 19.7775 13.7562 20.0807 13.3772L22.4245 10.4475C22.6813 10.1265 22.6813 9.67041 22.4245 9.34943L20.0807 6.41975Z" fill="#3D2EE2"/>
<path d="M11.1545 6.28246C10.7755 5.97924 10.2224 6.0407 9.91917 6.41975L7.57542 9.34943C7.31861 9.67041 7.31861 10.1265 7.57542 10.4475L9.91917 13.3772C10.2224 13.7562 10.7755 13.8177 11.1545 13.5145C11.5335 13.2112 11.595 12.6582 11.2918 12.2791L9.38726 9.89846L11.2918 7.51779C11.595 7.13875 11.5335 6.58568 11.1545 6.28246Z" fill="#3D2EE2"/>
<path d="M16.3731 4.06249C15.9006 3.95134 15.4274 4.24425 15.3162 4.71675L12.9725 14.6776C12.8613 15.1501 13.1542 15.6233 13.6267 15.7345C14.0992 15.8456 14.5724 15.5527 14.6836 15.0802L17.0273 5.11935C17.1385 4.64685 16.8456 4.17365 16.3731 4.06249Z" fill="#3D2EE2"/>
</svg>
