<svg width="30" height="30" viewBox="0 0 30 30" fill="none" xmlns="http://www.w3.org/2000/svg">
<path d="M6.73657 15.1984L14.8697 5.03524L16.2423 6.13365L8.10915 16.2968L6.73657 15.1984Z" fill="#3D2EE2"/>
<path d="M15 12.4219C13.5461 12.4219 12.3633 13.6046 12.3633 15.0586C12.3633 16.5125 13.5461 17.6953 15 17.6953C16.4539 17.6953 17.6367 16.5125 17.6367 15.0586C17.6367 13.6046 16.4539 12.4219 15 12.4219ZM15 15.9375C14.5151 15.9375 14.1211 15.5435 14.1211 15.0586C14.1211 14.5737 14.5151 14.1797 15 14.1797C15.4849 14.1797 15.8789 14.5737 15.8789 15.0586C15.8789 15.5435 15.4849 15.9375 15 15.9375Z" fill="#3D2EE2"/>
<path d="M7.96875 8.90625C9.4227 8.90625 10.6055 7.72348 10.6055 6.26953C10.6055 4.81559 9.4227 3.63281 7.96875 3.63281C6.5148 3.63281 5.33203 4.81559 5.33203 6.26953C5.33203 7.72348 6.5148 8.90625 7.96875 8.90625ZM7.96875 5.39062C8.45367 5.39062 8.84766 5.78461 8.84766 6.26953C8.84766 6.75445 8.45367 7.14844 7.96875 7.14844C7.48383 7.14844 7.08984 6.75445 7.08984 6.26953C7.08984 5.78461 7.48383 5.39062 7.96875 5.39062Z" fill="#3D2EE2"/>
<path d="M21.1523 15.9375V0H1.81641V25.6055C1.81641 28.0285 3.78791 30 6.21094 30H23.7891C26.2121 30 28.1836 28.0285 28.1836 25.6055V15.9375H21.1523ZM6.21094 28.2422C4.75699 28.2422 3.57422 27.0594 3.57422 25.6055V1.75781H19.3945V15.9375V25.6055C19.3945 26.5512 19.7606 27.5596 20.2751 28.2422H6.21094ZM26.4258 25.6055C26.4258 27.0594 25.243 28.2422 23.7891 28.2422C22.3351 28.2422 21.1523 27.0594 21.1523 25.6055V17.6953H26.4258V25.6055Z" fill="#3D2EE2"/>
<path d="M5.33203 21.2109H17.6367V22.9688H5.33203V21.2109Z" fill="#3D2EE2"/>
<path d="M5.33203 24.7266H17.6367V26.4844H5.33203V24.7266Z" fill="#3D2EE2"/>
</svg>
