<svg width="30" height="30" viewBox="0 0 30 30" fill="none" xmlns="http://www.w3.org/2000/svg">
<path d="M26.85 0.599976H22.683C22.0465 0.599976 21.436 0.852832 20.9859 1.30292C20.5359 1.75301 20.283 2.36346 20.283 2.99998V4.28398H17.25C16.3748 4.28398 15.5354 4.63165 14.9165 5.25052C14.2977 5.86939 13.95 6.70876 13.95 7.58398V14.1H10.317V12.684C10.317 12.0475 10.0641 11.437 9.61406 10.9869C9.16397 10.5368 8.55352 10.284 7.917 10.284H3.15C2.51348 10.284 1.90303 10.5368 1.45294 10.9869C1.00286 11.437 0.75 12.0475 0.75 12.684V17.316C0.75 17.9525 1.00286 18.5629 1.45294 19.013C1.90303 19.4631 2.51348 19.716 3.15 19.716H7.917C8.55352 19.716 9.16397 19.4631 9.61406 19.013C10.0641 18.5629 10.317 17.9525 10.317 17.316V15.9H13.95V22.416C13.95 23.2912 14.2977 24.1306 14.9165 24.7494C15.5354 25.3683 16.3748 25.716 17.25 25.716H20.283V27C20.283 27.6365 20.5359 28.2469 20.9859 28.697C21.436 29.1471 22.0465 29.4 22.683 29.4H26.85C27.4865 29.4 28.097 29.1471 28.5471 28.697C28.9971 28.2469 29.25 27.6365 29.25 27V23.433C29.25 22.7965 28.9971 22.186 28.5471 21.7359C28.097 21.2858 27.4865 21.033 26.85 21.033H22.683C22.0465 21.033 21.436 21.2858 20.9859 21.7359C20.5359 22.186 20.283 22.7965 20.283 23.433V23.916H17.25C16.8522 23.916 16.4706 23.7579 16.1893 23.4766C15.908 23.1953 15.75 22.8138 15.75 22.416V15.9H20.283V16.782C20.283 17.4185 20.5359 18.0289 20.9859 18.479C21.436 18.9291 22.0465 19.182 22.683 19.182H26.85C27.4865 19.182 28.097 18.9291 28.5471 18.479C28.9971 18.0289 29.25 17.4185 29.25 16.782V13.218C29.25 12.5815 28.9971 11.971 28.5471 11.5209C28.097 11.0708 27.4865 10.818 26.85 10.818H22.683C22.0465 10.818 21.436 11.0708 20.9859 11.5209C20.5359 11.971 20.283 12.5815 20.283 13.218V14.1H15.75V7.58398C15.75 7.18615 15.908 6.80462 16.1893 6.52332C16.4706 6.24201 16.8522 6.08398 17.25 6.08398H20.283V6.56698C20.283 7.2035 20.5359 7.81394 20.9859 8.26403C21.436 8.71412 22.0465 8.96698 22.683 8.96698H26.85C27.4865 8.96698 28.097 8.71412 28.5471 8.26403C28.9971 7.81394 29.25 7.2035 29.25 6.56698V2.99998C29.25 2.36346 28.9971 1.75301 28.5471 1.30292C28.097 0.852832 27.4865 0.599976 26.85 0.599976ZM8.517 17.316C8.517 17.4751 8.45379 17.6277 8.34126 17.7402C8.22874 17.8528 8.07613 17.916 7.917 17.916H3.15C2.99087 17.916 2.83826 17.8528 2.72574 17.7402C2.61321 17.6277 2.55 17.4751 2.55 17.316V12.684C2.55 12.5248 2.61321 12.3722 2.72574 12.2597C2.83826 12.1472 2.99087 12.084 3.15 12.084H7.917C8.07613 12.084 8.22874 12.1472 8.34126 12.2597C8.45379 12.3722 8.517 12.5248 8.517 12.684V17.316ZM22.083 23.433C22.083 23.2738 22.1462 23.1212 22.2587 23.0087C22.3713 22.8962 22.5239 22.833 22.683 22.833H26.85C27.0091 22.833 27.1617 22.8962 27.2743 23.0087C27.3868 23.1212 27.45 23.2738 27.45 23.433V27C27.45 27.1591 27.3868 27.3117 27.2743 27.4242C27.1617 27.5368 27.0091 27.6 26.85 27.6H22.683C22.5239 27.6 22.3713 27.5368 22.2587 27.4242C22.1462 27.3117 22.083 27.1591 22.083 27V23.433ZM22.083 13.215C22.083 13.0558 22.1462 12.9032 22.2587 12.7907C22.3713 12.6782 22.5239 12.615 22.683 12.615H26.85C27.0091 12.615 27.1617 12.6782 27.2743 12.7907C27.3868 12.9032 27.45 13.0558 27.45 13.215V16.782C27.45 16.9411 27.3868 17.0937 27.2743 17.2062C27.1617 17.3188 27.0091 17.382 26.85 17.382H22.683C22.5239 17.382 22.3713 17.3188 22.2587 17.2062C22.1462 17.0937 22.083 16.9411 22.083 16.782V13.215ZM27.45 6.56698C27.45 6.72611 27.3868 6.87872 27.2743 6.99124C27.1617 7.10376 27.0091 7.16698 26.85 7.16698H22.683C22.5239 7.16698 22.3713 7.10376 22.2587 6.99124C22.1462 6.87872 22.083 6.72611 22.083 6.56698V2.99998C22.083 2.84085 22.1462 2.68823 22.2587 2.57571C22.3713 2.46319 22.5239 2.39998 22.683 2.39998H26.85C27.0091 2.39998 27.1617 2.46319 27.2743 2.57571C27.3868 2.68823 27.45 2.84085 27.45 2.99998V6.56698Z" fill="#3D2EE2"/>
</svg>
