<svg width="30" height="22" viewBox="0 0 30 22" fill="none" xmlns="http://www.w3.org/2000/svg">
<path d="M29.1211 0.453125H18.5742C18.0888 0.453125 17.6953 0.846641 17.6953 1.33203V5.72656H15C14.5146 5.72656 14.1211 6.12008 14.1211 6.60547V14.5156H12.3047V1.33203C12.3047 0.846641 11.9112 0.453125 11.4258 0.453125H0.878906C0.393516 0.453125 0 0.846641 0 1.33203V20.668C0 21.1534 0.393516 21.5469 0.878906 21.5469H11.4258C11.9112 21.5469 12.3047 21.1534 12.3047 20.668V16.2734H15C15.4854 16.2734 15.8789 15.8799 15.8789 15.3945V7.48438H17.6953V20.668C17.6953 21.1534 18.0888 21.5469 18.5742 21.5469H29.1211C29.6065 21.5469 30 21.1534 30 20.668V1.33203C30 0.846641 29.6065 0.453125 29.1211 0.453125ZM10.5469 19.7891H1.75781V2.21094H10.5469V14.5156H8.78906V13.6367C8.78906 13.1513 8.39555 12.7578 7.91016 12.7578H4.39453C3.90914 12.7578 3.51562 13.1513 3.51562 13.6367V17.1523C3.51562 17.6377 3.90914 18.0312 4.39453 18.0312H7.91016C8.39555 18.0312 8.78906 17.6377 8.78906 17.1523V16.2734H10.5469V19.7891ZM7.03125 16.2734H5.27344V14.5156H7.03125V16.2734ZM28.2422 19.7891H19.4531V7.48438H21.2109V8.36328C21.2109 8.84867 21.6045 9.24219 22.0898 9.24219H25.6055C26.0909 9.24219 26.4844 8.84867 26.4844 8.36328V4.84766C26.4844 4.36227 26.0909 3.96875 25.6055 3.96875H22.0898C21.6045 3.96875 21.2109 4.36227 21.2109 4.84766V5.72656H19.4531V2.21094H28.2422V19.7891ZM22.9688 5.72656H24.7266V7.48438H22.9688V5.72656Z" fill="#3D2EE2"/>
<path d="M4.39453 7.48438H7.91016C8.39555 7.48438 8.78906 7.09086 8.78906 6.60547C8.78906 6.12008 8.39555 5.72656 7.91016 5.72656H4.39453C3.90914 5.72656 3.51562 6.12008 3.51562 6.60547C3.51562 7.09086 3.90914 7.48438 4.39453 7.48438Z" fill="#3D2EE2"/>
<path d="M4.39453 11H7.91016C8.39555 11 8.78906 10.6065 8.78906 10.1211C8.78906 9.6357 8.39555 9.24219 7.91016 9.24219H4.39453C3.90914 9.24219 3.51562 9.6357 3.51562 10.1211C3.51562 10.6065 3.90914 11 4.39453 11Z" fill="#3D2EE2"/>
<path d="M25.6055 11H22.0898C21.6045 11 21.2109 11.3935 21.2109 11.8789C21.2109 12.3643 21.6045 12.7578 22.0898 12.7578H25.6055C26.0909 12.7578 26.4844 12.3643 26.4844 11.8789C26.4844 11.3935 26.0909 11 25.6055 11Z" fill="#3D2EE2"/>
<path d="M25.6055 14.5156H22.0898C21.6045 14.5156 21.2109 14.9091 21.2109 15.3945C21.2109 15.8799 21.6045 16.2734 22.0898 16.2734H25.6055C26.0909 16.2734 26.4844 15.8799 26.4844 15.3945C26.4844 14.9091 26.0909 14.5156 25.6055 14.5156Z" fill="#3D2EE2"/>
</svg>
