<svg width="26" height="26" viewBox="0 0 26 26" fill="none" xmlns="http://www.w3.org/2000/svg">
<path d="M25.7235 21.7396C25.6076 21.4597 25.3345 21.2773 25.0317 21.2773H24.278V21.2772C24.278 17.5493 21.2451 14.5166 17.5171 14.5166C16.7259 14.5166 15.9663 14.6536 15.2601 14.9045V4.72285H16.0142C16.3171 4.72285 16.5902 4.54042 16.7061 4.26054C16.8219 3.98071 16.7579 3.65859 16.5437 3.44441L13.5379 0.438548C13.2454 0.146135 12.7712 0.146135 12.4788 0.438548L9.47293 3.44441C9.25875 3.65859 9.19465 3.98066 9.31057 4.26054C9.4265 4.54042 9.69959 4.72285 10.0024 4.72285H10.7564V10.4098C10.0484 10.1591 9.28816 10.0228 8.49909 10.0228C7.2546 10.0228 6.24211 9.01034 6.24211 7.76585V6.95886H6.98006C7.28295 6.95886 7.55605 6.77643 7.67192 6.49655C7.7878 6.21672 7.72375 5.8946 7.50957 5.68042L4.50371 2.67456C4.2113 2.38214 3.7371 2.38214 3.44464 2.67456L0.438785 5.68042C0.224605 5.8946 0.160551 6.21667 0.276428 6.49655C0.392354 6.77643 0.665446 6.95886 0.968293 6.95886H1.73015L1.73844 7.76995C1.74064 11.4959 4.77281 14.5265 8.49949 14.5265C9.74403 14.5265 10.7565 15.5389 10.7565 16.7834V25.032C10.7565 25.4455 11.0918 25.7808 11.5054 25.7808H14.5113C14.9249 25.7808 15.2602 25.4455 15.2602 25.032V21.2772C15.2602 20.0327 16.2728 19.0202 17.5175 19.0202C18.7619 19.0202 19.7744 20.0327 19.7744 21.2772L19.02 21.2773C18.7171 21.2773 18.444 21.4597 18.3281 21.7396C18.2123 22.0195 18.2763 22.3416 18.4905 22.5558L21.4964 25.5615C21.6426 25.7078 21.8343 25.7808 22.0259 25.7808C22.2176 25.7808 22.4092 25.7077 22.5554 25.5615L25.5613 22.5558C25.7754 22.3415 25.8395 22.0195 25.7235 21.7396ZM13.0083 2.02713L14.2522 3.27107C13.9663 3.37646 13.7624 3.6514 13.7624 3.97392V12.5385C13.3321 12.0059 12.8232 11.541 12.2542 11.1608V3.97397C12.2542 3.65145 12.0503 3.37656 11.7644 3.27112L13.0083 2.02713ZM8.49949 13.0287C5.59727 13.0287 3.2362 10.6678 3.2362 7.76585C3.2362 7.76331 3.2362 7.76071 3.23615 7.75821L3.22028 6.20234C3.21703 5.88282 3.01379 5.61167 2.73026 5.50713L3.97415 4.26318L5.22248 5.51152C4.9427 5.62006 4.7443 5.89185 4.7443 6.20998V7.76585C4.7443 9.83626 6.42868 11.5206 8.49904 11.5206C11.0199 11.5206 13.1641 13.3019 13.6566 15.7305C13.1295 16.0985 12.6572 16.5394 12.2543 17.0388V16.7834C12.2543 14.713 10.5699 13.0287 8.49949 13.0287ZM22.0258 23.9729L20.782 22.7292C21.0681 22.6239 21.2721 22.3489 21.2721 22.0262V21.2772C21.2721 19.2068 19.5878 17.5225 17.5174 17.5225C15.4468 17.5225 13.7624 19.2068 13.7624 21.2772V24.2831H12.2542V21.2772C12.2542 18.3753 14.6151 16.0144 17.5171 16.0144C20.4192 16.0144 22.7802 18.3753 22.7802 21.2772V22.0262C22.7802 22.3487 22.984 22.6235 23.2698 22.729L22.0258 23.9729Z" fill="#3D2EE2"/>
</svg>
