<svg width="30" height="30" viewBox="0 0 30 30" fill="none" xmlns="http://www.w3.org/2000/svg">
<path d="M30 4.41174C30 2.46562 28.4167 0.882324 26.4706 0.882324H7.26469C5.20504 0.882324 3.5294 2.55797 3.5294 4.61762V23.8235H-1.52588e-05V24.7059C-1.52588e-05 27.1385 1.9791 29.1176 4.41175 29.1176H22.0588C23.5184 29.1176 24.7059 27.9302 24.7059 26.4706V7.94115H30V4.41174ZM4.41175 27.3529C3.2614 27.3529 2.28004 26.6153 1.91587 25.5882H19.4117V26.4706C19.4117 26.7798 19.465 27.0769 19.5629 27.3529H4.41175ZM22.9412 26.4706C22.9412 26.9571 22.5453 27.3529 22.0588 27.3529C21.5722 27.3529 21.1765 26.9571 21.1765 26.4706V23.8235H5.2941V4.61762C5.2941 3.53103 6.1781 2.64703 7.26469 2.64703H23.416C23.1146 3.16656 22.9412 3.76909 22.9412 4.41174V26.4706ZM28.2353 6.17644H24.7059C24.7059 5.55927 24.7059 5.02891 24.7059 4.41174C24.7059 3.43868 25.4975 2.64703 26.4706 2.64703C27.4436 2.64703 28.2353 3.43868 28.2353 4.41174V6.17644Z" fill="#3D2EE2"/>
<path d="M18.5293 4.41174C15.6279 4.41174 14.8394 8.46745 17.5762 9.52768C17.249 11.1376 15.8225 12.3529 14.1175 12.3529C11.4525 12.3529 9.24136 14.3325 8.8766 16.8984C7.82207 17.2472 7.05872 18.2417 7.05872 19.4117C7.05872 20.8714 8.24619 22.0588 9.70577 22.0588C11.1654 22.0588 12.3528 20.8714 12.3528 19.4117C12.3528 18.288 11.6487 17.3264 10.6588 16.9429C10.9861 15.333 12.4125 14.1176 14.1175 14.1176C16.7827 14.1176 18.9937 12.138 19.3585 9.57216C20.413 9.22333 21.1764 8.22886 21.1764 7.0588C21.1764 5.59921 19.9889 4.41174 18.5293 4.41174ZM9.70577 20.2941C9.21925 20.2941 8.82342 19.8983 8.82342 19.4117C8.82342 18.9252 9.21925 18.5294 9.70577 18.5294C10.1923 18.5294 10.5881 18.9252 10.5881 19.4117C10.5881 19.8983 10.1923 20.2941 9.70577 20.2941ZM18.5293 7.94116C18.0427 7.94116 17.647 7.54533 17.647 7.0588C17.647 6.57227 18.0427 6.17645 18.5293 6.17645C19.0158 6.17645 19.4117 6.57227 19.4117 7.0588C19.4117 7.54533 19.0158 7.94116 18.5293 7.94116Z" fill="#3D2EE2"/>
<path d="M19.7773 15.9266L18.5295 17.1745L17.2817 15.9266L16.0338 17.1745L17.2817 18.4223L16.0338 19.6702L17.2817 20.918L18.5295 19.6702L19.7773 20.918L21.0251 19.6702L19.7773 18.4223L21.0251 17.1745L19.7773 15.9266Z" fill="#3D2EE2"/>
<path d="M9.23334 10.5439L10.4812 9.29609L11.7291 10.5439L12.9768 9.29609L11.729 8.04826L12.9768 6.80038L11.7291 5.55261L10.4812 6.80044L9.23334 5.55261L7.98552 6.80038L9.23334 8.04826L7.98552 9.29609L9.23334 10.5439Z" fill="#3D2EE2"/>
</svg>
