<svg width="26" height="26" viewBox="0 0 26 26" fill="none" xmlns="http://www.w3.org/2000/svg">
<path d="M24.1719 0.88147H1.82831C1.30537 0.88147 0.881546 1.30529 0.881546 1.82823V24.1718C0.881546 24.6947 1.30537 25.1186 1.82831 25.1186H24.1719C24.6948 25.1186 25.1186 24.6947 25.1186 24.1718V1.82823C25.1186 1.30529 24.6948 0.88147 24.1719 0.88147ZM23.2251 23.225H2.77507V2.77499H23.2251V23.225ZM4.75661 7.37566C4.38678 7.00602 4.38678 6.40653 4.75661 6.0367C5.12626 5.66705 5.72575 5.66705 6.09539 6.0367L6.70838 6.64969L8.73301 4.62525C9.10265 4.25542 9.70215 4.25542 10.0718 4.62525C10.4416 4.99507 10.4416 5.59438 10.0718 5.96421L7.37796 8.65804C7.00813 9.02787 6.40864 9.02769 6.03899 8.65804L4.75661 7.37566ZM12.0533 6.64174C12.0533 6.1188 12.4772 5.69498 13.0001 5.69498H20.5742C21.0971 5.69498 21.5209 6.1188 21.5209 6.64174C21.5209 7.16449 21.0971 7.5885 20.5742 7.5885H13.0001C12.4772 7.5885 12.0533 7.16449 12.0533 6.64174ZM4.75661 20.0924C4.38678 19.7226 4.38678 19.1231 4.75661 18.7534C5.12626 18.3838 5.72575 18.3836 6.09539 18.7534L6.70838 19.3664L8.73301 17.342C9.10265 16.9722 9.70215 16.9722 10.0718 17.342C10.4416 17.7116 10.4416 18.3111 10.0718 18.681L7.37796 21.3748C7.00813 21.7446 6.40864 21.7444 6.03899 21.3748L4.75661 20.0924ZM12.0533 19.3583C12.0533 18.8355 12.4772 18.4115 13.0001 18.4115H20.5742C21.0971 18.4115 21.5209 18.8355 21.5209 19.3583C21.5209 19.8812 21.0971 20.3051 20.5742 20.3051H13.0001C12.4772 20.3051 12.0533 19.8812 12.0533 19.3583ZM4.75661 13.7341C4.38678 13.3643 4.38678 12.7648 4.75661 12.3952C5.12626 12.0253 5.72575 12.0253 6.09539 12.3952L6.70838 13.0082L8.73301 10.9835C9.10265 10.6139 9.70215 10.6139 10.0718 10.9835C10.4416 11.3534 10.4416 11.9528 10.0718 12.3225L7.37796 15.0165C7.00813 15.3862 6.40864 15.3862 6.03899 15.0165L4.75661 13.7341ZM12.0533 13C12.0533 12.4771 12.4772 12.0533 13.0001 12.0533H20.5742C21.0971 12.0533 21.5209 12.4771 21.5209 13C21.5209 13.523 21.0971 13.9468 20.5742 13.9468H13.0001C12.4772 13.9468 12.0533 13.523 12.0533 13Z" fill="#3D2EE2"/>
</svg>
