<svg width="30" height="30" viewBox="0 0 30 30" fill="none" xmlns="http://www.w3.org/2000/svg">
<g clip-path="url(#clip0)">
<path d="M25.625 6.25C23.9012 6.25 22.5 4.84875 22.5 3.125C22.5 1.40125 23.9012 0 25.625 0C27.3487 0 28.75 1.40125 28.75 3.125C28.75 4.84875 27.3487 6.25 25.625 6.25ZM25.625 1.875C24.935 1.875 24.375 2.435 24.375 3.125C24.375 3.815 24.935 4.375 25.625 4.375C26.315 4.375 26.875 3.815 26.875 3.125C26.875 2.435 26.315 1.875 25.625 1.875Z" fill="#3D2EE2"/>
<path d="M29.0625 7.49996C28.8225 7.49996 28.5825 7.40871 28.4 7.22496L26.7126 5.53746C26.3463 5.17121 26.3463 4.57746 26.7126 4.21121C27.0788 3.84496 27.6725 3.84496 28.0388 4.21121L29.7263 5.89871C30.0925 6.26496 30.0925 6.85871 29.7263 7.22496C29.5425 7.40871 29.3025 7.49996 29.0625 7.49996Z" fill="#3D2EE2"/>
<path d="M17.8125 7.5H2.1875C0.98125 7.5 0 6.51875 0 5.3125V2.1875C0 0.98125 0.98125 0 2.1875 0H17.8125C19.0187 0 20 0.98125 20 2.1875V5.3125C20 6.51875 19.0187 7.5 17.8125 7.5ZM2.1875 1.875C2.015 1.875 1.875 2.015 1.875 2.1875V5.3125C1.875 5.485 2.015 5.625 2.1875 5.625H17.8125C17.985 5.625 18.125 5.485 18.125 5.3125V2.1875C18.125 2.015 17.985 1.875 17.8125 1.875H2.1875Z" fill="#3D2EE2"/>
<path d="M17.1875 24.0624C16.9475 24.0624 16.7075 23.9712 16.525 23.7874C16.1588 23.4212 16.1588 22.8274 16.525 22.4612L19.075 19.9112C19.93 19.0562 21.3213 19.0562 22.175 19.9112L22.8263 20.5624C22.9063 20.6399 23.0088 20.6474 23.0513 20.6474C23.1038 20.6449 23.205 20.6262 23.285 20.5324L24.5675 18.9874C25.4025 17.9862 27.1 17.9874 27.9325 18.9862L29.7825 21.2124C30.115 21.6099 30.06 22.2012 29.6613 22.5324C29.265 22.8649 28.6713 22.8112 28.3413 22.4112L26.49 20.1862C26.3288 19.9937 26.1713 19.9924 26.0075 20.1874L24.7213 21.7362C24.3213 22.2112 23.7425 22.4937 23.13 22.5212C22.525 22.5449 21.9275 22.3149 21.5 21.8874L20.85 21.2374C20.7275 21.1149 20.5225 21.1149 20.4013 21.2374L17.8513 23.7874C17.6675 23.9712 17.4275 24.0624 17.1875 24.0624Z" fill="#3D2EE2"/>
<path d="M27.8126 28.125H18.4376C17.2313 28.125 16.2501 27.1438 16.2501 25.9375V13.4375C16.2501 12.2313 17.2313 11.25 18.4376 11.25H27.8126C29.0188 11.25 30.0001 12.2313 30.0001 13.4375V25.9375C30.0001 27.1438 29.0188 28.125 27.8126 28.125ZM18.4376 13.125C18.2651 13.125 18.1251 13.265 18.1251 13.4375V25.9375C18.1251 26.11 18.2651 26.25 18.4376 26.25H27.8126C27.9851 26.25 28.1251 26.11 28.1251 25.9375V13.4375C28.1251 13.265 27.9851 13.125 27.8126 13.125H18.4376Z" fill="#3D2EE2"/>
<path d="M12.8125 13.125H0.9375C0.42 13.125 0 12.705 0 12.1875C0 11.67 0.42 11.25 0.9375 11.25H12.8125C13.33 11.25 13.75 11.67 13.75 12.1875C13.75 12.705 13.33 13.125 12.8125 13.125Z" fill="#3D2EE2"/>
<path d="M12.8125 16.875H0.9375C0.42 16.875 0 16.455 0 15.9375C0 15.42 0.42 15 0.9375 15H12.8125C13.33 15 13.75 15.42 13.75 15.9375C13.75 16.455 13.33 16.875 12.8125 16.875Z" fill="#3D2EE2"/>
<path d="M12.8125 20.625H0.9375C0.42 20.625 0 20.205 0 19.6875C0 19.17 0.42 18.75 0.9375 18.75H12.8125C13.33 18.75 13.75 19.17 13.75 19.6875C13.75 20.205 13.33 20.625 12.8125 20.625Z" fill="#3D2EE2"/>
<path d="M12.8125 24.375H0.9375C0.42 24.375 0 23.955 0 23.4375C0 22.92 0.42 22.5 0.9375 22.5H12.8125C13.33 22.5 13.75 22.92 13.75 23.4375C13.75 23.955 13.33 24.375 12.8125 24.375Z" fill="#3D2EE2"/>
<path d="M12.8125 28.125H0.9375C0.42 28.125 0 27.705 0 27.1875C0 26.67 0.42 26.25 0.9375 26.25H12.8125C13.33 26.25 13.75 26.67 13.75 27.1875C13.75 27.705 13.33 28.125 12.8125 28.125Z" fill="#3D2EE2"/>
</g>
<defs>
<clipPath id="clip0">
<rect width="30" height="30" fill="white"/>
</clipPath>
</defs>
</svg>
