<svg width="30" height="30" viewBox="0 0 30 30" fill="none" xmlns="http://www.w3.org/2000/svg">
<path d="M13.4437 10.5883H9.70596V19.4118H20.2942V11.4706H15.2084L13.4437 10.5883ZM18.5295 17.6471H11.4707V12.353H13.0271L14.7918 13.2353H18.5295V17.6471Z" fill="#3D2EE2"/>
<path d="M8.82353 0H0V8.82353H8.82353V0ZM7.05882 7.05882H1.76471V1.76471H7.05882V7.05882Z" fill="#3D2EE2"/>
<path d="M10.5883 3.52942V5.29412H28.2353V14.1176H24.6761L25.4625 12.8069L23.9493 11.8989L22.0887 15L23.9493 18.1011L25.4625 17.1931L24.6761 15.8823H30.0001V3.52942H10.5883Z" fill="#3D2EE2"/>
<path d="M25.5882 21.1765C23.1555 21.1765 21.1764 23.1556 21.1764 25.5883C21.1764 28.0209 23.1555 30.0001 25.5882 30.0001C28.0208 30.0001 29.9999 28.0209 29.9999 25.5883C29.9999 23.1556 28.0208 21.1765 25.5882 21.1765ZM25.5882 28.2353C24.1285 28.2353 22.9411 27.0479 22.9411 25.5883C22.9411 24.1286 24.1285 22.9412 25.5882 22.9412C27.0478 22.9412 28.2352 24.1286 28.2352 25.5883C28.2352 27.0479 27.0478 28.2353 25.5882 28.2353Z" fill="#3D2EE2"/>
<path d="M16.0081 23.3952L16.7945 24.7059H1.76471V15.8824H7.94118V14.1177H0V26.4706H16.7945L16.0081 27.7813L17.5213 28.6893L19.3819 25.5883L17.5213 22.4872L16.0081 23.3952Z" fill="#3D2EE2"/>
</svg>
