<svg width="56" height="56" viewBox="0 0 56 56" fill="none" xmlns="http://www.w3.org/2000/svg">
<path d="M53.6568 43.4368H53.5504V15.8636C53.5504 13.222 51.4013 11.0728 48.7597 11.0728H45.7788V5.85629C45.7788 4.97438 45.0638 4.25939 44.1819 4.25939H37.3684C36.4865 4.25939 35.7715 4.97438 35.7715 5.85629V11.0728H28.8781C27.0923 5.16611 21.6 0.852661 15.1182 0.852661C7.19343 0.852661 0.746094 7.3 0.746094 15.2248C0.746094 17.6756 1.36324 19.9846 2.44946 22.0058V43.4368H2.343C1.46108 43.4368 0.746094 44.1517 0.746094 45.0337V48.7598C0.746094 52.2819 3.61158 55.1474 7.13371 55.1474H48.8661C52.3883 55.1474 55.2537 52.2819 55.2537 48.7598V45.0337C55.2537 44.1517 54.5387 43.4368 53.6568 43.4368ZM38.9653 7.4532H42.585V36.6233H38.9653V7.4532ZM35.7715 14.2667V36.6233H33.0035V19.4832C33.0035 18.6013 32.2886 17.8863 31.4066 17.8863H29.2423C29.4684 16.6836 29.5382 15.4834 29.4577 14.2667H35.7715ZM26.1901 36.6233V24.3783C27.0147 23.3826 27.7076 22.2742 28.2424 21.0801H29.8097V36.6233H26.1901ZM20.2283 36.6233V28.6573C21.2065 28.284 22.1335 27.8068 22.9963 27.2391V36.6233H20.2283ZM13.4149 36.6233V29.4955C14.6228 29.6389 15.8274 29.6305 17.0345 29.4689V36.6233H13.4149ZM15.1182 4.04647C21.282 4.04647 26.2966 9.06106 26.2966 15.2248C26.2966 21.3885 21.282 26.4031 15.1182 26.4031C8.9545 26.4031 3.9399 21.3885 3.9399 15.2248C3.9399 9.06106 8.9545 4.04647 15.1182 4.04647ZM5.64326 26.0217C6.97498 27.1918 8.52376 28.1202 10.2211 28.7373V36.6233H10.1146C9.23268 36.6233 8.51769 37.3383 8.51769 38.2202C8.51769 39.1021 9.23268 39.8171 10.1146 39.8171H45.8852C46.7672 39.8171 47.4821 39.1021 47.4821 38.2202C47.4821 37.3383 46.7672 36.6233 45.8852 36.6233H45.7788V14.2667H48.7597C49.6402 14.2667 50.3566 14.983 50.3566 15.8636V43.4368H5.64326V26.0217ZM52.0599 48.7598C52.0599 50.5208 50.6272 51.9536 48.8661 51.9536H7.13371C5.37264 51.9536 3.9399 50.5208 3.9399 48.7598V46.6306H26.403V47.5887C26.403 48.4706 27.118 49.1856 27.9999 49.1856C28.8818 49.1856 29.5968 48.4706 29.5968 47.5887V46.6306H52.0599V48.7598Z" fill="white"/>
<path d="M11.2406 21.533C12.0642 22.0647 12.7233 22.3309 13.4432 22.4572V22.6308C13.4432 23.4907 14.104 24.2306 14.9629 24.271C15.88 24.3143 16.637 23.5835 16.637 22.676V22.2765C18.2074 21.7087 19.4045 20.335 19.6951 18.607C20.0553 16.4645 18.8957 14.5297 16.8096 13.7924C15.7917 13.4325 14.3049 12.9211 14.0676 12.5285C14.0415 12.4854 13.9541 12.3115 14.0061 12.0358C14.0809 11.6375 14.4183 11.3854 14.8027 11.3115C15.5285 11.1721 16.3026 11.4488 16.738 11.716C17.5834 12.2347 18.526 11.9741 18.9792 11.308C19.4956 10.549 19.2686 9.52151 18.495 9.04691C17.9272 8.69889 17.3653 8.43306 16.637 8.25527C16.637 7.31012 15.9321 6.62473 15.1173 6.5863C14.2002 6.54307 13.4432 7.27382 13.4432 8.18139V8.34683C10.5655 9.39216 9.90329 13.3213 12.0966 15.0415C13.0597 15.797 14.4193 16.3349 15.7452 16.8035C16.5366 17.0833 16.6171 17.6507 16.5455 18.0775C16.4656 18.5529 16.0562 19.3592 15.029 19.366C13.9635 19.3732 13.7124 19.3336 12.9341 18.8244C12.1789 18.3306 11.1605 18.5584 10.691 19.3384C10.2404 20.0869 10.5067 21.0591 11.2406 21.533Z" fill="white"/>
</svg>
