<svg width="56" height="70" viewBox="0 0 56 70" fill="none" xmlns="http://www.w3.org/2000/svg">
<path d="M28.6113 61.7969C29.744 61.7969 30.6621 60.8787 30.6621 59.7461C30.6621 58.6135 29.744 57.6953 28.6113 57.6953C27.4787 57.6953 26.5606 58.6135 26.5606 59.7461C26.5606 60.8787 27.4787 61.7969 28.6113 61.7969Z" fill="white"/>
<path d="M55.0045 68.961C55.3688 68.3188 55.3597 67.5304 54.9808 66.8967L45.5488 51.1244C51.2274 46.0603 54.3484 38.5813 54.3484 31.8665C54.3442 31.8527 54.7816 21.6442 45.0116 16.7595C44.3756 16.4415 43.6207 16.4756 43.0164 16.8493C42.4117 17.2229 42.0097 17.883 42.0097 18.5938V22.5208C42.0097 23.4281 41.5658 24.2245 40.765 24.6513C39.9645 25.0781 39.0366 25.0308 38.2836 24.5248C37.4047 23.9346 37.0103 22.8163 37.3241 21.8051L38.1065 19.2844C40.5762 11.3278 36.1936 2.7242 28.3367 0.105355C27.5505 -0.156735 26.6824 0.0806092 26.139 0.707328C25.5955 1.33391 25.483 2.22627 25.8541 2.96811C26.1361 3.53221 26.5721 6.16323 26.3998 9.18115C26.198 12.7141 25.3195 14.4861 24.6282 14.9302C23.9055 15.3943 21.4818 14.6904 16.9805 9.10404C16.5426 8.56031 15.8569 8.27676 15.164 8.35182C14.47 8.4266 13.8616 8.8492 13.5494 9.4736C11.2494 14.0735 11.3545 18.8131 13.8536 23.1799C14.6765 24.6182 14.1133 26.4259 12.5467 26.948C10.9144 27.492 9.19721 26.2803 9.19721 24.5585V22.6954C9.19721 21.8659 8.73168 21.1182 7.96524 20.8007C7.19879 20.4833 6.31682 20.6587 5.73029 21.2452C1.26479 25.7106 -0.190037 30.882 1.28283 37.055C2.69569 42.9769 6.2486 48.3233 11.1519 51.997L2.24178 66.8967C1.86293 67.5304 1.85377 68.3187 2.21799 68.961C2.58221 69.6033 3.26348 70.0001 4.0019 70.0001H53.2206C53.9591 70.0001 54.6403 69.6032 55.0045 68.961ZM5.27256 36.1031C4.52567 32.9728 4.7384 30.2518 5.95574 27.7789C7.41604 30.401 10.6416 31.9065 13.8436 30.8392C17.8268 29.5115 19.5435 24.8661 17.4135 21.143C16.1632 18.9583 15.7448 16.7047 16.1588 14.4122C17.8147 16.1623 19.3334 17.4071 20.7564 18.1855C23.6105 19.7465 25.6427 19.1537 26.8447 18.3812C29.537 16.6519 30.3156 12.5509 30.4946 9.41494C30.5572 8.31655 30.5529 7.07842 30.4743 5.87502C33.9732 8.6995 35.599 13.5266 34.1891 18.0686L33.4068 20.5892C32.5597 23.318 33.6246 26.3365 35.9963 27.9297C37.9986 29.2748 40.5651 29.4054 42.6938 28.2711C44.8226 27.1366 46.145 24.9332 46.145 22.5209V22.4766C48.6795 24.8177 50.1869 28.1215 50.2344 31.6967C50.1694 37.6903 47.6504 43.45 43.3985 47.5288L30.3711 25.7442C30.0007 25.125 29.3323 24.746 28.611 24.746C27.8897 24.746 27.2212 25.125 26.8509 25.7442L13.2699 48.4554C9.30166 45.3632 6.43166 40.9614 5.27256 36.1031ZM7.6177 65.8985C8.36445 64.6497 28.1723 31.5266 28.6113 30.7927C29.5821 32.4161 45.5265 59.0787 49.6048 65.8985H7.6177Z" fill="white"/>
<path d="M28.6113 41.1523C27.4788 41.1523 26.5606 42.0705 26.5606 43.2031V51.543C26.5606 52.6755 27.4788 53.5938 28.6113 53.5938C29.7439 53.5938 30.6621 52.6755 30.6621 51.543V43.2031C30.6621 42.0705 29.7439 41.1523 28.6113 41.1523Z" fill="white"/>
</svg>
