<svg width="46" height="46" viewBox="0 0 46 46" fill="none" xmlns="http://www.w3.org/2000/svg">
<path d="M44.1619 5.78951H27.1294L24.008 1.10756C23.7638 0.741132 23.3526 0.520996 22.9122 0.520996H1.83814C1.11073 0.520996 0.521011 1.11072 0.521011 1.83812V44.1618C0.521011 44.8892 1.11073 45.479 1.83814 45.479H44.1619C44.8893 45.479 45.479 44.8892 45.479 44.1618V7.10664C45.479 6.37923 44.8893 5.78951 44.1619 5.78951ZM22.2073 3.15525L23.9635 5.78951H20.1048L18.3486 3.15525H22.2073ZM42.8447 42.8447H3.15527V13.6923H42.8447V42.8447ZM42.8447 11.058H3.15527V3.15525H15.1827L18.304 7.8372C18.5482 8.20363 18.9594 8.42376 19.3998 8.42376H42.8447V11.058Z" fill="#BDBDBD"/>
<path d="M23 33.098C25.663 33.098 27.8295 30.9315 27.8295 28.2686C27.8295 25.6056 25.663 23.4391 23 23.4391C20.337 23.4391 18.1705 25.6056 18.1705 28.2686C18.1705 30.9315 20.337 33.098 23 33.098ZM23 26.0733C24.2104 26.0733 25.1952 27.0581 25.1952 28.2686C25.1952 29.479 24.2104 30.4638 23 30.4638C21.7895 30.4638 20.8048 29.479 20.8048 28.2686C20.8048 27.0581 21.7895 26.0733 23 26.0733Z" fill="#BDBDBD"/>
<path d="M11.4169 31.9143L14.0512 36.4769C14.415 37.107 15.2205 37.3228 15.8504 36.959L16.9351 36.3327C17.5927 36.8315 18.2993 37.2423 19.0486 37.5621V38.8055C19.0486 39.5329 19.6384 40.1226 20.3658 40.1226H25.6343C26.3617 40.1226 26.9514 39.5329 26.9514 38.8055V37.5621C27.7008 37.2423 28.4074 36.8315 29.065 36.3327L30.1497 36.959C30.7795 37.3228 31.5852 37.1067 31.9489 36.4769L34.5831 31.9143C34.9469 31.2843 34.7311 30.4788 34.101 30.1151L33.021 29.4915C33.0722 29.0812 33.098 28.6724 33.098 28.2685C33.098 27.8645 33.0722 27.4557 33.021 27.0455L34.101 26.4218C34.7311 26.0581 34.9469 25.2526 34.5831 24.6227L31.9489 20.06C31.5851 19.4299 30.7796 19.2141 30.1497 19.578L29.065 20.2041C28.4074 19.7055 27.7008 19.2945 26.9514 18.9748V17.7314C26.9514 17.004 26.3617 16.4143 25.6343 16.4143H20.3658C19.6384 16.4143 19.0486 17.004 19.0486 17.7314V18.9748C18.2993 19.2945 17.5927 19.7055 16.9351 20.2041L15.8504 19.578C15.2202 19.2141 14.4148 19.4301 14.0512 20.06L11.4169 24.6227C11.0531 25.2526 11.269 26.0581 11.899 26.4218L12.9791 27.0455C12.9279 27.4557 12.902 27.8645 12.902 28.2685C12.902 28.6724 12.9279 29.0812 12.9791 29.4915L11.899 30.1151C11.269 30.4788 11.0531 31.2843 11.4169 31.9143ZM15.7182 29.8884C15.5975 29.3431 15.5363 28.7981 15.5363 28.2685C15.5363 27.7388 15.5975 27.1938 15.7182 26.6486C15.8426 26.0874 15.5886 25.5104 15.0908 25.2231L14.3568 24.7992L15.6739 22.518L16.4134 22.9448C16.9116 23.2323 17.5386 23.1635 17.9625 22.7746C18.7854 22.0197 19.7268 21.4723 20.7605 21.1475C21.3095 20.9751 21.6829 20.4663 21.6829 19.8909V19.0486H24.3172V19.8909C24.3172 20.4663 24.6906 20.9751 25.2396 21.1475C26.2733 21.4723 27.2147 22.0197 28.0376 22.7746C28.4614 23.1635 29.0884 23.2323 29.5866 22.9448L30.3262 22.518L31.6433 24.7992L30.9092 25.2231C30.4114 25.5104 30.1575 26.0875 30.2818 26.6486C30.4026 27.1938 30.4638 27.7388 30.4638 28.2685C30.4638 28.7981 30.4026 29.3431 30.2818 29.8884C30.1575 30.4495 30.4114 31.0265 30.9092 31.3138L31.6433 31.7377L30.3262 34.019L29.5866 33.592C29.0884 33.3045 28.4613 33.3734 28.0376 33.7622C27.2147 34.5172 26.2734 35.0647 25.2396 35.3894C24.6906 35.5618 24.3172 36.0706 24.3172 36.646V37.4884H21.6829V36.646C21.6829 36.0706 21.3095 35.5618 20.7605 35.3894C19.7267 35.0647 18.7853 34.5171 17.9625 33.7622C17.5388 33.3733 16.9116 33.3043 16.4134 33.592L15.6739 34.019L14.3568 31.7377L15.0908 31.3138C15.5887 31.0265 15.8426 30.4495 15.7182 29.8884Z" fill="#BDBDBD"/>
</svg>
