<svg width="50" height="50" viewBox="0 0 50 50" fill="none" xmlns="http://www.w3.org/2000/svg">
<path d="M46.6797 28.079C46.6797 27.1251 46.6797 5.54512 46.6797 4.58984C46.6797 3.78086 46.0238 3.125 45.2148 3.125H37.3047V1.46484C37.3047 0.655859 36.6488 0 35.8398 0C35.0309 0 34.375 0.655859 34.375 1.46484V3.125H24.8047V1.46484C24.8047 0.655859 24.1488 0 23.3398 0C22.5309 0 21.875 0.655859 21.875 1.46484V3.125H12.3047V1.46484C12.3047 0.655859 11.6488 0 10.8398 0C10.0309 0 9.375 0.655859 9.375 1.46484V3.125H1.46484C0.655859 3.125 0 3.78086 0 4.58984V44.4336C0 45.2426 0.655859 45.8984 1.46484 45.8984H27.2687C29.6719 48.4236 33.0635 50 36.8164 50C44.0858 50 50 44.0858 50 36.8164C50 33.4676 48.7442 30.4069 46.6797 28.079ZM2.92969 6.05469H9.375V6.93359C9.375 7.74258 10.0309 8.39844 10.8398 8.39844C11.6488 8.39844 12.3047 7.74258 12.3047 6.93359V6.05469H21.875V6.93359C21.875 7.74258 22.5309 8.39844 23.3398 8.39844C24.1488 8.39844 24.8047 7.74258 24.8047 6.93359V6.05469H34.375V6.93359C34.375 7.74258 35.0309 8.39844 35.8398 8.39844C36.6488 8.39844 37.3047 7.74258 37.3047 6.93359V6.05469H43.75V10.9375H2.92969V6.05469ZM2.92969 42.9688V13.8672H43.75V25.6083C41.7344 24.3567 39.3585 23.6328 36.8164 23.6328C29.547 23.6328 23.6328 29.547 23.6328 36.8164C23.6328 39.0372 24.1855 41.131 25.1595 42.9688H2.92969ZM36.8164 47.0703C31.1624 47.0703 26.5625 42.4704 26.5625 36.8164C26.5625 31.1624 31.1624 26.5625 36.8164 26.5625C42.4704 26.5625 47.0703 31.1624 47.0703 36.8164C47.0703 42.4704 42.4704 47.0703 36.8164 47.0703Z" fill="#BDBDBD"/>
<path d="M20.2148 17.1875H17.0898C16.2809 17.1875 15.625 17.8434 15.625 18.6523C15.625 19.4613 16.2809 20.1172 17.0898 20.1172H20.2148C21.0238 20.1172 21.6797 19.4613 21.6797 18.6523C21.6797 17.8434 21.0238 17.1875 20.2148 17.1875Z" fill="#BDBDBD"/>
<path d="M26.4648 20.1172H29.5898C30.3988 20.1172 31.0547 19.4613 31.0547 18.6523C31.0547 17.8434 30.3988 17.1875 29.5898 17.1875H26.4648C25.6559 17.1875 25 17.8434 25 18.6523C25 19.4613 25.6559 20.1172 26.4648 20.1172Z" fill="#BDBDBD"/>
<path d="M35.8398 20.1172H38.9648C39.7738 20.1172 40.4297 19.4613 40.4297 18.6523C40.4297 17.8434 39.7738 17.1875 38.9648 17.1875H35.8398C35.0309 17.1875 34.375 17.8434 34.375 18.6523C34.375 19.4613 35.0309 20.1172 35.8398 20.1172Z" fill="#BDBDBD"/>
<path d="M10.8398 23.4375H7.71484C6.90586 23.4375 6.25 24.0934 6.25 24.9023C6.25 25.7113 6.90586 26.3672 7.71484 26.3672H10.8398C11.6488 26.3672 12.3047 25.7113 12.3047 24.9023C12.3047 24.0934 11.6488 23.4375 10.8398 23.4375Z" fill="#BDBDBD"/>
<path d="M20.2148 23.4375H17.0898C16.2809 23.4375 15.625 24.0934 15.625 24.9023C15.625 25.7113 16.2809 26.3672 17.0898 26.3672H20.2148C21.0238 26.3672 21.6797 25.7113 21.6797 24.9023C21.6797 24.0934 21.0238 23.4375 20.2148 23.4375Z" fill="#BDBDBD"/>
<path d="M10.8398 29.6875H7.71484C6.90586 29.6875 6.25 30.3434 6.25 31.1523C6.25 31.9613 6.90586 32.6172 7.71484 32.6172H10.8398C11.6488 32.6172 12.3047 31.9613 12.3047 31.1523C12.3047 30.3434 11.6488 29.6875 10.8398 29.6875Z" fill="#BDBDBD"/>
<path d="M20.2148 29.6875H17.0898C16.2809 29.6875 15.625 30.3434 15.625 31.1523C15.625 31.9613 16.2809 32.6172 17.0898 32.6172H20.2148C21.0238 32.6172 21.6797 31.9613 21.6797 31.1523C21.6797 30.3434 21.0238 29.6875 20.2148 29.6875Z" fill="#BDBDBD"/>
<path d="M10.8398 35.9375H7.71484C6.90586 35.9375 6.25 36.5934 6.25 37.4023C6.25 38.2113 6.90586 38.8672 7.71484 38.8672H10.8398C11.6488 38.8672 12.3047 38.2113 12.3047 37.4023C12.3047 36.5934 11.6488 35.9375 10.8398 35.9375Z" fill="#BDBDBD"/>
<path d="M20.2148 35.9375H17.0898C16.2809 35.9375 15.625 36.5934 15.625 37.4023C15.625 38.2113 16.2809 38.8672 17.0898 38.8672H20.2148C21.0238 38.8672 21.6797 38.2113 21.6797 37.4023C21.6797 36.5934 21.0238 35.9375 20.2148 35.9375Z" fill="#BDBDBD"/>
<path d="M33.2594 42.8407C34.0149 43.3284 34.6195 43.5726 35.2798 43.6884V43.8477C35.2798 44.6365 35.886 45.3152 36.6739 45.3523C37.5151 45.3919 38.2095 44.7216 38.2095 43.8891V43.5227C39.65 43.0018 40.7482 41.7417 41.0147 40.1567C41.3452 38.1913 40.2814 36.4165 38.3678 35.7402C37.4341 35.4101 36.0703 34.941 35.8526 34.5808C35.8287 34.5413 35.7485 34.3818 35.7961 34.1289C35.8648 33.7635 36.1743 33.5323 36.5269 33.4645C37.1927 33.3366 37.9028 33.5904 38.3022 33.8355C39.0777 34.3113 39.9423 34.0723 40.3581 33.4613C40.8317 32.765 40.6235 31.8225 39.9138 31.3872C39.393 31.0679 38.8776 30.8241 38.2095 30.661C38.2095 29.794 37.5629 29.1653 36.8155 29.13C35.9743 29.0904 35.2798 29.7607 35.2798 30.5932V30.745C32.6401 31.7039 32.0327 35.3081 34.0446 36.886C34.9281 37.579 36.1752 38.0724 37.3914 38.5023C38.1174 38.7589 38.1913 39.2794 38.1255 39.6709C38.0523 40.107 37.6767 40.8466 36.7345 40.8529C35.7571 40.8595 35.5268 40.8232 34.8128 40.3561C34.1201 39.9031 33.1859 40.1121 32.7552 40.8276C32.3419 41.5142 32.5862 42.406 33.2594 42.8407Z" fill="#BDBDBD"/>
</svg>
