<svg width="46" height="46" viewBox="0 0 46 46" fill="none" xmlns="http://www.w3.org/2000/svg">
<path d="M42.4631 12.7304L44.5003 10.6933C45.5794 9.61406 44.8152 7.75821 43.2847 7.75821H38.242V2.71581C38.242 1.18936 36.3892 0.418075 35.307 1.49996L33.2698 3.53713C30.1175 1.872 26.5942 0.996622 22.999 0.996622C10.8377 0.996622 0.994354 10.8383 0.994354 23.0012C0.994354 35.1625 10.836 45.0059 22.999 45.0059C35.1602 45.0059 45.0036 35.1642 45.0036 23.0012C45.0036 19.4061 44.1285 15.8831 42.4631 12.7304V12.7304ZM36.5228 11.1966H39.1342L35.8106 14.5201H31.4801V10.1896L34.8036 6.86604V9.4774C34.8036 10.427 35.5732 11.1966 36.5228 11.1966V11.1966ZM22.999 41.5678C12.7379 41.5678 4.43273 33.2637 4.43273 23.0012C4.43273 12.7402 12.7366 4.43467 22.999 4.43467C25.6724 4.43467 28.2979 5.0075 30.7031 6.10416L28.5454 8.26188C28.223 8.58422 28.0417 9.02141 28.0417 9.4774V15.5271L21.7834 21.7857C21.1122 22.4569 21.1122 23.5455 21.7834 24.2168C22.4547 24.888 23.5433 24.8883 24.2148 24.2168L30.4731 17.9585H36.5228C36.9788 17.9585 37.416 17.7772 37.7383 17.4552L39.8964 15.2971C40.993 17.7023 41.5655 20.3278 41.5655 23.0012C41.5655 33.2623 33.2617 41.5678 22.999 41.5678V41.5678ZM36.5557 23.0012C36.5557 30.4764 30.4744 36.558 22.999 36.558C15.5239 36.558 9.44222 30.4764 9.44222 23.0012C9.44222 15.5261 15.5239 9.44449 22.999 9.44449C23.9486 9.44449 24.7182 10.2141 24.7182 11.1637C24.7182 12.1133 23.9486 12.8829 22.999 12.8829C17.4197 12.8829 12.8806 17.4219 12.8806 23.0012C12.8806 28.5805 17.4197 33.1196 22.999 33.1196C28.5783 33.1196 33.1177 28.5805 33.1177 23.0012C33.1177 22.0517 33.8873 21.2821 34.8365 21.2821C35.7861 21.2821 36.5557 22.0517 36.5557 23.0012V23.0012Z" fill="#BDBDBD"/>
</svg>
