<svg width="44" height="44" viewBox="0 0 44 44" fill="none" xmlns="http://www.w3.org/2000/svg">
<path d="M43.464 25.3537C43.464 24.4141 43.0157 22.6549 40.0141 21.4297C39.7125 21.3066 39.3937 21.1938 39.062 21.09C39.0896 20.6673 39.1041 20.2431 39.1041 19.8201C39.1041 14.6691 37.0982 9.82648 33.456 6.18414C29.8136 2.54189 24.971 0.536011 19.8201 0.536011C14.6691 0.536011 9.82648 2.54189 6.18414 6.18414C2.54189 9.82648 0.536011 14.6691 0.536011 19.8201C0.536011 24.971 2.54189 29.8136 6.18414 33.456C9.82648 37.0982 14.6691 39.1041 19.8201 39.1041C21.1262 39.1041 22.422 38.9732 23.6902 38.7148C23.782 39.6946 24.4034 41.2457 27.1267 42.3573C28.8751 43.0709 31.1634 43.464 33.5704 43.464C35.9774 43.464 38.2658 43.071 40.0141 42.3573C43.0157 41.1322 43.464 39.373 43.464 38.4334V25.6053H43.453C43.4605 25.5164 43.464 25.432 43.464 25.3537ZM40.0762 25.353C40.073 25.3573 40.0702 25.3615 40.0669 25.366C40.0606 25.3742 40.0537 25.3826 40.0466 25.3911C40.0385 25.4008 40.0298 25.4106 40.0206 25.4206C40.0126 25.4294 40.0041 25.4383 39.9952 25.4472C39.985 25.4575 39.9742 25.468 39.9629 25.4787C39.9531 25.4879 39.9431 25.4971 39.9326 25.5065C39.9202 25.5174 39.9072 25.5285 39.8938 25.5396C39.8824 25.5492 39.8709 25.5587 39.8586 25.5685C39.8442 25.58 39.8288 25.5916 39.8133 25.6033C39.8003 25.6132 39.7873 25.623 39.7734 25.6329C39.7567 25.6449 39.7391 25.6572 39.7214 25.6693C39.7068 25.6793 39.6924 25.6893 39.6771 25.6994C39.6581 25.7119 39.6379 25.7247 39.6177 25.7374C39.6018 25.7475 39.5862 25.7575 39.5695 25.7677C39.548 25.7808 39.5252 25.794 39.5025 25.8072C39.4853 25.8173 39.4686 25.8273 39.4507 25.8374C39.4264 25.851 39.4007 25.8648 39.3752 25.8787C39.3571 25.8885 39.3396 25.8982 39.3209 25.908C39.2928 25.9229 39.263 25.9377 39.2334 25.9526C39.2155 25.9615 39.1985 25.9704 39.1801 25.9794C39.1432 25.9975 39.1044 26.0157 39.0652 26.0338C39.0528 26.0396 39.0412 26.0453 39.0286 26.0511C38.976 26.075 38.9216 26.0991 38.8653 26.123C38.8546 26.1275 38.843 26.1321 38.8321 26.1367C38.7863 26.156 38.7398 26.1752 38.6915 26.1944C38.6706 26.2027 38.6486 26.2108 38.6274 26.219C38.5877 26.2344 38.5482 26.2498 38.5071 26.265C38.4817 26.2743 38.4551 26.2836 38.4292 26.2929C38.3903 26.3068 38.3515 26.3208 38.3113 26.3346C38.2833 26.3443 38.2541 26.3537 38.2254 26.3633C38.1857 26.3765 38.146 26.3898 38.105 26.4029C38.0746 26.4126 38.043 26.4222 38.0118 26.4318C37.971 26.4445 37.9301 26.457 37.8881 26.4694C37.8553 26.4792 37.8215 26.4886 37.7879 26.4982C37.7458 26.5102 37.7036 26.5222 37.6603 26.5339C37.6254 26.5435 37.5896 26.5528 37.5539 26.5621C37.5103 26.5735 37.4666 26.5849 37.4219 26.5961C37.385 26.6053 37.3473 26.6143 37.3098 26.6233C37.2645 26.6342 37.2189 26.6449 37.1725 26.6555C37.1338 26.6643 37.0945 26.673 37.055 26.6816C37.0081 26.6918 36.9607 26.7019 36.9128 26.7118C36.8722 26.7201 36.8313 26.7284 36.7899 26.7365C36.7412 26.746 36.6919 26.7554 36.6421 26.7647C36.5999 26.7725 36.5575 26.7802 36.5146 26.7877C36.4639 26.7966 36.4126 26.8052 36.3608 26.8138C36.3171 26.821 36.2731 26.8282 36.2286 26.8351C36.176 26.8432 36.1225 26.8511 36.0689 26.8588C36.0237 26.8654 35.9785 26.8719 35.9325 26.8781C35.8776 26.8855 35.8217 26.8925 35.7657 26.8995C35.7192 26.9053 35.673 26.9111 35.6259 26.9165C35.5687 26.9231 35.5104 26.9292 35.4521 26.9353C35.4045 26.9402 35.3571 26.9453 35.3088 26.95C35.2489 26.9557 35.1878 26.9608 35.1268 26.966C35.0785 26.9701 35.0306 26.9744 34.9817 26.9781C34.918 26.983 34.8531 26.9871 34.7884 26.9913C34.7405 26.9944 34.6929 26.9978 34.6443 27.0006C34.5755 27.0045 34.5052 27.0076 34.4352 27.0107C34.389 27.0128 34.3434 27.0154 34.2966 27.0171C34.2182 27.02 34.1382 27.022 34.0584 27.024C34.0183 27.025 33.9791 27.0265 33.9386 27.0273C33.8176 27.0295 33.695 27.0308 33.5706 27.0308C33.4462 27.0308 33.3236 27.0295 33.2026 27.0273C33.1622 27.0265 33.1229 27.025 33.0828 27.024C33.0029 27.022 32.9229 27.02 32.8446 27.0171C32.7978 27.0154 32.7523 27.0128 32.706 27.0107C32.6359 27.0076 32.5656 27.0045 32.4969 27.0006C32.4483 26.9978 32.4008 26.9944 32.3528 26.9913C32.288 26.9871 32.2231 26.983 32.1595 26.9781C32.1105 26.9744 32.0627 26.9701 32.0144 26.966C31.9534 26.9608 31.8923 26.9557 31.8324 26.95C31.784 26.9453 31.7367 26.9402 31.6891 26.9353C31.6308 26.9292 31.5725 26.9231 31.5153 26.9165C31.4682 26.9111 31.4219 26.9053 31.3755 26.8995C31.3195 26.8925 31.2636 26.8856 31.2086 26.8781C31.1627 26.8719 31.1175 26.8654 31.0723 26.8588C31.0186 26.8511 30.9652 26.8433 30.9126 26.8351C30.8681 26.8281 30.8241 26.821 30.7804 26.8138C30.7286 26.8052 30.6773 26.7966 30.6266 26.7877C30.5837 26.7802 30.5412 26.7725 30.4991 26.7647C30.4493 26.7554 30.4 26.746 30.3512 26.7365C30.31 26.7284 30.269 26.7201 30.2284 26.7118C30.1805 26.7019 30.1331 26.6918 30.0861 26.6816C30.0466 26.6729 30.0074 26.6643 29.9687 26.6555C29.9223 26.6449 29.8767 26.6341 29.8314 26.6233C29.7938 26.6142 29.7562 26.6053 29.7193 26.5961C29.6746 26.5849 29.6309 26.5735 29.5873 26.5621C29.5516 26.5527 29.5158 26.5434 29.4809 26.5339C29.4376 26.5222 29.3954 26.5102 29.3533 26.4982C29.3197 26.4886 29.2859 26.4792 29.2531 26.4694C29.2111 26.457 29.1702 26.4444 29.1294 26.4318C29.0982 26.4222 29.0667 26.4126 29.0362 26.4029C28.9952 26.3898 28.9555 26.3765 28.9158 26.3633C28.8871 26.3537 28.8579 26.3443 28.8299 26.3346C28.7897 26.3209 28.7509 26.3069 28.712 26.2929C28.6861 26.2836 28.6594 26.2743 28.6341 26.265C28.593 26.2497 28.5535 26.2344 28.5138 26.219C28.4925 26.2108 28.4705 26.2026 28.4497 26.1944C28.4014 26.1752 28.3549 26.156 28.3091 26.1367C28.2982 26.1321 28.2866 26.1276 28.2759 26.123C28.2195 26.099 28.1651 26.075 28.1125 26.0511C28.1 26.0453 28.0884 26.0396 28.076 26.0338C28.0369 26.0156 27.998 25.9975 27.961 25.9794C27.9427 25.9704 27.9256 25.9615 27.9078 25.9526C27.8782 25.9376 27.8484 25.9228 27.8203 25.908C27.8016 25.8982 27.7841 25.8885 27.766 25.8787C27.7404 25.8648 27.7147 25.851 27.6905 25.8374C27.6725 25.8273 27.6558 25.8173 27.6386 25.8072C27.6159 25.794 27.5931 25.7808 27.5717 25.7677C27.555 25.7574 27.5394 25.7475 27.5234 25.7374C27.5033 25.7247 27.4831 25.712 27.4641 25.6994C27.4487 25.6893 27.4344 25.6793 27.4198 25.6693C27.402 25.6571 27.3843 25.6449 27.3677 25.6329C27.3539 25.6229 27.3409 25.6131 27.3278 25.6033C27.3123 25.5915 27.297 25.58 27.2826 25.5685C27.2703 25.5587 27.2588 25.5492 27.2473 25.5396C27.2339 25.5285 27.2209 25.5174 27.2086 25.5065C27.198 25.4971 27.188 25.4878 27.1783 25.4787C27.167 25.468 27.1562 25.4575 27.146 25.4472C27.1371 25.4383 27.1286 25.4294 27.1206 25.4206C27.1114 25.4106 27.1027 25.4008 27.0946 25.3911C27.0875 25.3826 27.0806 25.3742 27.0743 25.366C27.0709 25.3615 27.0681 25.3573 27.065 25.353C27.4599 24.8116 29.6957 23.6769 33.5704 23.6769C37.4452 23.6769 39.6809 24.8116 40.0762 25.353ZM23.6769 25.3537C23.6769 25.432 23.6804 25.5164 23.6879 25.6053H23.6769V35.28C22.4216 35.5919 21.1276 35.7504 19.8201 35.7504C11.036 35.7504 3.88976 28.6041 3.88976 19.8201C3.88976 11.036 11.036 3.88976 19.8201 3.88976C28.6041 3.88976 35.7504 11.036 35.7504 19.8201C35.7504 20.024 35.7462 20.2282 35.7384 20.4322C35.0349 20.3604 34.3083 20.3231 33.5704 20.3231C31.1634 20.3231 28.8751 20.7162 27.1267 21.4298C24.1251 22.6549 23.6769 24.4141 23.6769 25.3537ZM40.1102 38.3802C39.8332 38.8958 37.5787 40.1102 33.5704 40.1102C29.5621 40.1102 27.3076 38.8958 27.0306 38.3802V35.6928C27.0629 35.7064 27.0938 35.7203 27.1267 35.7337C28.8751 36.4473 31.1634 36.8403 33.5704 36.8403C35.9774 36.8403 38.2658 36.4473 40.0141 35.7337C40.0471 35.7202 40.0779 35.7064 40.1102 35.6928V38.3802ZM40.1102 31.7543C39.84 32.2682 37.5861 33.4866 33.5704 33.4866C29.5547 33.4866 27.3008 32.2682 27.0306 31.7543V29.2369C27.0629 29.2505 27.0938 29.2643 27.1267 29.2777C28.8751 29.9913 31.1634 30.3844 33.5704 30.3844C35.9774 30.3844 38.2658 29.9914 40.0141 29.2778C40.0471 29.2643 40.0779 29.2505 40.1102 29.237V31.7543Z" fill="#BDBDBD"/>
<path d="M18.1432 18.1432H10.5973V21.497H21.4969V7.24353H18.1432V18.1432Z" fill="#BDBDBD"/>
</svg>
