<svg width="44" height="50" viewBox="0 0 44 50" fill="none" xmlns="http://www.w3.org/2000/svg">
<path d="M30.7891 14.7461C31.598 14.7461 32.2539 14.0902 32.2539 13.2812V1.46484C32.2539 0.655859 31.598 0 30.7891 0H7.35156C6.54258 0 5.88672 0.655859 5.88672 1.46484V13.2812C5.88672 14.0902 6.54258 14.7461 7.35156 14.7461H30.7891ZM8.81641 2.92969H29.3242V11.8164H8.81641V2.92969Z" fill="#BDBDBD"/>
<path d="M24.9297 5.95703H19.0703C18.2613 5.95703 17.6055 6.61289 17.6055 7.42188C17.6055 8.23086 18.2613 8.88672 19.0703 8.88672H24.9297C25.7387 8.88672 26.3945 8.23086 26.3945 7.42188C26.3945 6.61289 25.7387 5.95703 24.9297 5.95703Z" fill="#BDBDBD"/>
<path d="M0.0273438 19.1406V30.8594C0.0273438 31.6684 0.683203 32.3242 1.49219 32.3242H30.7891C31.598 32.3242 32.2539 31.6684 32.2539 30.8594V19.1406C32.2539 18.3316 31.598 17.6758 30.7891 17.6758H1.49219C0.683203 17.6758 0.0273438 18.3316 0.0273438 19.1406ZM2.95703 20.6055H29.3242V29.3945H2.95703V20.6055Z" fill="#BDBDBD"/>
<path d="M24.9297 23.5352H13.2109C12.402 23.5352 11.7461 24.191 11.7461 25C11.7461 25.809 12.402 26.4648 13.2109 26.4648H24.9297C25.7387 26.4648 26.3945 25.809 26.3945 25C26.3945 24.191 25.7387 23.5352 24.9297 23.5352Z" fill="#BDBDBD"/>
<path d="M30.7891 35.2539H7.35156C6.54258 35.2539 5.88672 35.9098 5.88672 36.7188V48.5352C5.88672 49.3441 6.54258 50 7.35156 50H30.7891C31.598 50 32.2539 49.3441 32.2539 48.5352V36.7188C32.2539 35.9098 31.598 35.2539 30.7891 35.2539ZM29.3242 47.0703H8.81641V38.1836H29.3242V47.0703Z" fill="#BDBDBD"/>
<path d="M19.0703 44.043H24.9297C25.7387 44.043 26.3945 43.3871 26.3945 42.5781C26.3945 41.7691 25.7387 41.1133 24.9297 41.1133H19.0703C18.2613 41.1133 17.6055 41.7691 17.6055 42.5781C17.6055 43.3871 18.2613 44.043 19.0703 44.043Z" fill="#BDBDBD"/>
<path d="M35.1836 42.5781C35.1836 45.0013 37.155 46.9727 39.5781 46.9727C42.0013 46.9727 43.9727 45.0013 43.9727 42.5781C43.9727 40.6685 42.7479 39.0402 41.043 38.4355V29.1426C42.7479 28.5379 43.9727 26.9097 43.9727 25C43.9727 23.0903 42.7479 21.4621 41.043 20.8574V11.5645C42.7479 10.9598 43.9727 9.33154 43.9727 7.42188C43.9727 4.99873 42.0013 3.02734 39.5781 3.02734C37.155 3.02734 35.1836 4.99873 35.1836 7.42188C35.1836 9.33154 36.4083 10.9598 38.1133 11.5645V20.8574C36.4083 21.4621 35.1836 23.0903 35.1836 25C35.1836 26.9097 36.4083 28.5379 38.1133 29.1426V38.4355C36.4083 39.0402 35.1836 40.6685 35.1836 42.5781ZM39.5781 44.043C38.7704 44.043 38.1133 43.3858 38.1133 42.5781C38.1133 41.7707 38.7698 41.1139 39.5771 41.1133H39.5781C39.5781 41.1133 39.5787 41.1133 39.5791 41.1133C40.3864 41.1138 41.043 41.7707 41.043 42.5781C41.043 43.3858 40.3858 44.043 39.5781 44.043ZM39.5781 5.95703C40.3858 5.95703 41.043 6.61416 41.043 7.42188C41.043 8.22959 40.3858 8.88672 39.5781 8.88672C38.7704 8.88672 38.1133 8.22959 38.1133 7.42188C38.1133 6.61416 38.7704 5.95703 39.5781 5.95703ZM39.5781 23.5352C40.3858 23.5352 41.043 24.1923 41.043 25C41.043 25.8077 40.3858 26.4648 39.5781 26.4648C38.7704 26.4648 38.1133 25.8077 38.1133 25C38.1133 24.1923 38.7704 23.5352 39.5781 23.5352Z" fill="#BDBDBD"/>
<path d="M13.2109 44.043C14.0199 44.043 14.6758 43.3871 14.6758 42.5781C14.6758 41.7691 14.0199 41.1133 13.2109 41.1133C12.4019 41.1133 11.7461 41.7691 11.7461 42.5781C11.7461 43.3871 12.4019 44.043 13.2109 44.043Z" fill="#BDBDBD"/>
<path d="M7.35156 26.4648C8.16057 26.4648 8.81641 25.809 8.81641 25C8.81641 24.191 8.16057 23.5352 7.35156 23.5352C6.54255 23.5352 5.88672 24.191 5.88672 25C5.88672 25.809 6.54255 26.4648 7.35156 26.4648Z" fill="#BDBDBD"/>
<path d="M13.2109 8.88672C14.0199 8.88672 14.6758 8.23089 14.6758 7.42188C14.6758 6.61286 14.0199 5.95703 13.2109 5.95703C12.4019 5.95703 11.7461 6.61286 11.7461 7.42188C11.7461 8.23089 12.4019 8.88672 13.2109 8.88672Z" fill="#BDBDBD"/>
</svg>
