<svg width="136" height="84" viewBox="0 0 136 84" fill="none" xmlns="http://www.w3.org/2000/svg">
<path d="M46.2793 27.9804C54.0931 34.4708 58 37.716 58 42C58 46.284 54.0931 49.5292 46.2793 56.0196L29.5267 69.9349C16.7421 80.5543 10.3497 85.864 5.17487 83.4069C2.76269e-07 80.9498 -3.17366e-06 72.605 -2.44413e-06 55.9153L-1.22762e-06 28.0848C-4.98093e-07 11.395 3.68137e-06 3.05018 5.17488 0.593096C10.3498 -1.86399 16.7421 3.44571 29.5267 14.0651L46.2793 27.9804Z" fill="#3D2EE2"/>
<path d="M124.279 27.9804C132.093 34.4708 136 37.716 136 42C136 46.284 132.093 49.5292 124.279 56.0196L107.527 69.9349C94.7421 80.5543 88.3497 85.864 83.1749 83.4069C78 80.9498 78 72.605 78 55.9153L78 28.0848C78 11.395 78 3.05018 83.1749 0.593096C88.3498 -1.86399 94.7421 3.44571 107.527 14.0651L124.279 27.9804Z" fill="#E0E0E0"/>
</svg>
