<svg width="126" height="58" viewBox="0 0 126 58" fill="none" xmlns="http://www.w3.org/2000/svg">
<path d="M69.9804 11.7207C76.4708 3.9069 79.716 1.14969e-07 84 0C88.284 -1.14969e-07 91.5292 3.9069 98.0196 11.7207L111.935 28.4732C122.554 41.2579 127.864 47.6502 125.407 52.8251C122.95 58 114.605 58 97.9153 58H70.0848C53.395 58 45.0502 58 42.5931 52.8251C40.136 47.6502 45.4457 41.2579 56.0651 28.4732L69.9804 11.7207Z" fill="#E0E0E0"/>
<path d="M27.9805 11.7207C34.471 3.9069 37.7162 1.14969e-07 42.0001 0C46.2841 -1.14969e-07 49.5293 3.9069 56.0198 11.7207L69.935 28.4732C80.5544 41.2579 85.8641 47.6502 83.4071 52.8251C80.95 58 72.6051 58 55.9154 58H28.0849C11.3952 58 3.05034 58 0.593251 52.8251C-1.86384 47.6502 3.44587 41.2579 14.0653 28.4732L27.9805 11.7207Z" fill="#3D2EE2"/>
</svg>
