<svg width="50" height="50" viewBox="0 0 50 50" fill="none" xmlns="http://www.w3.org/2000/svg">
<g clip-path="url(#clip0)">
<path d="M48.041 25.6617H38.2943C38.1542 24.4727 37.8798 23.3244 37.4862 22.2323H48.1921C48.998 22.2323 49.6538 21.5838 49.6626 20.7779C49.79 9.17724 40.4258 -1.51396e-05 29.1312 -1.51396e-05C28.3191 -1.51396e-05 27.6606 0.658416 27.6606 1.47057V12.6982C26.5907 12.3489 25.4705 12.1126 24.3136 12.0037V6.45881C24.3136 5.64665 23.6551 4.98822 22.843 4.98822C10.4041 4.98822 0.336121 15.0539 0.336121 27.4942C0.336121 39.9324 10.4029 50 22.843 50C27.8224 50 32.5412 48.4064 36.4894 45.3914C37.1389 44.8954 37.258 43.966 36.7598 43.3223L33.3692 38.942C34.3764 38.0151 35.2614 36.9574 35.997 35.796L40.23 41.2648C40.7248 41.904 41.6429 42.0241 42.2855 41.5333C46.8116 38.0766 49.4453 32.8339 49.5115 27.1494C49.5209 26.3307 48.8594 25.6617 48.041 25.6617V25.6617ZM30.6018 3.00126C39.0742 3.69704 46.0668 10.493 46.6792 19.2911H36.059C34.7032 17.1144 32.8257 15.295 30.6018 14.0102V3.00126ZM33.4943 43.9087C30.3266 45.9742 26.6737 47.0588 22.843 47.0588C12.0545 47.0588 3.2773 38.2821 3.2773 27.4941C3.2773 17.2006 11.2679 8.73812 21.3724 7.984V12.0035C13.4793 12.7467 7.282 19.4097 7.282 27.494C7.282 36.074 14.2623 43.0543 22.8423 43.0543C25.8434 43.0543 28.6481 42.1994 31.0275 40.7218L33.4943 43.9087ZM22.8423 40.1131C15.8841 40.1131 10.2232 34.4522 10.2232 27.494C10.2232 20.5357 15.8841 14.8748 22.8423 14.8748C29.8005 14.8748 35.4614 20.5357 35.4614 27.494C35.4614 34.4522 29.8005 40.1131 22.8423 40.1131ZM41.6202 38.2557L37.4472 32.8643C37.9429 31.5206 38.2575 30.0903 38.3627 28.6029H46.4827C46.0852 32.3148 44.3701 35.7197 41.6202 38.2557V38.2557Z" fill="#282828"/>
<path d="M24.4215 26.0234H21.2632C20.5101 26.0234 19.8975 25.4108 19.8975 24.6576C19.8975 23.9022 20.5089 23.2919 21.2628 23.2919C21.27 23.292 21.2771 23.292 21.2841 23.292H24.3087C24.8484 23.2974 25.3821 23.5398 25.7736 23.9576C26.329 24.5502 27.2595 24.5805 27.8522 24.025C28.4447 23.4696 28.475 22.539 27.9196 21.9463C26.936 20.8968 25.589 20.351 24.3129 20.351V19.0699C24.3129 18.2577 23.6544 17.5993 22.8423 17.5993C22.0301 17.5993 21.3717 18.2577 21.3717 19.0699V20.351C18.7205 20.351 16.9563 22.3999 16.9563 24.6577C16.9563 27.0326 18.8884 28.9647 21.2632 28.9647H24.4215C25.1745 28.9647 25.7872 29.5773 25.7872 30.3304C25.7872 31.0563 25.2136 31.696 24.4005 31.696H21.1005C20.7194 31.6921 20.3145 31.5547 19.96 31.3087C19.2927 30.8456 18.3764 31.0114 17.9135 31.6786C17.4505 32.346 17.6161 33.2621 18.2834 33.7252C19.3153 34.4411 20.2589 34.6372 21.3716 34.6372V35.9183C21.3716 36.7305 22.03 37.3889 22.8422 37.3889C23.6543 37.3889 24.3128 36.7305 24.3128 35.9183V34.6372C26.9858 34.6372 28.7283 32.5683 28.7283 30.3304C28.7285 27.9555 26.7964 26.0234 24.4215 26.0234V26.0234Z" fill="#282828"/>
</g>
<defs>
<clipPath id="clip0">
<rect width="50" height="50" fill="white"/>
</clipPath>
</defs>
</svg>
