<svg width="42" height="42" viewBox="0 0 42 42" fill="none" xmlns="http://www.w3.org/2000/svg">
<path d="M39.4994 27.2698V3.72841C39.4994 1.69732 37.847 0.044899 35.8159 0.044899H8.72161C6.69052 0.044899 5.0381 1.69732 5.0381 3.72841V5.03811H3.72841C1.69732 5.03811 0.0448914 6.69053 0.0448914 8.72162C0.0448914 10.7527 1.69732 12.4051 3.72841 12.4051H5.0381V17.3165H3.72841C1.69732 17.3165 0.0448914 18.9689 0.0448914 21C0.0448914 23.0311 1.69732 24.6835 3.72841 24.6835H5.0381V29.5949H3.72841C1.69732 29.5949 0.0448914 31.2473 0.0448914 33.2784C0.0448914 35.3095 1.69732 36.9619 3.72841 36.9619H5.0381V38.1897C5.0381 39.1683 5.41439 40.1008 6.09764 40.8156C6.80013 41.5504 7.73206 41.9551 8.72161 41.9551H33.3602C38.0994 41.9551 41.9551 38.0628 41.9551 33.2784C41.9551 30.942 41.0175 28.8207 39.4994 27.2698ZM3.72841 9.94946C3.05138 9.94946 2.50057 9.39865 2.50057 8.72162C2.50057 8.04459 3.05138 7.49378 3.72841 7.49378H6.26594C6.94297 7.49378 7.49377 8.04459 7.49377 8.72162C7.49377 9.39865 6.94297 9.94946 6.26594 9.94946H3.72841ZM3.72841 22.2278C3.05138 22.2278 2.50057 21.677 2.50057 21C2.50057 20.323 3.05138 19.7722 3.72841 19.7722H6.26594C6.94297 19.7722 7.49377 20.323 7.49377 21C7.49377 21.677 6.94297 22.2278 6.26594 22.2278H3.72841ZM6.26594 34.5062H3.72841C3.05138 34.5062 2.50057 33.9554 2.50057 33.2784C2.50057 32.6013 3.05138 32.0505 3.72841 32.0505H6.26594C6.94297 32.0505 7.49377 32.6013 7.49377 33.2784C7.49377 33.9554 6.94297 34.5062 6.26594 34.5062ZM8.72161 39.4994C8.06758 39.4994 7.49377 38.8874 7.49377 38.1897V36.7507C8.9229 36.2439 9.94945 34.8791 9.94945 33.2784C9.94945 31.6777 8.9229 30.3129 7.49377 29.8061V24.4723C8.9229 23.9655 9.94945 22.6007 9.94945 21C9.94945 19.3993 8.9229 18.0345 7.49377 17.5277V12.1939C8.9229 11.6871 9.94945 10.3223 9.94945 8.72162C9.94945 7.12093 8.9229 5.75615 7.49377 5.24929V3.72841C7.49377 3.05138 8.04458 2.50057 8.72161 2.50057H35.8159C36.4929 2.50057 37.0437 3.05138 37.0437 3.72841V25.5139C35.9267 24.9819 34.6777 24.6835 33.3602 24.6835C28.621 24.6835 24.7654 28.5392 24.7654 33.2784C24.7654 35.716 25.7667 37.9217 27.3754 39.4994H8.72161ZM33.3602 39.4994C29.9751 39.4994 27.221 36.7087 27.221 33.2784C27.221 29.8932 29.9751 27.1392 33.3602 27.1392C36.7454 27.1392 39.4994 29.8932 39.4994 33.2784C39.4994 36.7087 36.7454 39.4994 33.3602 39.4994Z" fill="#282828"/>
<path d="M33.3602 9.94944H25.9932C25.3151 9.94944 24.7654 10.4992 24.7654 11.1773C24.7654 11.8554 25.3151 12.4051 25.9932 12.4051H33.3602C34.0383 12.4051 34.5881 11.8554 34.5881 11.1773C34.5881 10.4992 34.0383 9.94944 33.3602 9.94944Z" fill="#282828"/>
<path d="M33.3602 19.7721H25.9932C25.3151 19.7721 24.7654 20.3219 24.7654 21C24.7654 21.6781 25.3151 22.2278 25.9932 22.2278H33.3602C34.0383 22.2278 34.5881 21.6781 34.5881 21C34.5881 20.3219 34.0383 19.7721 33.3602 19.7721Z" fill="#282828"/>
<path d="M35.8159 32.0505H34.588V30.8227C34.588 30.1446 34.0383 29.5948 33.3602 29.5948C32.6821 29.5948 32.1324 30.1446 32.1324 30.8227V33.2784C32.1324 33.9564 32.6821 34.5062 33.3602 34.5062H35.8159C36.494 34.5062 37.0437 33.9564 37.0437 33.2784C37.0437 32.6003 36.494 32.0505 35.8159 32.0505Z" fill="#282828"/>
<path d="M21.8681 7.85338C21.3887 7.37387 20.6112 7.37387 20.1318 7.85346L16.0886 11.8966L14.1559 9.96387C13.6765 9.48436 12.899 9.48436 12.4195 9.96387C11.94 10.4434 11.94 11.2208 12.4195 11.7003L15.2205 14.5012C15.4601 14.741 15.7744 14.8608 16.0886 14.8608C16.4029 14.8608 16.7171 14.741 16.9568 14.5011L21.8681 9.58979C22.3477 9.11028 22.3477 8.33289 21.8681 7.85338Z" fill="#282828"/>
<path d="M21.8681 17.6761C21.3887 17.1966 20.6112 17.1966 20.1318 17.6762L16.0886 21.7193L14.1559 19.7866C13.6765 19.3071 12.899 19.3071 12.4195 19.7866C11.94 20.2661 11.94 21.0435 12.4195 21.523L15.2205 24.3239C15.4601 24.5637 15.7744 24.6835 16.0886 24.6835C16.4029 24.6835 16.7171 24.5637 16.9568 24.3239L21.8681 19.4125C22.3477 18.933 22.3477 18.1556 21.8681 17.6761Z" fill="#282828"/>
<path d="M21.8681 27.4988C21.3887 27.0193 20.6112 27.0193 20.1318 27.4989L16.0886 31.542L14.1559 29.6093C13.6765 29.1298 12.899 29.1298 12.4195 29.6093C11.94 30.0888 11.94 30.8662 12.4195 31.3457L15.2205 34.1466C15.4601 34.3864 15.7744 34.5062 16.0886 34.5062C16.4029 34.5062 16.7171 34.3864 16.9568 34.1465L21.8681 29.2352C22.3477 28.7557 22.3477 27.9783 21.8681 27.4988Z" fill="#282828"/>
</svg>
