<svg width="50" height="50" viewBox="0 0 50 50" fill="none" xmlns="http://www.w3.org/2000/svg">
<path d="M25 33.1052C25.6742 33.1052 26.2207 32.5587 26.2207 31.8845C26.2207 31.2103 25.6742 30.6638 25 30.6638C24.3258 30.6638 23.7793 31.2103 23.7793 31.8845C23.7793 32.5587 24.3258 33.1052 25 33.1052Z" fill="#282828"/>
<path d="M25.0951 17.0178C22.7419 16.9713 20.7303 18.6868 20.4061 21.01C20.3764 21.2226 20.3613 21.4397 20.3613 21.6555C20.3613 22.3297 20.9079 22.8762 21.582 22.8762C22.2562 22.8762 22.8027 22.3297 22.8027 21.6555C22.8027 21.5522 22.8099 21.4486 22.824 21.3475C22.9773 20.2482 23.9359 19.4345 25.0459 19.4587C26.1913 19.4817 27.135 20.3946 27.1941 21.5369C27.2258 22.1471 27.0125 22.7262 26.5934 23.1677C26.1739 23.6095 25.6081 23.8527 25.0001 23.8527C24.326 23.8527 23.7794 24.3992 23.7794 25.0734V28.6476C23.7794 29.3217 24.326 29.8683 25.0001 29.8683C25.6742 29.8683 26.2208 29.3217 26.2208 28.6476V26.129C27.0314 25.9066 27.7775 25.4661 28.3639 24.8486C29.2486 23.9168 29.699 22.6958 29.6323 21.4103C29.5069 18.996 27.514 17.0665 25.0951 17.0178Z" fill="#282828"/>
<path d="M45.6055 20.6055C43.6958 20.6055 42.0676 21.8302 41.4629 23.5352H38.1018C37.8197 20.9961 36.8141 18.6726 35.2958 16.7758L37.6769 14.3948C38.2738 14.6792 38.9219 14.8223 39.5703 14.8223C40.6957 14.8223 41.8211 14.3939 42.6777 13.5372C44.3912 11.8238 44.3912 9.03584 42.6777 7.32246C40.9645 5.60908 38.1764 5.60898 36.4629 7.32246C35.1125 8.67275 34.8272 10.6901 35.6053 12.3232L33.2242 14.7042C31.3273 13.1859 29.0039 12.1802 26.4648 11.8982V8.53711C28.1698 7.93242 29.3945 6.3042 29.3945 4.39453C29.3945 1.97139 27.4231 0 25 0C22.5769 0 20.6055 1.97139 20.6055 4.39453C20.6055 6.3042 21.8302 7.93242 23.5352 8.53711V11.8982C20.9961 12.1803 18.6727 13.1859 16.7758 14.7042L14.3947 12.3232C15.1728 10.69 14.8874 8.67275 13.5371 7.32246C11.8236 5.60889 9.03555 5.60908 7.32227 7.32246C5.60879 9.03584 5.60879 11.8238 7.32227 13.5372C8.17891 14.3939 9.3043 14.8223 10.4297 14.8223C11.078 14.8223 11.7261 14.6792 12.3231 14.3948L14.7042 16.7758C13.1859 18.6726 12.1802 20.9961 11.8982 23.5352H8.53711C7.93242 21.8302 6.3042 20.6055 4.39453 20.6055C1.97139 20.6055 0 22.5769 0 25C0 27.4231 1.97139 29.3945 4.39453 29.3945C6.3042 29.3945 7.93242 28.1698 8.53711 26.4648H11.8982C12.1803 29.0039 13.1859 31.3274 14.7042 33.2242L12.3231 35.6052C10.6899 34.8271 8.67246 35.1125 7.32227 36.4628C5.60879 38.1762 5.60879 40.9642 7.32227 42.6775C8.17891 43.5343 9.3043 43.9626 10.4297 43.9626C11.555 43.9626 12.6804 43.5343 13.537 42.6775C14.8874 41.3272 15.1727 39.3099 14.3946 37.6768L16.7757 35.2958C18.6727 36.8141 20.9961 37.8198 23.5352 38.1018V41.4629C21.8302 42.0676 20.6055 43.6958 20.6055 45.6055C20.6055 48.0286 22.5769 50 25 50C27.4231 50 29.3945 48.0286 29.3945 45.6055C29.3945 43.6958 28.1698 42.0676 26.4648 41.4629V38.1018C29.0039 37.8197 31.3273 36.8141 33.2242 35.2958L35.6053 37.6768C34.8272 39.31 35.1126 41.3272 36.4629 42.6775C37.3195 43.5343 38.4449 43.9626 39.5702 43.9626C40.6956 43.9626 41.821 43.5343 42.6776 42.6775C44.3911 40.9642 44.3911 38.1762 42.6776 36.4628C41.3274 35.1125 39.31 34.8271 37.6768 35.6052L35.2957 33.2242C36.8141 31.3274 37.8198 29.0039 38.1018 26.4648H41.4629C42.0676 28.1698 43.6958 29.3945 45.6055 29.3945C48.0286 29.3945 50 27.4231 50 25C50 22.5769 48.0286 20.6055 45.6055 20.6055ZM38.5345 9.39395C38.8111 9.11728 39.1791 8.96494 39.5703 8.96494C39.9615 8.96494 40.3294 9.11728 40.6061 9.39395C41.1772 9.96514 41.1772 10.8944 40.6061 11.4655C40.0348 12.0368 39.1057 12.0366 38.5344 11.4655C38.2577 11.1889 38.1053 10.821 38.1053 10.4298C38.1054 10.0385 38.2578 9.67061 38.5345 9.39395ZM11.4655 11.4655C10.8944 12.0366 9.96533 12.0368 9.39385 11.4655C8.82266 10.8943 8.82266 9.96504 9.39385 9.39395C9.67051 9.11728 10.0385 8.96494 10.4296 8.96494C10.8209 8.96494 11.1888 9.11728 11.4654 9.39395C11.7421 9.67061 11.8945 10.0385 11.8945 10.4298C11.8946 10.821 11.7422 11.1889 11.4655 11.4655ZM4.39453 26.4648C3.58682 26.4648 2.92969 25.8077 2.92969 25C2.92969 24.1923 3.58682 23.5352 4.39453 23.5352C5.20225 23.5352 5.85938 24.1923 5.85938 25C5.85938 25.8077 5.20225 26.4648 4.39453 26.4648ZM11.4655 40.6061C11.1889 40.8827 10.8209 41.0351 10.4297 41.0351C10.0385 41.0351 9.67061 40.8827 9.39395 40.6061C8.82275 40.0349 8.82275 39.1056 9.39395 38.5345C9.67959 38.2489 10.0547 38.1062 10.4297 38.1062C10.8049 38.1062 11.18 38.2489 11.4655 38.5345C11.7422 38.8111 11.8946 39.179 11.8946 39.5702C11.8946 39.9615 11.7422 40.3294 11.4655 40.6061ZM38.5345 38.5345C38.8201 38.2489 39.1952 38.1062 39.5703 38.1062C39.9454 38.1062 40.3205 38.2489 40.6061 38.5345C41.1772 39.1057 41.1772 40.035 40.6061 40.6061C40.3294 40.8827 39.9614 41.0351 39.5703 41.0351C39.179 41.0351 38.8111 40.8827 38.5345 40.6061C38.2578 40.3294 38.1054 39.9615 38.1054 39.5702C38.1054 39.179 38.2578 38.8111 38.5345 38.5345ZM25 2.92969C25.8077 2.92969 26.4648 3.58682 26.4648 4.39453C26.4648 5.20225 25.8077 5.85937 25 5.85937C24.1923 5.85937 23.5352 5.20225 23.5352 4.39453C23.5352 3.58682 24.1923 2.92969 25 2.92969ZM25 47.0703C24.1923 47.0703 23.5352 46.4132 23.5352 45.6055C23.5352 44.7978 24.1923 44.1406 25 44.1406C25.8077 44.1406 26.4648 44.7978 26.4648 45.6055C26.4648 46.4132 25.8077 47.0703 25 47.0703ZM25 35.2539C19.346 35.2539 14.7461 30.654 14.7461 25C14.7461 19.346 19.346 14.7461 25 14.7461C30.654 14.7461 35.2539 19.346 35.2539 25C35.2539 30.654 30.654 35.2539 25 35.2539ZM45.6055 26.4648C44.7978 26.4648 44.1406 25.8077 44.1406 25C44.1406 24.1923 44.7978 23.5352 45.6055 23.5352C46.4132 23.5352 47.0703 24.1923 47.0703 25C47.0703 25.8077 46.4132 26.4648 45.6055 26.4648Z" fill="#282828"/>
</svg>
