<svg width="50" height="50" viewBox="0 0 50 50" fill="none" xmlns="http://www.w3.org/2000/svg">
<g clip-path="url(#clip0)">
<path d="M39.9328 13.0023C31.1349 7.48214 19.04 7.37224 10.0672 13.0023C2.46963 17.7695 0.303941 24.6715 0.106392 25C0.326686 25.3664 2.43296 32.2074 10.0672 36.9976C18.8649 42.5179 30.9598 42.6277 39.9328 36.9976C47.5301 32.2305 49.696 25.3285 49.8936 25C49.8935 25 47.5668 17.7925 39.9328 13.0023ZM24.9999 26.4706C24.189 26.4706 23.5293 25.8109 23.5293 25C23.5293 24.1891 24.189 23.5294 24.9999 23.5294C25.8109 23.5294 26.4705 24.1891 26.4705 25C26.4705 25.8109 25.8109 26.4706 24.9999 26.4706ZM23.5293 20.8412C22.278 21.285 21.2849 22.278 20.8411 23.5294H17.7949C18.3812 20.6525 20.6525 18.3813 23.5293 17.795V20.8412ZM20.8411 26.4706C21.2849 27.7219 22.278 28.715 23.5293 29.1588V32.205C20.6525 31.6187 18.3812 29.3474 17.7949 26.4706H20.8411ZM26.4705 29.1588C27.7219 28.715 28.7149 27.7219 29.1587 26.4706H32.2048C31.6186 29.3474 29.3474 31.6187 26.4705 32.205V29.1588ZM29.1587 23.5294C28.7149 22.278 27.7219 21.285 26.4705 20.8412V17.795C29.3474 18.3813 31.6186 20.6525 32.2048 23.5294H29.1587ZM3.29953 25C6.73237 17.3523 14.5117 12.3031 23.5293 11.8059V14.8114C19.0279 15.4581 15.4581 19.0278 14.8113 23.5294H10.294V26.4706H14.8113C15.4581 30.972 19.0278 34.5418 23.5293 35.1886V38.1941C14.5117 37.6968 6.73237 32.6476 3.29953 25ZM26.4705 38.1941V35.1886C30.9721 34.5418 34.5418 30.9721 35.1886 26.4706H39.7058V23.5294H35.1886C34.5418 19.0279 30.9721 15.4581 26.4705 14.8114V11.8059C35.4881 12.3031 43.2675 17.3523 46.7004 25C43.2675 32.6476 35.4881 37.6968 26.4705 38.1941Z" fill="#282828"/>
<path d="M23.5294 -1.51396e-05H26.4706V4.41175H23.5294V-1.51396e-05Z" fill="#282828"/>
<path d="M12.8285 3.11225L15.4785 1.83578L17.3932 5.81078L14.7432 7.08725L12.8285 3.11225Z" fill="#282828"/>
<path d="M12.8307 46.891L14.7455 42.9159L17.3955 44.1924L15.4807 48.1674L12.8307 46.891Z" fill="#282828"/>
<path d="M23.5294 45.5882H26.4706V50H23.5294V45.5882Z" fill="#282828"/>
<path d="M32.6136 44.1855L35.2636 42.9091L37.1783 46.8841L34.5283 48.1605L32.6136 44.1855Z" fill="#282828"/>
<path d="M32.6119 5.81184L34.5266 1.83684L37.1766 3.11332L35.2619 7.08831L32.6119 5.81184Z" fill="#282828"/>
</g>
<defs>
<clipPath id="clip0">
<rect width="50" height="50" fill="white"/>
</clipPath>
</defs>
</svg>
