<svg width="24" height="25" viewBox="0 0 24 25" fill="none" xmlns="http://www.w3.org/2000/svg">
<circle cx="12" cy="12" r="12" fill="#4F4F4F"/>
<g clip-path="url(#clip0)">
<mask id="mask0" mask-type="alpha" maskUnits="userSpaceOnUse" x="0" y="0" width="24" height="24">
<circle cx="12" cy="12" r="12" fill="#4F4F4F"/>
</mask>
<g mask="url(#mask0)">
<path d="M8.23833 5.75019C6.78176 6.58129 6.39038 7.8972 6.46207 8.59748C6.55382 9.45387 6.78033 10.5686 6.78033 10.5686C6.78033 10.5686 6.3316 10.7555 6.3316 11.5074C6.48787 13.395 7.31077 12.5804 7.47994 13.4082C7.88709 15.4024 8.81752 15.0473 8.81752 16.1357C8.81752 17.9485 7.84265 18.7961 4.79905 19.8009C1.74542 20.8101 -1.40283 22.0798 -1.40283 24.2785V25.3778H24.4025V24.2785C24.4025 22.0798 21.2528 20.8101 18.1978 19.802C15.1542 18.7972 14.1822 17.9507 14.1822 16.1368C14.1822 15.0484 15.1097 15.4035 15.5183 13.4093C15.6889 12.5815 16.5104 13.3961 16.6695 11.5085C16.6695 10.7566 16.2194 10.5697 16.2194 10.5697C16.2194 10.5697 16.4459 9.45497 16.5362 8.59858C16.6294 7.70042 15.9656 5.78317 13.2388 5.19502C12.7614 4.82125 12.4389 4.2265 13.9069 3.62956C10.6956 3.51413 9.94866 4.80256 8.23833 5.75019Z" fill="white"/>
</g>
</g>
<defs>
<clipPath id="clip0">
<rect width="23" height="23" fill="white" transform="translate(0 2)"/>
</clipPath>
</defs>
</svg>
