<svg width="24" height="24" viewBox="0 0 24 24" fill="none" xmlns="http://www.w3.org/2000/svg">
<circle cx="12" cy="12" r="11" stroke="white" stroke-width="2"/>
<path fill-rule="evenodd" clip-rule="evenodd" d="M20.3819 20.5875C22.6141 18.4083 24 15.366 24 12C24 5.37258 18.6274 0 12 0C5.37258 0 0 5.37258 0 12C0 15.2242 1.27159 18.1515 3.34062 20.3076C3.82035 20.1302 4.31091 19.9622 4.79905 19.8009C7.84265 18.7961 8.81752 17.9485 8.81752 16.1357C8.81752 15.6418 8.6259 15.4451 8.37852 15.1913C8.0808 14.8858 7.70232 14.4974 7.47994 13.4082C7.41368 13.084 7.24713 13.0117 7.05963 12.9303C6.76842 12.804 6.42666 12.6557 6.3316 11.5074C6.3316 10.7555 6.78033 10.5686 6.78033 10.5686C6.78033 10.5686 6.55382 9.45387 6.46207 8.59748C6.39038 7.8972 6.78176 6.58129 8.23833 5.75019C8.65728 5.51807 9.01841 5.2655 9.37212 5.01812C10.4624 4.25559 11.4822 3.5424 13.9069 3.62956C12.4389 4.2265 12.7614 4.82125 13.2388 5.19502C15.9656 5.78317 16.6294 7.70042 16.5362 8.59858C16.4459 9.45497 16.2194 10.5697 16.2194 10.5697C16.2194 10.5697 16.6695 10.7566 16.6695 11.5085C16.5727 12.6568 16.2308 12.8051 15.9394 12.9315C15.7518 13.0128 15.5851 13.0851 15.5183 13.4093C15.2952 14.4981 14.9174 14.8866 14.6204 15.1921C14.3734 15.4461 14.1822 15.6427 14.1822 16.1368C14.1822 17.9507 15.1542 18.7972 18.1978 19.802C18.9355 20.0454 19.6788 20.3041 20.3819 20.5875Z" fill="white"/>
</svg>
