<svg width="20" height="20" viewBox="0 0 20 20" fill="none" xmlns="http://www.w3.org/2000/svg">
<path fill-rule="evenodd" clip-rule="evenodd" d="M9.99998 0.833374C4.93748 0.833374 0.833313 4.93754 0.833313 10C0.833313 15.0625 4.93748 19.1667 9.99998 19.1667C15.0625 19.1667 19.1666 15.0625 19.1666 10C19.1666 4.93754 15.0625 0.833374 9.99998 0.833374ZM9.58331 5.00004C9.3623 5.00004 9.15034 5.08784 8.99406 5.24412C8.83778 5.4004 8.74998 5.61236 8.74998 5.83337C8.74998 6.05439 8.83778 6.26635 8.99406 6.42263C9.15034 6.57891 9.3623 6.66671 9.58331 6.66671H9.99998C10.221 6.66671 10.433 6.57891 10.5892 6.42263C10.7455 6.26635 10.8333 6.05439 10.8333 5.83337C10.8333 5.61236 10.7455 5.4004 10.5892 5.24412C10.433 5.08784 10.221 5.00004 9.99998 5.00004H9.58331ZM8.33331 8.33337C8.1123 8.33337 7.90034 8.42117 7.74406 8.57745C7.58778 8.73373 7.49998 8.94569 7.49998 9.16671C7.49998 9.38772 7.58778 9.59968 7.74406 9.75596C7.90034 9.91224 8.1123 10 8.33331 10H9.16665V12.5H8.33331C8.1123 12.5 7.90034 12.5878 7.74406 12.7441C7.58778 12.9004 7.49998 13.1124 7.49998 13.3334C7.49998 13.5544 7.58778 13.7663 7.74406 13.9226C7.90034 14.0789 8.1123 14.1667 8.33331 14.1667H11.6666C11.8877 14.1667 12.0996 14.0789 12.2559 13.9226C12.4122 13.7663 12.5 13.5544 12.5 13.3334C12.5 13.1124 12.4122 12.9004 12.2559 12.7441C12.0996 12.5878 11.8877 12.5 11.6666 12.5H10.8333V9.16671C10.8333 8.94569 10.7455 8.73373 10.5892 8.57745C10.433 8.42117 10.221 8.33337 9.99998 8.33337H8.33331Z" fill="#3D2EE2"/>
</svg>
