<svg width="24" height="24" viewBox="0 0 24 24" fill="none" xmlns="http://www.w3.org/2000/svg">
<path d="M5.25 3.75C4.4295 3.75 3.75 4.4295 3.75 5.25V18.75C3.75 19.5705 4.4295 20.25 5.25 20.25H18.75C19.5705 20.25 20.25 19.5705 20.25 18.75V5.25C20.25 4.4295 19.5705 3.75 18.75 3.75H5.25ZM5.25 5.25H18.75V18.75H14.859V13.6875H16.8045L17.0858 11.4375H14.8597V9.984C14.8597 9.3285 15.0203 8.883 15.9608 8.883H17.1795V6.84375C16.9718 6.8175 16.251 6.77325 15.4222 6.77325C13.6935 6.77325 12.516 7.8135 12.516 9.75V11.4375H10.5472V13.6875H12.5153V18.75H5.25V5.25Z" fill="#BDBDBD"/>
</svg>
