<svg width="88" height="88" viewBox="0 0 88 88" fill="none" xmlns="http://www.w3.org/2000/svg">
<path fill-rule="evenodd" clip-rule="evenodd" d="M60.1617 3.90488C55.2117 1.92488 49.7217 0.754883 44.0517 0.754883C22.0017 0.754883 3.82173 17.3149 1.12173 38.6449C1.11388 38.7234 1.10603 38.8017 1.0982 38.8798C0.926373 40.5943 0.761719 42.2373 0.761719 44.0449C0.761719 67.8949 20.1117 87.2449 43.9617 87.2449C67.8117 87.2449 87.1617 67.8949 87.1617 44.0449C87.2517 25.8649 76.0917 10.2949 60.1617 3.90488ZM25.134 33.2411V49.3793C25.134 50.806 25.7008 52.1743 26.7096 53.1831C27.7184 54.1919 29.0867 54.7587 30.5134 54.7587H52.0309C53.4576 54.7587 54.8259 54.1919 55.8347 53.1831C56.8436 52.1743 57.4103 50.806 57.4103 49.3793V33.2411C57.4103 31.8144 56.8436 30.4462 55.8347 29.4373C54.8259 28.4285 53.4576 27.8617 52.0309 27.8617H30.5134C29.0867 27.8617 27.7184 28.4285 26.7096 29.4373C25.7008 30.4462 25.134 31.8144 25.134 33.2411ZM30.5134 30.5514H52.0309C52.7443 30.5514 53.4284 30.8348 53.9328 31.3392C54.4372 31.8437 54.7206 32.5278 54.7206 33.2411V35.2315L41.2722 42.4722L27.8237 35.2315V33.2411C27.8237 32.5278 28.1071 31.8437 28.6115 31.3392C29.1159 30.8348 29.8 30.5514 30.5134 30.5514ZM27.8237 38.287L40.6347 45.1834C40.8306 45.2888 41.0497 45.3441 41.2722 45.3441C41.4947 45.3441 41.7137 45.2888 41.9096 45.1834L54.7206 38.287V49.3793C54.7206 50.0927 54.4372 50.7768 53.9328 51.2812C53.4284 51.7856 52.7443 52.069 52.0309 52.069H30.5134C29.8 52.069 29.1159 51.7856 28.6115 51.2812C28.1071 50.7768 27.8237 50.0927 27.8237 49.3793V38.287ZM33.2032 59.4173C34.0209 59.8895 34.9485 60.1381 35.8928 60.1381H52.0309C54.8843 60.1381 57.6209 59.0046 59.6385 56.9869C61.6562 54.9692 62.7897 52.2327 62.7897 49.3793V38.6205C62.7897 37.6763 62.5411 36.7487 62.069 35.9309C61.5968 35.1132 60.9178 34.4341 60.1 33.962V49.3793C60.1 51.5194 59.2499 53.5718 57.7366 55.085C56.2234 56.5982 54.171 57.4484 52.0309 57.4484H31.2342C31.7064 58.2661 32.3854 58.9452 33.2032 59.4173Z" fill="#3D2EE2"/>
</svg>
