<svg width="126" height="126" viewBox="0 0 126 126" fill="none" xmlns="http://www.w3.org/2000/svg">
<path fill-rule="evenodd" clip-rule="evenodd" d="M86.3454 5.08503C79.1954 2.22503 71.2654 0.535034 63.0754 0.535034C31.2254 0.535034 4.96542 24.455 1.06542 55.265C1.05409 55.3784 1.04275 55.4915 1.03144 55.6044C0.783244 58.0809 0.54541 60.4541 0.54541 63.065C0.54541 97.515 28.4954 125.465 62.9454 125.465C97.3954 125.465 125.345 97.515 125.345 63.065C125.475 36.805 109.355 14.315 86.3454 5.08503ZM35.7498 47.4596V70.7703C35.7498 72.8311 36.5685 74.8075 38.0257 76.2647C39.4829 77.7219 41.4593 78.5405 43.5201 78.5405H74.601C76.6618 78.5405 78.6381 77.7219 80.0953 76.2647C81.5525 74.8075 82.3712 72.8311 82.3712 70.7703V47.4596C82.3712 45.3988 81.5525 43.4224 80.0953 41.9652C78.6381 40.508 76.6618 39.6894 74.601 39.6894H43.5201C41.4593 39.6894 39.4829 40.508 38.0257 41.9652C36.5685 43.4224 35.7498 45.3988 35.7498 47.4596ZM43.5201 43.5745H74.601C75.6314 43.5745 76.6196 43.9838 77.3482 44.7124C78.0768 45.441 78.4861 46.4292 78.4861 47.4596V50.3346L59.0605 60.7933L39.6349 50.3346V47.4596C39.6349 46.4292 40.0443 45.441 40.7729 44.7124C41.5015 43.9838 42.4897 43.5745 43.5201 43.5745ZM39.6349 54.7481L58.1397 64.7095C58.4227 64.8618 58.7391 64.9416 59.0605 64.9416C59.3819 64.9416 59.6983 64.8618 59.9813 64.7095L78.4861 54.7481V70.7703C78.4861 71.8007 78.0768 72.7889 77.3482 73.5175C76.6196 74.2461 75.6314 74.6554 74.601 74.6554H43.5201C42.4897 74.6554 41.5015 74.2461 40.7729 73.5175C40.0443 72.7889 39.6349 71.8007 39.6349 70.7703V54.7481ZM47.4053 85.2697C48.5865 85.9517 49.9264 86.3107 51.2903 86.3107H74.601C78.7225 86.3107 82.6753 84.6734 85.5897 81.759C88.5041 78.8446 90.1414 74.8919 90.1414 70.7703V55.2298C90.1414 53.8659 89.7823 52.526 89.1003 51.3448C88.4184 50.1636 87.4375 49.1828 86.2563 48.5008V70.7703C86.2563 73.8615 85.0283 76.8261 82.8425 79.0119C80.6567 81.1977 77.6921 82.4256 74.601 82.4256H44.5613C45.2432 83.6068 46.2241 84.5877 47.4053 85.2697Z" fill="white"/>
</svg>
