<svg width="12" height="10" viewBox="0 0 12 10" fill="none" xmlns="http://www.w3.org/2000/svg">
<path d="M1.90639 7.22937C0.635463 6.20492 -1.77304e-07 5.69269 -2.18557e-07 5.00049C-2.5981e-07 4.30829 0.635463 3.79606 1.90639 2.77161L2.87516 1.99071C4.75837 0.472715 5.69998 -0.286283 6.44999 0.100249C7.2 0.486781 7.2 1.73105 7.2 4.2196L7.2 5.78139C7.2 8.26993 7.2 9.5142 6.44999 9.90073C5.69998 10.2873 4.75837 9.52826 2.87516 8.01027L1.90639 7.22937Z" fill="#BDBDBD"/>
<path d="M10.1466 2.77112C11.3822 3.79557 12 4.3078 12 5C12 5.6922 11.3822 6.20443 10.1466 7.22888L9.20471 8.00978C7.37381 9.52777 6.45836 10.2868 5.72918 9.90024C5 9.51371 5 8.26944 5 5.78089L5 4.2191C5 1.73056 5 0.486291 5.72918 0.0997594C6.45836 -0.286772 7.37381 0.472226 9.20471 1.99022L10.1466 2.77112Z" fill="#BDBDBD"/>
</svg>
