<svg width="12" height="10" viewBox="0 0 12 10" fill="none" xmlns="http://www.w3.org/2000/svg">
<path d="M10.0936 2.77112C11.3645 3.79557 12 4.3078 12 5C12 5.6922 11.3645 6.20443 10.0936 7.22888L9.12484 8.00978C7.24163 9.52777 6.30002 10.2868 5.55001 9.90024C4.8 9.51371 4.8 8.26944 4.8 5.78089L4.8 4.2191C4.8 1.73056 4.8 0.486291 5.55001 0.0997594C6.30002 -0.286772 7.24163 0.472226 9.12484 1.99022L10.0936 2.77112Z" fill="#3D2EE2"/>
<path d="M1.90639 7.22888C0.635464 6.20443 5.90959e-07 5.6922 6.73155e-07 5C7.55351e-07 4.3078 0.635464 3.79557 1.90639 2.77112L2.87516 1.99023C4.75837 0.472228 5.69998 -0.28677 6.44999 0.0997618C7.2 0.486294 7.2 1.73057 7.2 4.21911L7.2 5.7809C7.2 8.26944 7.2 9.51371 6.44999 9.90024C5.69998 10.2868 4.75837 9.52777 2.87516 8.00978L1.90639 7.22888Z" fill="#3D2EE2"/>
</svg>
