<svg width="34" height="34" viewBox="0 0 34 34" fill="none" xmlns="http://www.w3.org/2000/svg">
<g clip-path="url(#clip0)">
<path d="M21.8183 27.4011H5.26425C4.71407 27.4011 4.26816 27.847 4.26816 28.3972C4.26816 28.9474 4.71407 29.3933 5.26425 29.3933H21.8183C22.3685 29.3933 22.8144 28.9474 22.8144 28.3972C22.8144 27.847 22.3685 27.4011 21.8183 27.4011Z" fill="#3D2EE2"/>
<path d="M31.6776 20.8819L26.2193 16.7735V0.996094C26.2193 0.445908 25.7731 0 25.2232 0H1.85938C1.30919 0 0.863281 0.445908 0.863281 0.996094V33.0039C0.863281 33.5541 1.30919 34 1.85938 34H25.2232C25.7731 34 26.2193 33.5541 26.2193 33.0039V26.4066L26.7493 26.8733C27.7023 27.7179 30.5339 28.7518 32.3375 26.4302C34.0493 24.0274 32.8244 21.6731 31.6776 20.8819ZM24.2271 32.0078H2.85547V1.99219H24.2271V15.2742L22.7478 14.1606C23.0072 13.199 23.0928 12.1887 22.9919 11.1682C22.8061 9.29091 22.0093 7.56953 20.7208 6.22559H21.8183C22.3685 6.22559 22.8144 5.77968 22.8144 5.22949C22.8144 4.67931 22.3685 4.2334 21.8183 4.2334H17.7816C15.7414 3.41162 13.4628 3.42822 11.4538 4.2334H5.26425C4.71407 4.2334 4.26816 4.67931 4.26816 5.22949C4.26816 5.77968 4.71407 6.22559 5.26425 6.22559H8.50986C8.37108 6.37111 8.23645 6.52208 8.10649 6.67953C7.55397 7.34879 7.11636 8.086 6.79964 8.86705H5.26425C4.71407 8.86705 4.26816 9.31296 4.26816 9.86314C4.26816 10.4131 4.71407 10.8592 5.26425 10.8592H6.27072C6.1846 11.4976 6.17163 12.1503 6.23674 12.8073C6.25983 13.041 6.29303 13.2722 6.33479 13.5004H5.26425C4.71407 13.5004 4.26816 13.9464 4.26816 14.4965C4.26816 15.0467 4.71407 15.4926 5.26425 15.4926H6.96591C7.42427 16.4835 8.07796 17.3795 8.90155 18.1341H5.26425C4.71407 18.1341 4.26816 18.58 4.26816 19.1302C4.26816 19.6801 4.71407 20.1263 5.26425 20.1263C5.26425 20.1263 12.453 20.1146 12.5311 20.0952C13.2128 20.2669 13.9103 20.3522 14.6063 20.3522C15.8973 20.3522 17.1834 20.0591 18.3543 19.484L22.1506 22.8256C22.0466 22.7885 21.9351 22.7675 21.8183 22.7675H5.26425C4.71407 22.7675 4.26816 23.2134 4.26816 23.7636C4.26816 24.3138 4.71407 24.7597 5.26425 24.7597H21.8183C22.3685 24.7597 22.8144 24.3138 22.8144 23.7636C22.8144 23.602 22.7753 23.45 22.7068 23.3151L24.2271 24.6531V32.0078ZM21.1221 17.2962C21.4427 16.9074 21.7247 16.496 21.967 16.0664L23.7714 17.4246L21.7763 19.842L20.0822 18.351C20.4534 18.0355 20.8018 17.684 21.1221 17.2962ZM19.5854 16.028C17.3383 18.7507 13.2794 19.1496 10.5376 16.9167C9.21049 15.8358 8.38716 14.3067 8.21933 12.611C8.05176 10.9192 8.55733 9.26289 9.64317 7.94748C10.9122 6.40976 12.7588 5.6134 14.6198 5.6134C16.0542 5.6134 17.4973 6.08681 18.691 7.05878C20.0181 8.13969 20.8414 9.66885 21.0093 11.3645C21.1768 13.0564 20.671 14.7126 19.5854 16.028ZM30.8011 25.1623C30.3492 25.7648 29.2662 26.1711 28.0657 25.3778L23.2723 21.159L25.3649 18.6238L30.4794 22.4736C31.4916 23.2188 31.2096 24.6429 30.8011 25.1623Z" fill="#3D2EE2"/>
</g>
<defs>
<clipPath id="clip0">
<rect width="34" height="34" fill="white"/>
</clipPath>
</defs>
</svg>
