<svg width="34" height="34" viewBox="0 0 34 34" fill="none" xmlns="http://www.w3.org/2000/svg">
<g clip-path="url(#clip0)">
<path d="M25.0385 16.9897L33.7086 8.30939C33.8956 8.12226 34.0004 7.8684 34 7.60391C33.9996 7.33942 33.894 7.08596 33.7065 6.89943L27.0652 0.291269C26.6759 -0.0960672 26.0467 -0.0953368 25.6583 0.292996L17.0001 8.95125L9.74944 1.7007C9.60461 1.55581 9.41861 1.45912 9.21688 1.42386L1.16781 0.0152264C0.848143 -0.0405532 0.521234 0.0626391 0.291741 0.292132C0.0622477 0.521626 -0.041011 0.848534 0.0150342 1.1682L1.4246 9.21634C1.45993 9.41827 1.55674 9.60441 1.70184 9.74924L8.95637 16.9949L0.292206 25.659C0.105411 25.8458 0.000425297 26.0992 0.000425297 26.3633C0.000425297 26.6275 0.105411 26.8809 0.292206 27.0677L6.93177 33.7072C7.11857 33.894 7.3719 33.9989 7.63606 33.9989H7.63632C7.90061 33.9988 8.15401 33.8937 8.34074 33.7068L17.0044 25.0332L25.6904 33.7084C25.8773 33.895 26.1304 33.9998 26.3943 33.9998H26.3959C26.6604 33.9994 26.9138 33.8937 27.1004 33.7062L33.7085 27.0648C34.0958 26.6756 34.0951 26.0462 33.7068 25.6579L25.0385 16.9897ZM20.4512 8.31742L22.5641 10.4304C22.7586 10.625 23.0136 10.7222 23.2685 10.7222C23.5234 10.7222 23.7783 10.625 23.9728 10.4304C24.3618 10.0415 24.3618 9.41077 23.9728 9.02178L21.8598 6.90879L23.7714 4.99721L25.8844 7.11019C26.0789 7.30476 26.3338 7.40198 26.5887 7.40198C26.8436 7.40198 27.0986 7.30476 27.293 7.11019C27.682 6.72126 27.682 6.09056 27.293 5.70156L25.18 3.58858L26.3644 2.40419L31.594 7.60763L23.6299 15.5811L18.4087 10.3599L20.4512 8.31742ZM6.98569 3.05581L3.05622 6.98535L2.22198 2.22217L6.98569 3.05581ZM7.63566 31.5938L2.40519 26.3633L3.58805 25.1805L5.70104 27.2935C5.89547 27.4879 6.15046 27.5852 6.40532 27.5852C6.66025 27.5852 6.91517 27.4879 7.1096 27.2935C7.4986 26.9045 7.4986 26.2738 7.1096 25.8848L4.99662 23.7718L6.9082 21.8603L9.02118 23.9732C9.21562 24.1677 9.47061 24.265 9.72553 24.265C9.98046 24.265 10.2354 24.1677 10.4298 23.9732C10.8188 23.5843 10.8188 22.9536 10.4298 22.5646L8.31683 20.4516L10.3658 18.4027L15.5948 23.6253L7.63566 31.5938ZM26.3921 31.5937L3.81469 9.04409L5.72494 7.13383L28.2837 29.6926L26.3921 31.5937ZM29.6888 28.2804L7.13358 5.7252L9.04516 3.81362L31.5956 26.3641L29.6888 28.2804Z" fill="#3D2EE2"/>
</g>
<defs>
<clipPath id="clip0">
<rect width="34" height="34" fill="white"/>
</clipPath>
</defs>
</svg>
