<svg width="34" height="30" viewBox="0 0 34 30" fill="none" xmlns="http://www.w3.org/2000/svg">
<path d="M30.9132 23.7154C31.5908 23.0008 32.0078 22.0367 32.0078 20.9766C32.0078 18.7796 30.2204 16.9922 28.0234 16.9922C25.8265 16.9922 24.0391 18.7796 24.0391 20.9766C24.0391 22.0367 24.4561 23.0008 25.1337 23.7154C23.9644 24.364 23.0341 25.3932 22.5117 26.6348C21.9893 25.3932 21.0591 24.3641 19.8897 23.7154C20.5673 23.0008 20.9844 22.0367 20.9844 20.9766C20.9844 18.7796 19.197 16.9922 17 16.9922C14.803 16.9922 13.0156 18.7796 13.0156 20.9766C13.0156 22.0367 13.4327 23.0008 14.1103 23.7154C12.9409 24.364 12.0107 25.3932 11.4883 26.6348C10.9659 25.3932 10.0356 24.3641 8.8663 23.7154C9.54391 23.0008 9.96094 22.0367 9.96094 20.9766C9.96094 18.7796 8.17355 16.9922 5.97656 16.9922C3.77958 16.9922 1.99219 18.7796 1.99219 20.9766C1.99219 22.0367 2.40922 23.0008 3.08683 23.7154C1.24771 24.7356 0 26.6973 0 28.9453V29.9414H34V28.9453C34 26.6973 32.7523 24.7356 30.9132 23.7154ZM5.97656 18.9844C7.07505 18.9844 7.96875 19.8781 7.96875 20.9766C7.96875 22.0751 7.07505 22.9688 5.97656 22.9688C4.87807 22.9688 3.98438 22.0751 3.98438 20.9766C3.98438 19.8781 4.87807 18.9844 5.97656 18.9844ZM2.11823 27.9492C2.56162 26.2326 4.12336 24.9609 5.97656 24.9609C7.8297 24.9609 9.3915 26.2326 9.8349 27.9492H2.11823ZM17 18.9844C18.0985 18.9844 18.9922 19.8781 18.9922 20.9766C18.9922 22.0751 18.0985 22.9688 17 22.9688C15.9015 22.9688 15.0078 22.0751 15.0078 20.9766C15.0078 19.8781 15.9015 18.9844 17 18.9844ZM13.1417 27.9492C13.5851 26.2326 15.1468 24.9609 17 24.9609C18.8531 24.9609 20.4149 26.2326 20.8583 27.9492H13.1417ZM28.0234 18.9844C29.1219 18.9844 30.0156 19.8781 30.0156 20.9766C30.0156 22.0751 29.1219 22.9688 28.0234 22.9688C26.9249 22.9688 26.0312 22.0751 26.0312 20.9766C26.0312 19.8781 26.9249 18.9844 28.0234 18.9844ZM24.1651 27.9492C24.6085 26.2326 26.1702 24.9609 28.0234 24.9609C29.8766 24.9609 31.4384 26.2326 31.8818 27.9492H24.1651Z" fill="#3D2EE2"/>
<path d="M22.9766 12.0117C22.9766 9.76373 21.7289 7.80196 19.8897 6.78176C20.5673 6.06716 20.9844 5.10314 20.9844 4.04297C20.9844 1.84598 19.197 0.0585938 17 0.0585938C14.803 0.0585938 13.0156 1.84598 13.0156 4.04297C13.0156 5.10314 13.4327 6.06716 14.1103 6.78176C12.2711 7.80196 11.0234 9.76373 11.0234 12.0117V13.0078H22.9766V12.0117ZM17 2.05078C18.0985 2.05078 18.9922 2.94448 18.9922 4.04297C18.9922 5.14146 18.0985 6.03516 17 6.03516C15.9015 6.03516 15.0078 5.14146 15.0078 4.04297C15.0078 2.94448 15.9015 2.05078 17 2.05078ZM13.1417 11.0156C13.5851 9.29902 15.1468 8.02734 17 8.02734C18.8531 8.02734 20.4149 9.29902 20.8583 11.0156H13.1417Z" fill="#3D2EE2"/>
<path d="M29.0195 15H31.0117V5.03906H24.0391V7.03125H29.0195V15Z" fill="#3D2EE2"/>
<path d="M4.98047 7.03125H9.96094V5.03906H2.98828V15H4.98047V7.03125Z" fill="#3D2EE2"/>
</svg>
