<svg width="112" height="26" viewBox="0 0 112 26" fill="none" xmlns="http://www.w3.org/2000/svg">
<g clip-path="url(#clip0)">
<path d="M17.313 3.44336C14.1494 3.44336 11.5768 6.01727 11.5768 9.18247C11.5768 12.3477 14.1494 14.9216 17.313 14.9216C20.4766 14.9216 23.0492 12.3477 23.0492 9.18247C23.0492 6.01727 20.4766 3.44336 17.313 3.44336ZM17.313 12.8173C15.2966 12.8173 13.6626 11.1825 13.6626 9.16511C13.6626 7.14771 15.2966 5.51292 17.313 5.51292C19.3293 5.51292 20.9633 7.14771 20.9633 9.16511C20.9633 11.1825 19.3293 12.8173 17.313 12.8173Z" fill="white"/>
<path d="M82.1497 14.9039C82.2018 14.9039 82.254 14.9039 82.3061 14.9039C83.3145 14.9039 84.3054 14.643 85.1746 14.1387C85.6782 13.843 85.8347 13.2169 85.5565 12.7126C85.2616 12.2083 84.6357 12.0343 84.1315 12.33C83.5578 12.6604 82.8798 12.8343 82.2018 12.8169C80.3248 12.7647 78.6733 11.0778 78.6559 9.19955C78.6559 8.19082 79.0383 7.26912 79.7511 6.55607C80.4639 5.86042 81.4027 5.4952 82.4104 5.52998C84.3054 5.58215 85.8695 7.16474 85.939 9.06039V10.4865C85.939 11.9474 86.4606 13.356 87.4167 14.4691C87.7992 14.9039 88.4598 14.9561 88.8944 14.5735C89.3291 14.1908 89.3812 13.53 88.9988 13.0952C88.3729 12.3648 88.0252 11.443 88.0252 10.4691V9.02562C88.0252 9.00826 88.0252 9.00826 88.0252 8.99084C87.9383 5.96476 85.5044 3.51259 82.48 3.42563C80.8985 3.37346 79.4208 3.94737 78.2908 5.04302C77.1613 6.13868 76.5529 7.61694 76.5529 9.18214C76.605 12.2256 79.16 14.8343 82.1497 14.9039Z" fill="white"/>
<path d="M95.9516 14.9043C97.4809 14.9043 98.9239 14.313 100.002 13.2174C100.402 12.8174 100.402 12.1565 100.002 11.7391C99.6019 11.3391 98.9413 11.3391 98.524 11.7391C97.8286 12.4348 96.9252 12.8 95.9516 12.8C93.935 12.8 92.3013 11.1652 92.3013 9.1478C92.3013 7.1304 93.935 5.49564 95.9516 5.49564C96.8209 5.49564 97.6722 5.80869 98.3328 6.3826C98.7674 6.76522 99.428 6.71303 99.8105 6.27825C100.193 5.84347 100.141 5.1826 99.7062 4.79999C98.6631 3.89564 97.3424 3.40869 95.969 3.40869C92.8055 3.40869 90.2325 5.9826 90.2325 9.1478C90.2325 12.313 92.8055 14.9043 95.9516 14.9043Z" fill="white"/>
<path d="M25.4481 3.54785C24.8745 3.54785 24.4052 4.01742 24.4052 4.59133V13.7217C24.4052 14.2957 24.8745 14.7652 25.4481 14.7652C26.0217 14.7652 26.4911 14.2957 26.4911 13.7217V4.59133C26.4911 4.01742 26.0217 3.54785 25.4481 3.54785Z" fill="white"/>
<path d="M60.4913 3.54785C59.9176 3.54785 59.4482 4.01742 59.4482 4.59133V13.7217C59.4482 14.2957 59.9176 14.7652 60.4913 14.7652C61.065 14.7652 61.5344 14.2957 61.5344 13.7217V4.59133C61.5344 4.01742 61.065 3.54785 60.4913 3.54785Z" fill="white"/>
<path d="M32.8706 3.37354C30.5935 3.37354 28.2468 5.00832 28.2468 7.73875V13.7562C28.2468 14.3301 28.7162 14.7996 29.2898 14.7996C29.8634 14.7996 30.3327 14.3301 30.3327 13.7562V7.72139C30.3327 6.15615 31.8102 5.4431 32.8706 5.4431C33.9135 5.4431 35.3563 6.15615 35.3563 7.72139V13.7388C35.3563 14.3126 35.8256 14.7823 36.3992 14.7823C36.9728 14.7823 37.4422 14.3126 37.4422 13.7388V7.72139C37.4595 4.99093 35.1303 3.37354 32.8706 3.37354Z" fill="white"/>
<path d="M57.7972 4.13905C57.0149 3.6347 56.0761 3.35645 55.1548 3.35645C52.8778 3.35645 50.5311 4.99123 50.5311 7.72163V13.7391C50.5311 14.3129 51.0004 14.7826 51.5741 14.7826C52.1476 14.7826 52.617 14.3129 52.617 13.7391V7.70427C52.617 6.13905 54.0945 5.42601 55.1548 5.42601C55.6763 5.42601 56.2152 5.58253 56.6498 5.87818C57.1366 6.19123 57.7799 6.05209 58.0922 5.58253C58.4051 5.09558 58.2835 4.4521 57.7972 4.13905Z" fill="white"/>
<path d="M9.2651 0.799805C8.69145 0.799805 8.22212 1.26937 8.22212 1.84328V9.59981C8.22212 11.9824 6.67508 12.8172 5.35403 12.8172C4.03296 12.8172 2.48592 11.9824 2.48592 9.59981C2.48592 9.02587 2.01659 8.55631 1.44297 8.55631C0.869351 8.55631 0.400024 9.02587 0.400024 9.59981C0.400024 13.0781 2.88571 14.9041 5.35403 14.9041C7.82232 14.9041 10.308 13.0954 10.308 9.59981V1.84328C10.308 1.26937 9.83869 0.799805 9.2651 0.799805Z" fill="white"/>
<path d="M70.2599 14.6435C70.2599 14.6435 70.2773 14.6435 70.2599 14.6435C70.6598 14.6435 71.0075 14.4174 71.1813 14.0696L75.8399 4.9565C76.1007 4.45215 75.8921 3.80867 75.3879 3.5478C74.8838 3.28694 74.2405 3.49563 73.9797 3.99998L70.2252 11.3391L66.8009 4.90433C66.4706 4.27824 65.9322 3.84346 65.2542 3.65215C64.5762 3.46085 63.8808 3.54781 63.2723 3.87824C62.7681 4.1565 62.5943 4.79998 62.8898 5.30432C63.168 5.80867 63.8112 5.98258 64.3154 5.68693C64.4719 5.59998 64.611 5.61737 64.6805 5.65215C64.75 5.66954 64.8717 5.72171 64.9586 5.87824L69.3217 14.0869C69.5303 14.4347 69.878 14.6435 70.2599 14.6435Z" fill="white"/>
<path d="M44.256 0.817196H40.7447C40.6926 0.799805 40.623 0.799805 40.5709 0.799805C40.5187 0.799805 40.4492 0.799805 40.3971 0.817196H39.2324C38.6588 0.817196 38.1895 1.28676 38.1895 1.86067C38.1895 2.43458 38.6588 2.90415 39.2324 2.90415H39.5279V13.7042C39.5279 14.2781 39.9973 14.7476 40.5709 14.7476C41.1445 14.7476 41.6138 14.2781 41.6138 13.7042V2.90415H44.256C45.803 2.90415 47.1067 4.38242 47.1067 6.13893C47.1067 7.58241 45.6813 9.07806 44.2733 9.07806C43.6997 9.07806 43.2304 9.54762 43.2304 10.1216C43.2304 10.6955 43.6997 11.165 44.2733 11.165C46.8459 11.165 49.1926 8.76502 49.1926 6.13893C49.1926 3.1998 46.985 0.817196 44.256 0.817196Z" fill="white"/>
<path d="M110.396 3.44336C109.822 3.44336 109.354 3.91292 109.354 4.48684V10.5738C109.354 11.7738 108.032 12.8173 106.52 12.8173C105.043 12.8173 103.687 11.739 103.687 10.5738V4.48684C103.687 3.91292 103.217 3.44336 102.643 3.44336C102.07 3.44336 101.601 3.91292 101.601 4.48684V10.5738C101.601 12.8868 103.895 14.9042 106.52 14.9042C107.128 14.9042 107.719 14.7999 108.276 14.6086C107.98 15.1825 107.632 15.7564 107.25 16.2955C106.92 16.7651 107.007 17.4086 107.476 17.7564C107.667 17.8955 107.876 17.9477 108.084 17.9477C108.415 17.9477 108.728 17.7912 108.936 17.5129C110.553 15.2694 111.457 12.7999 111.457 10.5564V4.46945C111.439 3.91293 110.97 3.44336 110.396 3.44336Z" fill="white"/>
<path d="M105.008 18.6954C104.869 18.7997 104.747 18.9041 104.608 19.0085C95.0822 26.1911 77.2828 25.3737 68.661 17.3389C68.2438 16.9389 67.5831 16.9737 67.1833 17.3911C66.7834 17.8085 66.8182 18.4693 67.2355 18.8694C71.755 23.0955 78.7426 25.6693 86.3908 25.965C86.8776 25.9824 87.3818 25.9998 87.8685 25.9998C94.8388 25.9998 101.323 24.0867 105.859 20.678C106.016 20.5563 106.172 20.4346 106.329 20.3128C106.781 19.9476 106.833 19.2867 106.468 18.8519C106.103 18.3824 105.442 18.3128 105.008 18.6954Z" fill="white"/>
<path d="M8.81318 20.8176C8.81318 21.2177 8.50031 21.5481 8.10051 21.5655C8.08313 21.5655 8.17005 21.5655 7.09236 21.5655C6.98805 21.5655 6.90112 21.4785 6.90112 21.3742V19.0785C6.90112 18.9742 6.98805 18.8872 7.09236 18.8872C7.09236 18.8872 7.00543 18.8872 7.82241 18.8872C8.22221 18.9046 8.56985 19.235 8.56985 19.6524C8.56985 19.8263 8.50031 20.0003 8.396 20.122C8.63939 20.2611 8.81318 20.522 8.81318 20.8176ZM7.78764 19.2698H7.26615V20.035H7.78764C8.01359 20.035 8.18744 19.8611 8.18744 19.6524C8.18744 19.4437 7.9962 19.2698 7.78764 19.2698ZM8.43077 20.8176C8.43077 20.6263 8.25698 20.435 8.04836 20.435H7.26615V21.1829H8.06574C8.25698 21.1829 8.43077 21.0089 8.43077 20.8176Z" fill="white"/>
<path d="M11.5075 21.3566C11.5075 21.4609 11.4206 21.5479 11.3163 21.5479H9.99526C9.891 21.5479 9.80408 21.4609 9.80408 21.3566V19.0609C9.80408 18.9566 9.891 18.8696 9.99526 18.8696H11.3163C11.4206 18.8696 11.5075 18.9566 11.5075 19.0609C11.5075 19.1653 11.4206 19.2522 11.3163 19.2522H10.1691V20.0175H11.0382C11.1425 20.0175 11.2294 20.1044 11.2294 20.2088C11.2294 20.3131 11.1425 20.4001 11.0382 20.4001H10.1691V21.1479H11.3163C11.4206 21.1653 11.5075 21.2523 11.5075 21.3566Z" fill="white"/>
<path d="M14.5321 18.8696H16.0617C16.166 18.8696 16.2529 18.9566 16.2529 19.0609C16.2529 19.1653 16.166 19.2522 16.0617 19.2522H15.4881V21.3739C15.4881 21.4783 15.4012 21.5653 15.2969 21.5653C15.1926 21.5653 15.1056 21.4783 15.1056 21.3739V19.2522H14.5321C14.4277 19.2522 14.3408 19.1653 14.3408 19.0609C14.3408 18.9566 14.4104 18.8696 14.5321 18.8696Z" fill="white"/>
<path d="M19.1905 19.078V21.3737C19.1905 21.4781 19.1036 21.565 18.9992 21.565C18.895 21.565 18.8081 21.4781 18.8081 21.3737V20.4346H17.6261V21.3737C17.6261 21.4781 17.5391 21.565 17.4348 21.565C17.3306 21.565 17.2437 21.4781 17.2437 21.3737V19.078C17.2437 18.9737 17.3306 18.8867 17.4348 18.8867C17.5391 18.8867 17.6261 18.9737 17.6261 19.078V20.0346H18.8081V19.078C18.8081 18.9737 18.895 18.8867 18.9992 18.8867C19.1036 18.8867 19.1905 18.9737 19.1905 19.078Z" fill="white"/>
<path d="M21.9022 21.3566C21.9022 21.4609 21.8153 21.5479 21.711 21.5479H20.3899C20.2857 21.5479 20.1987 21.4609 20.1987 21.3566V19.0609C20.1987 18.9566 20.2857 18.8696 20.3899 18.8696H21.711C21.8153 18.8696 21.9022 18.9566 21.9022 19.0609C21.9022 19.1653 21.8153 19.2522 21.711 19.2522H20.5638V20.0175H21.4329C21.5371 20.0175 21.6241 20.1044 21.6241 20.2088C21.6241 20.3131 21.5371 20.4001 21.4329 20.4001H20.5638V21.1479H21.711C21.8153 21.1653 21.9022 21.2523 21.9022 21.3566Z" fill="white"/>
<path d="M24.8225 20.5912V19.0956C24.8225 18.9912 24.9094 18.9043 25.0137 18.9043C25.118 18.9043 25.2049 18.9912 25.2049 19.0956V20.5912C25.2049 20.9043 25.4656 21.1651 25.7785 21.1651C26.0914 21.1651 26.3522 20.9043 26.3522 20.5912V19.0956C26.3522 18.9912 26.439 18.9043 26.5433 18.9043C26.6476 18.9043 26.7346 18.9912 26.7346 19.0956V20.5912C26.7346 21.1303 26.3 21.5478 25.7785 21.5478C25.257 21.5651 24.8225 21.1303 24.8225 20.5912Z" fill="white"/>
<path d="M29.6027 21.5305C29.5679 21.5479 29.5332 21.5653 29.4984 21.5653C29.4289 21.5653 29.3767 21.5305 29.342 21.4783L28.0904 19.687V21.3914C28.0904 21.4957 28.0035 21.5827 27.8992 21.5827C27.7949 21.5827 27.708 21.4957 27.708 21.3914V19.0957C27.708 19.0261 27.7254 18.9566 27.7949 18.9044C27.8819 18.8522 28.0035 18.8696 28.0557 18.9566L29.3072 20.8001V19.0609C29.3072 18.9566 29.3941 18.8696 29.4984 18.8696C29.6027 18.8696 29.6896 18.9566 29.6896 19.0609V21.3566C29.707 21.4261 29.6722 21.4957 29.6027 21.5305Z" fill="white"/>
<path d="M32.4012 21.5305C32.3664 21.5653 32.3316 21.5653 32.2795 21.5653C32.2273 21.5653 32.1752 21.5479 32.1404 21.4957L31.306 20.3827L31.0627 20.6261V21.3566C31.0627 21.4609 30.9758 21.5479 30.8715 21.5479C30.7672 21.5479 30.6803 21.4609 30.6803 21.3566V19.0609C30.6803 18.9566 30.7672 18.8696 30.8715 18.8696C30.9758 18.8696 31.0627 18.9566 31.0627 19.0609V20.1044L32.123 18.974C32.1926 18.887 32.2969 18.8696 32.3838 18.9392C32.4707 19.0087 32.488 19.1131 32.4185 19.2001L31.5668 20.1218L32.4359 21.2696C32.488 21.3392 32.488 21.4609 32.4012 21.5305Z" fill="white"/>
<path d="M35.3563 21.5305C35.3215 21.5479 35.2867 21.5653 35.252 21.5653C35.1824 21.5653 35.1303 21.5305 35.0955 21.4783L33.844 19.687V21.3914C33.844 21.4957 33.7571 21.5827 33.6528 21.5827C33.5485 21.5827 33.4615 21.4957 33.4615 21.3914V19.0957C33.4615 19.0261 33.4789 18.9566 33.5485 18.9044C33.6354 18.8522 33.7571 18.8696 33.8092 18.9566L35.0607 20.8001V19.0609C35.0607 18.9566 35.1477 18.8696 35.252 18.8696C35.3563 18.8696 35.4431 18.9566 35.4431 19.0609V21.3566C35.4605 21.4261 35.4258 21.4957 35.3563 21.5305Z" fill="white"/>
<path d="M36.4165 20.2085C36.4165 19.4954 37.0075 18.8867 37.7376 18.8867C38.4676 18.8867 39.0586 19.4954 39.0586 20.2085C39.0586 20.9389 38.4676 21.5476 37.7376 21.5476C37.0075 21.5476 36.4165 20.9389 36.4165 20.2085ZM36.7989 20.2085C36.7989 20.7476 37.2335 21.1824 37.755 21.1824C38.2764 21.1824 38.711 20.7476 38.711 20.2085C38.711 19.6867 38.2764 19.252 37.755 19.252C37.2161 19.252 36.7989 19.6867 36.7989 20.2085Z" fill="white"/>
<path d="M43.2479 19.1301L42.3614 21.4432C42.3266 21.5128 42.2571 21.565 42.1876 21.565C42.1007 21.565 42.0311 21.5128 42.0138 21.4432L41.5966 20.3649L41.1794 21.4432C41.1446 21.5128 41.0751 21.565 41.0056 21.565C40.9187 21.565 40.8491 21.5128 40.8318 21.4432L39.98 19.1476C39.9452 19.0432 39.9974 18.9389 40.0843 18.9041C40.1886 18.8693 40.2929 18.9215 40.3276 19.0084L41.0056 20.8345L41.4228 19.7562C41.4576 19.6867 41.527 19.6345 41.5966 19.6345C41.6835 19.6345 41.753 19.6867 41.7704 19.7562L42.1876 20.8345L42.9003 18.991C42.935 18.8867 43.0394 18.8345 43.1436 18.8867C43.2305 18.9215 43.2827 19.0258 43.2479 19.1301Z" fill="white"/>
<path d="M46.0463 21.5305C46.0115 21.5479 45.9768 21.5653 45.942 21.5653C45.8725 21.5653 45.8203 21.5305 45.7856 21.4783L44.534 19.687V21.3914C44.534 21.4957 44.4471 21.5827 44.3428 21.5827C44.2385 21.5827 44.1516 21.4957 44.1516 21.3914V19.0957C44.1516 19.0261 44.169 18.9566 44.2385 18.9044C44.3254 18.8522 44.4471 18.8696 44.4993 18.9566L45.7508 20.8001V19.0609C45.7508 18.9566 45.8377 18.8696 45.942 18.8696C46.0463 18.8696 46.1332 18.9566 46.1332 19.0609V21.3566C46.1332 21.4261 46.0984 21.4957 46.0463 21.5305Z" fill="white"/>
</g>
<defs>
<clipPath id="clip0">
<rect width="111.6" height="25.2" fill="white" transform="translate(0.400024 0.799805)"/>
</clipPath>
</defs>
</svg>
