<svg width="282" height="50" viewBox="0 0 282 50" fill="none" xmlns="http://www.w3.org/2000/svg">
<g clip-path="url(#clip0)">
<path d="M195.261 37.6788V37.7925H190.217L187.927 32.8414H174.88L172.59 37.7925H167.516V37.7073L181.403 8.74072L195.261 37.6788ZM179.519 22.5694L176.475 29.0856H186.304L183.259 22.5694C182.593 21.1184 182.042 19.6672 181.375 17.903C180.766 19.6672 180.186 21.0899 179.519 22.5694Z" fill="#BDBDBD"/>
<path d="M94.6018 35.7741L96.8631 32.1604C98.5445 33.4409 100.226 34.0954 102.226 34.0954C105.3 34.0954 106.894 32.3596 106.894 28.9453V10.4214H111.736V28.9453C111.736 35.148 108.489 38.3351 102.545 38.3351C99.3273 38.3066 96.776 37.3961 94.6018 35.7741Z" fill="#BDBDBD"/>
<path d="M132.522 19.8381V37.7929H129.391L128.493 35.0042C127.274 36.9392 125.245 38.1342 122.665 38.1342C118.229 38.1342 116.055 35.3456 116.055 30.9353V19.8381H120.578V30.5369C120.578 32.7564 121.447 34.2074 123.767 34.2074C126.549 34.2074 128.028 31.8743 128.028 29.1427V19.8381H132.522Z" fill="#BDBDBD"/>
<path d="M136.38 36.2282L138.148 33.1267C139.714 34.0941 141.424 34.6062 143.164 34.6062C144.816 34.6062 145.86 33.8949 145.86 32.7567C145.86 31.4193 144.149 30.7934 142.323 30.1106C139.424 29.0293 137.162 27.5212 137.162 24.5904C137.162 21.2897 140.148 19.554 143.628 19.554C145.715 19.554 147.658 20.0376 149.629 21.1759L148.063 24.1067C146.7 23.4238 145.222 23.0538 144.005 23.0538C142.613 23.0538 141.424 23.452 141.424 24.5904C141.424 25.7569 142.787 26.4399 144.758 27.1228C147.947 28.2896 150.267 29.7691 150.267 32.7567C150.267 36.0857 147.512 38.1915 143.512 38.1915C140.757 38.1915 138.496 37.5371 136.38 36.2282Z" fill="#BDBDBD"/>
<path d="M155.281 32.301V23.5941L152.035 23.3665V19.8382H155.281L155.397 14.0903H159.747V19.8382H165.4V23.5941H159.747V31.8744C159.747 33.6385 160.559 34.1791 161.747 34.1791C162.819 34.1791 163.805 33.8946 164.819 33.24L166.27 36.5409C164.588 37.5937 162.819 38.191 160.732 38.191C157.455 38.191 155.281 36.3415 155.281 32.301Z" fill="#BDBDBD"/>
<path d="M196.709 36.2282L198.478 33.1267C200.043 34.0941 201.753 34.6062 203.494 34.6062C205.146 34.6062 206.189 33.8949 206.189 32.7567C206.189 31.4193 204.478 30.7934 202.653 30.1106C199.753 29.0293 197.492 27.5212 197.492 24.5904C197.492 21.2897 200.478 19.554 203.957 19.554C206.045 19.554 207.987 20.0376 209.958 21.1759L208.393 24.1067C207.031 23.4238 205.552 23.0538 204.334 23.0538C202.943 23.0538 201.753 23.452 201.753 24.5904C201.753 25.7569 203.116 26.4399 205.087 27.1228C208.277 28.2896 210.596 29.7691 210.596 32.7567C210.596 36.0857 207.842 38.1915 203.841 38.1915C201.087 38.1915 198.855 37.5371 196.709 36.2282Z" fill="#BDBDBD"/>
<path d="M229.906 37.5378V37.7654H224.746L218.195 30.1394V37.7938H213.729V8.79883H218.195V26.9527L224.253 19.8391H229.298V20.0382L222.05 28.5177L229.906 37.5378Z" fill="#BDBDBD"/>
<path d="M261.245 24.6751C261.245 25.2443 261.215 25.8133 261.07 26.4107L259.012 37.7925H254.576L256.576 26.6101C256.606 26.297 256.665 26.041 256.665 25.7564C256.665 24.106 255.678 23.3093 254.114 23.3093C251.416 23.3093 249.589 25.8133 249.154 28.4595L247.473 37.7925H243.038L245.009 26.6101C245.039 26.3256 245.096 26.0125 245.096 25.728C245.096 24.3051 244.371 23.3093 242.747 23.3093C239.879 23.3093 238.08 25.8986 237.616 28.431L235.964 37.8209H231.498L234.688 19.8663H237.674L238.08 22.7119C239.589 20.6631 241.762 19.3826 244.314 19.3826C246.951 19.3826 248.633 20.5777 249.185 22.598C250.835 20.5493 252.923 19.3826 255.736 19.3826C259.185 19.3542 261.245 21.3744 261.245 24.6751Z" fill="#BDBDBD"/>
<path d="M270.725 31.22C269.854 31.22 269.13 31.1915 268.522 31.106C268.929 33.4108 270.666 34.6913 273.276 34.6913C275.131 34.6913 276.64 34.3215 278.321 33.3257L279.684 36.3702C277.393 37.6507 275.104 38.2483 272.378 38.2483C267.42 38.2483 264 35.0328 264 30.4518C264 24.2487 268.58 19.3545 274.814 19.3545C278.784 19.3545 281.279 21.4032 281.279 24.6184C281.307 29.4558 276.088 31.22 270.725 31.22ZM270.406 28.1184C273.565 28.1184 277.161 27.4354 277.161 24.9315C277.161 23.5941 276.147 22.9683 274.669 22.9683C271.624 22.9683 269.333 25.2731 268.638 28.0331C269.073 28.09 269.654 28.1184 270.406 28.1184Z" fill="#BDBDBD"/>
<path d="M55.8688 0.26123L38.7349 18.2727L41.4023 22.3987L55.1442 8.00079L77.4966 42.4589H72.5391L54.3034 14.3461L43.5186 25.6708L46.2146 29.8252L53.5785 22.0571L69.8717 47.2108H86.31L55.8688 0.26123Z" fill="#BDBDBD"/>
<path d="M44.6788 31.3919L41.9826 27.2376L39.866 23.9936L37.1698 19.8394L35.6043 17.4207L24.5586 0.348145L6.2939 19.4979C6.23593 19.5548 6.17794 19.6117 6.11996 19.6971C4.64138 21.2906 1.74223 24.5913 0.524588 29.0302C0.176688 30.2821 -0.0262519 31.6479 0.00273957 33.0706C0.00273957 34.5502 0.234671 36.1152 0.756518 37.7371C1.01744 38.5339 1.33635 39.3591 1.74223 40.1841C1.8582 40.4119 1.97417 40.6679 2.11912 40.8955C2.38006 41.3792 2.66996 41.8629 3.01786 42.3182C3.68466 43.2289 4.49643 44.0823 5.42416 44.8506C6.98969 46.1595 8.87415 47.2692 10.9615 48.066C11.4544 48.2366 11.9183 48.4076 12.4401 48.5782C13.0489 48.7489 13.6867 48.9197 14.3245 49.0619C14.5275 49.1189 14.7305 49.1473 14.9333 49.1758C15.0493 49.2041 15.1653 49.2042 15.2813 49.2326C15.4262 49.261 15.5713 49.261 15.6871 49.2895C15.8322 49.3179 15.9771 49.3179 16.151 49.3465C16.441 49.375 16.7309 49.4034 17.0207 49.4319C17.6006 49.4886 18.1514 49.4886 18.7023 49.4886C19.3401 49.4886 19.9779 49.4603 20.5867 49.4034C20.7317 49.375 20.9057 49.375 21.0506 49.3465C21.3696 49.3179 21.6594 49.261 21.9782 49.2042C22.1233 49.1758 22.2972 49.1473 22.4421 49.1189C22.5871 49.0904 22.7611 49.0619 22.9061 49.0334C23.225 48.9765 23.5149 48.8913 23.8048 48.8342C24.0078 48.7773 24.1817 48.7203 24.3847 48.6919C24.9353 48.5213 25.5152 48.3506 26.0662 48.1229C27.9217 47.3832 29.719 46.3871 31.3426 45.0782C32.0673 44.5092 32.7342 43.8547 33.372 43.2003L30.7048 39.0745L29.6611 40.1558C29.4002 40.4402 29.1102 40.7247 28.7913 41.0092C27.1388 42.4036 25.4573 43.3141 23.8048 43.8832C23.5439 43.9686 23.3119 44.0539 23.08 44.1108C22.964 44.1392 22.819 44.1678 22.7031 44.2247C22.5291 44.2816 22.3551 44.31 22.1812 44.3669C21.8333 44.4523 21.4854 44.5092 21.1376 44.566C20.9636 44.5945 20.7897 44.6229 20.6448 44.6229C20.4997 44.6515 20.3258 44.6515 20.1809 44.68H20.1519C19.63 44.7369 19.1081 44.7653 18.6153 44.7653C18.3834 44.7653 18.1514 44.7653 17.9196 44.7369C17.6876 44.7369 17.4846 44.7084 17.2817 44.7084C17.1367 44.7084 17.0207 44.68 16.8758 44.68C16.5859 44.6515 16.296 44.6229 16.035 44.566C15.3683 44.4523 14.7305 44.31 14.0927 44.1108C10.6716 43.115 7.71448 41.0947 6.40987 38.7615C6.40987 38.7329 6.38088 38.7329 6.38088 38.7045C5.97499 37.9078 5.62709 37.1395 5.36618 36.3713C5.04727 35.4039 4.87333 34.4079 4.84433 33.4406C4.69936 29.9976 6.32289 26.526 9.83086 22.7416C9.85986 22.7132 9.85986 22.7132 9.88885 22.6847L23.8048 8.05926L39.8951 32.9L46.0703 42.4606H41.1418L25.6891 18.5589L22.9931 14.4046L11.3674 26.6115C10.2368 28.0626 9.04811 30.1397 9.04811 32.53C9.04811 33.4406 9.22205 34.4079 9.65692 35.3753C9.83086 35.8021 10.0628 36.2006 10.3237 36.6273C11.6283 38.7045 13.7737 40.1841 16.354 40.7816C16.6149 40.8386 16.9048 40.8956 17.1657 40.9241C17.7166 41.0092 18.2674 41.0378 18.8183 41.0378C19.3691 41.0378 19.92 41.0092 20.4708 40.9241C20.4997 40.9241 20.4997 40.9241 20.5288 40.9241C23.022 40.5826 25.2833 39.3591 27.0228 37.5379L28.6463 35.8306L25.9791 31.7047C25.1963 32.53 24.2977 33.4973 23.6019 34.2089C22.4421 35.4323 20.8766 36.2291 19.1951 36.3142C18.6153 36.3428 18.0354 36.286 17.4846 36.1721C16.18 35.8591 15.1074 35.1478 14.4985 34.1519C13.6288 32.7576 13.7737 31.4486 15.1653 29.656L15.1943 29.6276L22.3551 22.1156L26.3271 28.2619L36.938 44.6229L38.6193 47.2123H55.0578L46.3602 33.8103L44.6788 31.3919Z" fill="#BDBDBD"/>
</g>
<defs>
<clipPath id="clip0">
<rect width="282" height="50" fill="white"/>
</clipPath>
</defs>
</svg>
