<svg width="148" height="27" viewBox="0 0 148 27" fill="none" xmlns="http://www.w3.org/2000/svg">
<g clip-path="url(#clip0)">
<path d="M102.463 19.8946V19.9546H99.8155L98.6137 17.3404H91.7677L90.5658 19.9546H87.9036V19.9096L95.1907 4.61523L102.463 19.8946ZM94.2018 11.9168L92.6044 15.3573H97.7618L96.1643 11.9168C95.8145 11.1506 95.5254 10.3844 95.1755 9.45293C94.856 10.3844 94.5517 11.1356 94.2018 11.9168Z" fill="white"/>
<path d="M49.6421 18.8887L50.8287 16.9807C51.711 17.6567 52.5934 18.0024 53.6431 18.0024C55.2558 18.0024 56.0924 17.0858 56.0924 15.283V5.50244H58.6331V15.283C58.6331 18.5581 56.9292 20.2408 53.8104 20.2408C52.1218 20.2258 50.783 19.7451 49.6421 18.8887Z" fill="white"/>
<path d="M69.5405 10.4746V19.9547H67.8975L67.4258 18.4823C66.787 19.504 65.722 20.1349 64.368 20.1349C62.0404 20.1349 60.8994 18.6626 60.8994 16.3339V10.4746H63.2727V16.1236C63.2727 17.2954 63.729 18.0616 64.9462 18.0616C66.4066 18.0616 67.1825 16.8298 67.1825 15.3874V10.4746H69.5405Z" fill="white"/>
<path d="M71.5647 19.1282L72.4928 17.4906C73.3143 18.0014 74.2119 18.2718 75.1246 18.2718C75.9918 18.2718 76.5395 17.8963 76.5395 17.2953C76.5395 16.5891 75.6419 16.2587 74.6835 15.8981C73.1622 15.3272 71.9755 14.5309 71.9755 12.9834C71.9755 11.2407 73.5424 10.3242 75.368 10.3242C76.4634 10.3242 77.4827 10.5796 78.5172 11.1806L77.6957 12.7281C76.9806 12.3675 76.2048 12.1722 75.5658 12.1722C74.8356 12.1722 74.2119 12.3824 74.2119 12.9834C74.2119 13.5994 74.9269 13.96 75.9614 14.3205C77.6348 14.9366 78.8518 15.7178 78.8518 17.2953C78.8518 19.053 77.4066 20.1648 75.3072 20.1648C73.8619 20.1648 72.6753 19.8193 71.5647 19.1282Z" fill="white"/>
<path d="M81.4834 17.0552V12.4579L79.7795 12.3378V10.4748H81.4834L81.5443 7.43994H83.8263V10.4748H86.7928V12.4579H83.8263V16.8299C83.8263 17.7613 84.2523 18.0468 84.8759 18.0468C85.4389 18.0468 85.9561 17.8966 86.4885 17.5509L87.2492 19.2938C86.3668 19.8497 85.4389 20.1651 84.3434 20.1651C82.6244 20.1651 81.4834 19.1886 81.4834 17.0552Z" fill="white"/>
<path d="M103.223 19.1282L104.15 17.4906C104.972 18.0014 105.87 18.2718 106.782 18.2718C107.65 18.2718 108.197 17.8963 108.197 17.2953C108.197 16.5891 107.3 16.2587 106.341 15.8981C104.82 15.3272 103.633 14.5309 103.633 12.9834C103.633 11.2407 105.2 10.3242 107.026 10.3242C108.121 10.3242 109.14 10.5796 110.175 11.1806L109.353 12.7281C108.638 12.3675 107.863 12.1722 107.224 12.1722C106.493 12.1722 105.87 12.3824 105.87 12.9834C105.87 13.5994 106.585 13.96 107.619 14.3205C109.293 14.9366 110.51 15.7178 110.51 17.2953C110.51 19.053 109.064 20.1648 106.965 20.1648C105.52 20.1648 104.348 19.8193 103.223 19.1282Z" fill="white"/>
<path d="M120.643 19.8201V19.9403H117.935L114.497 15.9138V19.9553H112.154V4.646H114.497V14.2312L117.676 10.4753H120.323V10.5804L116.52 15.0576L120.643 19.8201Z" fill="white"/>
<path d="M137.087 13.0285C137.087 13.329 137.072 13.6295 136.995 13.9449L135.916 19.9545H133.588L134.637 14.0502C134.653 13.8849 134.684 13.7497 134.684 13.5994C134.684 12.728 134.166 12.3073 133.345 12.3073C131.929 12.3073 130.971 13.6295 130.743 15.0266L129.861 19.9545H127.533L128.567 14.0502C128.583 13.8999 128.613 13.7346 128.613 13.5844C128.613 12.8331 128.233 12.3073 127.381 12.3073C125.875 12.3073 124.932 13.6745 124.688 15.0116L123.822 19.9695H121.478L123.152 10.4895H124.719L124.932 11.9919C125.723 10.9101 126.863 10.234 128.203 10.234C129.587 10.234 130.469 10.865 130.759 11.9317C131.625 10.85 132.721 10.234 134.197 10.234C136.007 10.219 137.087 11.2857 137.087 13.0285Z" fill="white"/>
<path d="M142.062 16.4842C141.605 16.4842 141.225 16.4692 140.906 16.4241C141.119 17.641 142.031 18.3171 143.4 18.3171C144.374 18.3171 145.166 18.1218 146.048 17.596L146.763 19.2035C145.561 19.8796 144.36 20.1951 142.929 20.1951C140.328 20.1951 138.533 18.4974 138.533 16.0786C138.533 12.8034 140.936 10.2192 144.208 10.2192C146.291 10.2192 147.6 11.3009 147.6 12.9986C147.615 15.5528 144.876 16.4842 142.062 16.4842ZM141.895 14.8466C143.552 14.8466 145.439 14.486 145.439 13.1639C145.439 12.4578 144.907 12.1273 144.131 12.1273C142.534 12.1273 141.332 13.3442 140.967 14.8015C141.195 14.8316 141.5 14.8466 141.895 14.8466Z" fill="white"/>
<path d="M29.317 0.138184L20.326 9.64829L21.7258 11.8268L28.9368 4.22467L40.6661 22.4186H38.0647L28.4956 7.57499L22.8363 13.5545L24.2511 15.748L28.1152 11.6464L36.665 24.9276H45.291L29.317 0.138184Z" fill="white"/>
<path d="M23.445 16.5752L22.0302 14.3817L20.9196 12.6689L19.5048 10.4754L18.6832 9.1984L12.8871 0.184082L3.3027 10.2951C3.27228 10.3252 3.24185 10.3552 3.21142 10.4003C2.43555 11.2416 0.91423 12.9844 0.275275 15.3282C0.0927168 15.9892 -0.0137756 16.7104 0.00143758 17.4615C0.00143758 18.2427 0.123143 19.0691 0.39698 19.9255C0.5339 20.3461 0.701245 20.7818 0.91423 21.2174C0.975083 21.3377 1.03594 21.473 1.112 21.5931C1.24892 21.8485 1.40105 22.1039 1.58361 22.3443C1.93351 22.8251 2.35949 23.2757 2.84631 23.6814C3.66781 24.3725 4.65668 24.9584 5.75203 25.3791C6.01066 25.4692 6.25406 25.5594 6.52791 25.6495C6.84738 25.7397 7.18207 25.8299 7.51676 25.9049C7.62326 25.935 7.72974 25.95 7.83623 25.9651C7.89709 25.98 7.95795 25.9801 8.01879 25.995C8.09486 26.0101 8.17093 26.0101 8.23178 26.0251C8.30785 26.0402 8.38391 26.0402 8.47519 26.0552C8.62732 26.0702 8.77945 26.0853 8.93158 26.1003C9.23586 26.1303 9.5249 26.1303 9.81396 26.1303C10.1486 26.1303 10.4833 26.1153 10.8028 26.0853C10.8789 26.0702 10.9702 26.0702 11.0462 26.0552C11.2136 26.0402 11.3657 26.0101 11.533 25.9801C11.6091 25.9651 11.7004 25.95 11.7764 25.935C11.8525 25.92 11.9438 25.9049 12.0199 25.8899C12.1872 25.8598 12.3394 25.8148 12.4915 25.7848C12.598 25.7547 12.6893 25.7246 12.7958 25.7096C13.0847 25.6195 13.389 25.5294 13.6781 25.4092C14.6518 25.0186 15.595 24.4927 16.447 23.8015C16.8272 23.5012 17.1771 23.1556 17.5118 22.8101L16.1122 20.6316L15.5645 21.2025C15.4276 21.3527 15.2755 21.5029 15.1081 21.6532C14.241 22.3894 13.3586 22.8701 12.4915 23.1706C12.3546 23.2157 12.2329 23.2607 12.1111 23.2908C12.0503 23.3058 11.9742 23.3208 11.9134 23.3509C11.8221 23.381 11.7308 23.3959 11.6395 23.426C11.4569 23.4711 11.2744 23.5012 11.0919 23.5311C11.0006 23.5462 10.9093 23.5612 10.8332 23.5612C10.7572 23.5762 10.6659 23.5762 10.5898 23.5913H10.5746C10.3008 23.6213 10.0269 23.6364 9.76832 23.6364C9.64661 23.6364 9.5249 23.6364 9.4032 23.6213C9.2815 23.6213 9.175 23.6063 9.06851 23.6063C8.99244 23.6063 8.93158 23.5913 8.85552 23.5913C8.70339 23.5762 8.55126 23.5612 8.41434 23.5311C8.06443 23.4711 7.72974 23.3959 7.39506 23.2908C5.5999 22.7649 4.04815 21.6983 3.36355 20.4663C3.36355 20.4513 3.34834 20.4513 3.34834 20.4362C3.13535 20.0156 2.95279 19.6099 2.81588 19.2043C2.64853 18.6935 2.55726 18.1677 2.54205 17.6569C2.46598 15.839 3.31791 14.006 5.15871 12.0079C5.17393 11.9928 5.17393 11.9928 5.18914 11.9778L12.4915 4.25555L20.9348 17.3714L24.1752 22.4194H21.589L13.4803 9.79935L12.0655 7.60587L5.96502 14.0511C5.3717 14.8173 4.74796 15.914 4.74796 17.1761C4.74796 17.6569 4.83924 18.1677 5.06744 18.6785C5.15871 18.9038 5.28042 19.1142 5.41734 19.3395C6.10193 20.4362 7.22771 21.2174 8.58168 21.533C8.71861 21.5631 8.87074 21.5931 9.00765 21.6082C9.29671 21.6532 9.58576 21.6682 9.8748 21.6682C10.1639 21.6682 10.4529 21.6532 10.742 21.6082C10.7572 21.6082 10.7572 21.6082 10.7724 21.6082C12.0807 21.4278 13.2673 20.7818 14.1802 19.8203L15.032 18.9188L13.6325 16.7404C13.2217 17.1761 12.7501 17.6868 12.385 18.0625C11.7764 18.7085 10.9549 19.1292 10.0726 19.1742C9.76832 19.1892 9.46406 19.1593 9.175 19.0991C8.49041 18.9338 7.92752 18.5583 7.60804 18.0325C7.15164 17.2962 7.22771 16.6051 7.95795 15.6586L7.97316 15.6436L11.7308 11.6773L13.815 14.9225L19.3831 23.5612L20.2654 24.9284H28.8913L24.3273 17.8521L23.445 16.5752Z" fill="white"/>
</g>
<defs>
<clipPath id="clip0">
<rect width="147.6" height="26.4" fill="white"/>
</clipPath>
</defs>
</svg>
