<svg width="222" height="50" viewBox="0 0 222 50" fill="none" xmlns="http://www.w3.org/2000/svg">
<g clip-path="url(#clip0)">
<path d="M33.7526 5.24365C27.5019 5.24365 22.4192 10.3493 22.4192 16.6277C22.4192 22.9063 27.5019 28.012 33.7526 28.012C40.0031 28.012 45.0861 22.9063 45.0861 16.6277C45.0861 10.3493 40.0031 5.24365 33.7526 5.24365ZM33.7526 23.8377C29.7687 23.8377 26.5403 20.595 26.5403 16.5933C26.5403 12.5916 29.7687 9.34884 33.7526 9.34884C37.7365 9.34884 40.9647 12.5916 40.9647 16.5933C40.9647 20.595 37.7365 23.8377 33.7526 23.8377Z" fill="#BDBDBD"/>
<path d="M161.853 27.9774C161.957 27.9774 162.06 27.9774 162.163 27.9774C164.155 27.9774 166.113 27.46 167.831 26.4596C168.826 25.8731 169.134 24.6311 168.585 23.6308C168.002 22.6304 166.766 22.2853 165.77 22.8718C164.636 23.5273 163.296 23.8723 161.957 23.8376C158.248 23.7342 154.984 20.388 154.95 16.6623C154.95 14.6614 155.706 12.8331 157.114 11.4187C158.523 10.0388 160.378 9.31431 162.369 9.3833C166.113 9.4868 169.203 12.626 169.341 16.3863V19.2151C169.341 22.1129 170.371 24.9071 172.26 27.115C173.016 27.9774 174.321 28.0809 175.179 27.322C176.039 26.563 176.141 25.2522 175.386 24.3896C174.149 22.9409 173.463 21.1124 173.463 19.1805V16.3173C173.463 16.2829 173.463 16.2829 173.463 16.2482C173.291 10.2457 168.481 5.3816 162.506 5.20912C159.382 5.10562 156.462 6.24404 154.229 8.41738C151.998 10.5907 150.795 13.523 150.795 16.6278C150.898 22.6647 155.947 27.8394 161.853 27.9774Z" fill="#BDBDBD"/>
<path d="M189.124 27.9773C192.145 27.9773 194.997 26.8044 197.126 24.6311C197.916 23.8376 197.916 22.5267 197.126 21.6989C196.336 20.9054 195.031 20.9054 194.206 21.6989C192.832 23.0787 191.047 23.8032 189.124 23.8032C185.14 23.8032 181.912 20.5604 181.912 16.5587C181.912 12.5569 185.14 9.31424 189.124 9.31424C190.842 9.31424 192.524 9.9352 193.828 11.0736C194.687 11.8326 195.993 11.7291 196.748 10.8666C197.504 10.0042 197.401 8.69329 196.542 7.93435C194.481 6.14048 191.872 5.17456 189.158 5.17456C182.908 5.17456 177.824 10.2802 177.824 16.5587C177.824 22.8373 182.908 27.9773 189.124 27.9773Z" fill="#BDBDBD"/>
<path d="M49.8256 5.45068C48.6922 5.45068 47.7649 6.38212 47.7649 7.52053V25.6316C47.7649 26.7701 48.6922 27.7015 49.8256 27.7015C50.9588 27.7015 51.8861 26.7701 51.8861 25.6316V7.52053C51.8861 6.38212 50.9588 5.45068 49.8256 5.45068Z" fill="#BDBDBD"/>
<path d="M119.064 5.45068C117.93 5.45068 117.003 6.38212 117.003 7.52053V25.6316C117.003 26.7701 117.93 27.7015 119.064 27.7015C120.197 27.7015 121.125 26.7701 121.125 25.6316V7.52053C121.125 6.38212 120.197 5.45068 119.064 5.45068Z" fill="#BDBDBD"/>
<path d="M64.4892 5.10547C59.9901 5.10547 55.3538 8.34824 55.3538 13.7643V25.7005C55.3538 26.8389 56.2811 27.7703 57.4144 27.7703C58.5477 27.7703 59.475 26.8389 59.475 25.7005V13.7299C59.475 10.6251 62.3941 9.21068 64.4892 9.21068C66.5498 9.21068 69.4003 10.6251 69.4003 13.7299V25.666C69.4003 26.8043 70.3276 27.7358 71.461 27.7358C72.5943 27.7358 73.5215 26.8043 73.5215 25.666V13.7299C73.556 8.31374 68.9539 5.10547 64.4892 5.10547Z" fill="#BDBDBD"/>
<path d="M113.74 6.62366C112.194 5.62324 110.339 5.07129 108.519 5.07129C104.02 5.07129 99.3833 8.31404 99.3833 13.7301V25.6662C99.3833 26.8046 100.311 27.7361 101.444 27.7361C102.577 27.7361 103.505 26.8046 103.505 25.6662V13.6957C103.505 10.5909 106.424 9.17647 108.519 9.17647C109.549 9.17647 110.614 9.48695 111.473 10.0734C112.434 10.6944 113.705 10.4184 114.322 9.48695C114.941 8.52103 114.7 7.24462 113.74 6.62366Z" fill="#BDBDBD"/>
<path d="M17.8516 0C16.7181 0 15.7908 0.931431 15.7908 2.06984V17.4557C15.7908 22.1817 12.7342 23.8377 10.1242 23.8377C7.51403 23.8377 4.45744 22.1817 4.45744 17.4557C4.45744 16.3172 3.53015 15.3858 2.39681 15.3858C1.26346 15.3858 0.336182 16.3172 0.336182 17.4557C0.336182 24.3552 5.24734 27.9773 10.1242 27.9773C15.001 27.9773 19.9122 24.3896 19.9122 17.4557V2.06984C19.9122 0.931431 18.9849 0 17.8516 0Z" fill="#BDBDBD"/>
<path d="M138.363 27.46C138.363 27.46 138.397 27.46 138.363 27.46C139.152 27.46 139.84 27.0116 140.183 26.3216L149.388 8.24498C149.903 7.24456 149.49 5.96815 148.494 5.45069C147.498 4.93323 146.228 5.3472 145.713 6.34763L138.294 20.9056L131.528 8.1415C130.875 6.89958 129.812 6.03715 128.473 5.65768C127.133 5.27821 125.759 5.4507 124.557 6.10615C123.56 6.65809 123.217 7.93451 123.801 8.93493C124.351 9.93536 125.621 10.2803 126.618 9.69387C126.927 9.52138 127.201 9.55589 127.339 9.62488C127.476 9.65937 127.716 9.76287 127.888 10.0733L136.508 26.3562C136.922 27.0461 137.608 27.46 138.363 27.46Z" fill="#BDBDBD"/>
<path d="M86.986 0.0344974H80.0485C79.9455 0 79.8081 0 79.7051 0C79.602 0 79.4647 0 79.3616 0.0344974H77.0607C75.9273 0.0344974 75 0.965927 75 2.10435C75 3.24275 75.9273 4.17418 77.0607 4.17418H77.6445V25.5971C77.6445 26.7354 78.5718 27.6668 79.7051 27.6668C80.8385 27.6668 81.7658 26.7354 81.7658 25.5971V4.17418H86.986C90.0426 4.17418 92.6184 7.10647 92.6184 10.5907C92.6184 13.4539 89.8022 16.4208 87.0204 16.4208C85.8869 16.4208 84.9596 17.3522 84.9596 18.4907C84.9596 19.629 85.8869 20.5604 87.0204 20.5604C92.1031 20.5604 96.7396 15.7999 96.7396 10.5907C96.7396 4.76064 92.378 0.0344974 86.986 0.0344974Z" fill="#BDBDBD"/>
<path d="M217.662 5.24365C216.529 5.24365 215.602 6.17508 215.602 7.3135V19.3876C215.602 21.768 212.992 23.8377 210.004 23.8377C207.085 23.8377 204.406 21.699 204.406 19.3876V7.3135C204.406 6.17508 203.479 5.24365 202.345 5.24365C201.211 5.24365 200.285 6.17508 200.285 7.3135V19.3876C200.285 23.9758 204.818 27.9774 210.004 27.9774C211.206 27.9774 212.374 27.7705 213.474 27.391C212.89 28.5294 212.202 29.6678 211.446 30.7373C210.794 31.6687 210.965 32.945 211.893 33.635C212.271 33.911 212.683 34.0145 213.095 34.0145C213.748 34.0145 214.366 33.704 214.778 33.152C217.972 28.7019 219.757 23.8033 219.757 19.3532V7.27901C219.723 6.17508 218.796 5.24365 217.662 5.24365Z" fill="#BDBDBD"/>
<path d="M207.017 35.4978C206.742 35.7047 206.501 35.9118 206.227 36.1187C187.406 50.3662 152.238 48.7448 135.204 32.807C134.38 32.0136 133.074 32.0826 132.284 32.9105C131.494 33.7385 131.563 35.0493 132.388 35.8428C141.316 44.2257 155.123 49.3312 170.235 49.9177C171.196 49.9521 172.192 49.9866 173.154 49.9866C186.925 49.9866 199.737 46.1919 208.699 39.4305C209.009 39.189 209.317 38.9476 209.626 38.7061C210.52 37.9815 210.623 36.6707 209.901 35.8083C209.18 34.8768 207.876 34.7389 207.017 35.4978Z" fill="#BDBDBD"/>
<path d="M16.9594 39.7069C16.9594 40.5003 16.3413 41.1557 15.5513 41.1902C15.517 41.1902 15.6888 41.1902 13.5595 41.1902C13.3534 41.1902 13.1816 41.0178 13.1816 40.8108V36.2571C13.1816 36.0501 13.3534 35.8777 13.5595 35.8777C13.5595 35.8777 13.3877 35.8777 15.0019 35.8777C15.7919 35.9121 16.4786 36.5676 16.4786 37.3956C16.4786 37.7405 16.3413 38.0856 16.1352 38.327C16.6161 38.6029 16.9594 39.1204 16.9594 39.7069ZM14.9332 36.6365H13.9028V38.1545H14.9332C15.3797 38.1545 15.7231 37.8094 15.7231 37.3956C15.7231 36.9816 15.3453 36.6365 14.9332 36.6365ZM16.2039 39.7069C16.2039 39.3274 15.8605 38.9479 15.4483 38.9479H13.9028V40.4314H15.4827C15.8605 40.4314 16.2039 40.0863 16.2039 39.7069Z" fill="#BDBDBD"/>
<path d="M22.2814 40.7759C22.2814 40.9828 22.1097 41.1553 21.9036 41.1553H19.2935C19.0876 41.1553 18.9158 40.9828 18.9158 40.7759V36.2222C18.9158 36.0152 19.0876 35.8428 19.2935 35.8428H21.9036C22.1097 35.8428 22.2814 36.0152 22.2814 36.2222C22.2814 36.4292 22.1097 36.6016 21.9036 36.6016H19.637V38.1196H21.3542C21.5602 38.1196 21.732 38.2921 21.732 38.499C21.732 38.7059 21.5602 38.8785 21.3542 38.8785H19.637V40.3618H21.9036C22.1097 40.3964 22.2814 40.5689 22.2814 40.7759Z" fill="#BDBDBD"/>
<path d="M28.2574 35.8428H31.2797C31.4858 35.8428 31.6574 36.0152 31.6574 36.2222C31.6574 36.4292 31.4858 36.6016 31.2797 36.6016H30.1463V40.8103C30.1463 41.0174 29.9746 41.1899 29.7685 41.1899C29.5624 41.1899 29.3908 41.0174 29.3908 40.8103V36.6016H28.2574C28.0513 36.6016 27.8796 36.4292 27.8796 36.2222C27.8796 36.0152 28.017 35.8428 28.2574 35.8428Z" fill="#BDBDBD"/>
<path d="M37.4627 36.2566V40.8103C37.4627 41.0174 37.291 41.1897 37.0849 41.1897C36.8789 41.1897 36.7071 41.0174 36.7071 40.8103V38.9475H34.3717V40.8103C34.3717 41.0174 34.2001 41.1897 33.994 41.1897C33.788 41.1897 33.6162 41.0174 33.6162 40.8103V36.2566C33.6162 36.0497 33.788 35.8772 33.994 35.8772C34.2001 35.8772 34.3717 36.0497 34.3717 36.2566V38.154H36.7071V36.2566C36.7071 36.0497 36.8789 35.8772 37.0849 35.8772C37.291 35.8772 37.4627 36.0497 37.4627 36.2566Z" fill="#BDBDBD"/>
<path d="M42.8202 40.7759C42.8202 40.9828 42.6485 41.1553 42.4425 41.1553H39.8322C39.6263 41.1553 39.4546 40.9828 39.4546 40.7759V36.2222C39.4546 36.0152 39.6263 35.8428 39.8322 35.8428H42.4425C42.6485 35.8428 42.8202 36.0152 42.8202 36.2222C42.8202 36.4292 42.6485 36.6016 42.4425 36.6016H40.1758V38.1196H41.893C42.099 38.1196 42.2707 38.2921 42.2707 38.499C42.2707 38.7059 42.099 38.8785 41.893 38.8785H40.1758V40.3618H42.4425C42.6485 40.3964 42.8202 40.5689 42.8202 40.7759Z" fill="#BDBDBD"/>
<path d="M48.5903 39.2579V36.2912C48.5903 36.0841 48.762 35.9116 48.9681 35.9116C49.1742 35.9116 49.3458 36.0841 49.3458 36.2912V39.2579C49.3458 39.8788 49.861 40.3963 50.4791 40.3963C51.0973 40.3963 51.6125 39.8788 51.6125 39.2579V36.2912C51.6125 36.0841 51.7842 35.9116 51.9902 35.9116C52.1963 35.9116 52.3681 36.0841 52.3681 36.2912V39.2579C52.3681 40.3272 51.5094 41.1552 50.4791 41.1552C49.4488 41.1898 48.5903 40.3272 48.5903 39.2579Z" fill="#BDBDBD"/>
<path d="M58.0329 41.1208C57.9643 41.1553 57.8957 41.1899 57.827 41.1899C57.6896 41.1899 57.5865 41.1208 57.5178 41.0174L55.0451 37.4641V40.8449C55.0451 41.0518 54.8733 41.2243 54.6673 41.2243C54.4612 41.2243 54.2896 41.0518 54.2896 40.8449V36.2912C54.2896 36.1532 54.3239 36.0152 54.4612 35.9117C54.633 35.8081 54.8733 35.8428 54.9763 36.0152L57.4492 39.6719V36.2222C57.4492 36.0152 57.6209 35.8428 57.827 35.8428C58.0329 35.8428 58.2047 36.0152 58.2047 36.2222V40.7759C58.239 40.9138 58.1704 41.0518 58.0329 41.1208Z" fill="#BDBDBD"/>
<path d="M63.5628 41.1208C63.494 41.1899 63.4253 41.1899 63.3222 41.1899C63.2192 41.1899 63.1161 41.1553 63.0475 41.0518L61.3989 38.844L60.9182 39.327V40.7759C60.9182 40.9828 60.7464 41.1553 60.5404 41.1553C60.3344 41.1553 60.1626 40.9828 60.1626 40.7759V36.2222C60.1626 36.0152 60.3344 35.8428 60.5404 35.8428C60.7464 35.8428 60.9182 36.0152 60.9182 36.2222V38.2921L63.0131 36.0496C63.1506 35.8772 63.3567 35.8428 63.5283 35.9807C63.7 36.1187 63.7343 36.3257 63.597 36.4982L61.9141 38.3265L63.6313 40.6034C63.7343 40.7414 63.7343 40.9828 63.5628 41.1208Z" fill="#BDBDBD"/>
<path d="M69.4016 41.1208C69.3328 41.1553 69.2642 41.1899 69.1955 41.1899C69.0581 41.1899 68.9551 41.1208 68.8864 41.0174L66.4136 37.4641V40.8449C66.4136 41.0518 66.2419 41.2243 66.0358 41.2243C65.8297 41.2243 65.658 41.0518 65.658 40.8449V36.2912C65.658 36.1532 65.6924 36.0152 65.8297 35.9117C66.0015 35.8081 66.2419 35.8428 66.3449 36.0152L68.8176 39.6719V36.2222C68.8176 36.0152 68.9894 35.8428 69.1955 35.8428C69.4016 35.8428 69.5733 36.0152 69.5733 36.2222V40.7759C69.6076 40.9138 69.5388 41.0518 69.4016 41.1208Z" fill="#BDBDBD"/>
<path d="M71.4966 38.499C71.4966 37.0846 72.6643 35.8772 74.1068 35.8772C75.5492 35.8772 76.7168 37.0846 76.7168 38.499C76.7168 39.9479 75.5492 41.1553 74.1068 41.1553C72.6643 41.1553 71.4966 39.9479 71.4966 38.499ZM72.2521 38.499C72.2521 39.5684 73.1108 40.4309 74.1411 40.4309C75.1713 40.4309 76.0299 39.5684 76.0299 38.499C76.0299 37.464 75.1713 36.6016 74.1411 36.6016C73.0765 36.6016 72.2521 37.464 72.2521 38.499Z" fill="#BDBDBD"/>
<path d="M84.9934 36.3602L83.2418 40.9485C83.1731 41.0865 83.0357 41.19 82.8984 41.19C82.7266 41.19 82.5892 41.0865 82.5549 40.9485L81.7307 38.8096L80.9064 40.9485C80.8377 41.0865 80.7005 41.19 80.563 41.19C80.3913 41.19 80.2539 41.0865 80.2195 40.9485L78.5366 36.3948C78.468 36.1879 78.571 35.9808 78.7427 35.9119C78.9488 35.8428 79.1549 35.9464 79.2235 36.1187L80.563 39.741L81.3872 37.6021C81.456 37.4642 81.5932 37.3608 81.7307 37.3608C81.9023 37.3608 82.0398 37.4642 82.0741 37.6021L82.8984 39.741L84.3065 36.0843C84.3752 35.8772 84.5813 35.7738 84.7873 35.8772C84.9589 35.9464 85.062 36.1534 84.9934 36.3602Z" fill="#BDBDBD"/>
<path d="M90.5224 41.1208C90.4538 41.1553 90.3852 41.1899 90.3164 41.1899C90.1791 41.1899 90.076 41.1208 90.0073 41.0174L87.5346 37.4641V40.8449C87.5346 41.0518 87.3628 41.2243 87.1567 41.2243C86.9507 41.2243 86.7791 41.0518 86.7791 40.8449V36.2912C86.7791 36.1532 86.8134 36.0152 86.9507 35.9117C87.1224 35.8081 87.3628 35.8428 87.4658 36.0152L89.9387 39.6719V36.2222C89.9387 36.0152 90.1104 35.8428 90.3164 35.8428C90.5224 35.8428 90.6942 36.0152 90.6942 36.2222V40.7759C90.6942 40.9138 90.6255 41.0518 90.5224 41.1208Z" fill="#BDBDBD"/>
</g>
<defs>
<clipPath id="clip0">
<rect width="222" height="49.9868" fill="white"/>
</clipPath>
</defs>
</svg>
