<svg width="238" height="42" viewBox="0 0 238 42" fill="none" xmlns="http://www.w3.org/2000/svg">
<g clip-path="url(#clip0)">
<path d="M164.795 31.6503V31.7458H160.537L158.604 27.5869H147.594L145.661 31.7458H141.379V31.6742L153.099 7.34229L164.795 31.6503ZM151.509 18.9584L148.939 24.432H157.234L154.665 18.9584C154.102 17.7395 153.637 16.5205 153.075 15.0386C152.561 16.5205 152.071 17.7156 151.509 18.9584Z" fill="white"/>
<path d="M79.8418 30.0502L81.7502 27.0147C83.1693 28.0903 84.5885 28.6401 86.2767 28.6401C88.8705 28.6401 90.2162 27.182 90.2162 24.314V8.75391H94.3024V24.314C94.3024 29.5243 91.562 32.2014 86.5459 32.2014C83.83 32.1775 81.6768 31.4127 79.8418 30.0502Z" fill="white"/>
<path d="M111.845 16.6641V31.7461H109.203L108.444 29.4036C107.416 31.029 105.704 32.0328 103.526 32.0328C99.7823 32.0328 97.9473 29.6904 97.9473 25.9857V16.6641H101.764V25.6511C101.764 27.5154 102.498 28.7343 104.456 28.7343C106.805 28.7343 108.053 26.7745 108.053 24.4799V16.6641H111.845Z" fill="white"/>
<path d="M115.1 30.4314L116.592 27.8261C117.914 28.6387 119.357 29.069 120.825 29.069C122.22 29.069 123.101 28.4715 123.101 27.5153C123.101 26.3919 121.657 25.8662 120.116 25.2926C117.669 24.3843 115.76 23.1176 115.76 20.6556C115.76 17.8831 118.28 16.425 121.217 16.425C122.978 16.425 124.618 16.8314 126.282 17.7874L124.96 20.2493C123.81 19.6758 122.562 19.365 121.535 19.365C120.36 19.365 119.357 19.6995 119.357 20.6556C119.357 21.6355 120.507 22.2093 122.171 22.7828C124.862 23.7629 126.82 25.0057 126.82 27.5153C126.82 30.3118 124.495 32.0806 121.119 32.0806C118.794 32.0806 116.886 31.5309 115.1 30.4314Z" fill="white"/>
<path d="M131.053 27.1329V19.8191L128.312 19.6279V16.6641H131.053L131.151 11.8359H134.821V16.6641H139.592V19.8191H134.821V26.7745C134.821 28.2564 135.506 28.7105 136.509 28.7105C137.415 28.7105 138.247 28.4715 139.103 27.9216L140.326 30.6944C138.907 31.5787 137.415 32.0805 135.653 32.0805C132.888 32.0805 131.053 30.5269 131.053 27.1329Z" fill="white"/>
<path d="M166.018 30.4314L167.51 27.8261C168.831 28.6387 170.275 29.069 171.743 29.069C173.138 29.069 174.019 28.4715 174.019 27.5153C174.019 26.3919 172.575 25.8662 171.033 25.2926C168.587 24.3843 166.678 23.1176 166.678 20.6556C166.678 17.8831 169.198 16.425 172.135 16.425C173.896 16.425 175.536 16.8314 177.199 17.7874L175.878 20.2493C174.728 19.6758 173.48 19.365 172.453 19.365C171.278 19.365 170.275 19.6995 170.275 20.6556C170.275 21.6355 171.425 22.2093 173.089 22.7828C175.78 23.7629 177.738 25.0057 177.738 27.5153C177.738 30.3118 175.413 32.0806 172.037 32.0806C169.712 32.0806 167.828 31.5309 166.018 30.4314Z" fill="white"/>
<path d="M194.034 31.532V31.7232H189.679L184.149 25.3175V31.7471H180.381V7.39136H184.149V22.6406L189.262 16.6652H193.521V16.8325L187.403 23.9552L194.034 31.532Z" fill="white"/>
<path d="M220.484 20.7274C220.484 21.2055 220.458 21.6836 220.336 22.1854L218.599 31.7461H214.856L216.543 22.3528C216.569 22.0899 216.618 21.8748 216.618 21.6357C216.618 20.2494 215.785 19.5801 214.465 19.5801C212.188 19.5801 210.647 21.6836 210.28 23.9063L208.861 31.7461H205.117L206.781 22.3528C206.807 22.1138 206.854 21.8509 206.854 21.6118C206.854 20.4166 206.242 19.5801 204.873 19.5801C202.451 19.5801 200.934 21.7552 200.541 23.8824L199.148 31.77H195.379L198.071 16.6881H200.591L200.934 19.0783C202.207 17.3573 204.04 16.2817 206.195 16.2817C208.421 16.2817 209.84 17.2856 210.305 18.9826C211.699 17.2617 213.461 16.2817 215.835 16.2817C218.746 16.2578 220.484 17.9549 220.484 20.7274Z" fill="white"/>
<path d="M228.484 26.2248C227.75 26.2248 227.138 26.2009 226.625 26.1291C226.968 28.0651 228.435 29.1407 230.637 29.1407C232.204 29.1407 233.477 28.8301 234.895 27.9936L236.046 30.551C234.112 31.6266 232.18 32.1286 229.879 32.1286C225.696 32.1286 222.809 29.4276 222.809 25.5795C222.809 20.3689 226.674 16.2578 231.935 16.2578C235.286 16.2578 237.392 17.9787 237.392 20.6795C237.415 24.7429 233.011 26.2248 228.484 26.2248ZM228.216 23.6195C230.882 23.6195 233.917 23.0458 233.917 20.9425C233.917 19.8191 233.06 19.2934 231.813 19.2934C229.244 19.2934 227.31 21.2294 226.724 23.5478C227.091 23.5956 227.58 23.6195 228.216 23.6195Z" fill="white"/>
<path d="M47.152 0.219727L32.6914 15.3494L34.9426 18.8152L46.5404 6.72096L65.4052 35.6658H61.2213L45.8308 12.051L36.7287 21.5638L39.0042 25.0535L45.2191 18.5283L58.9701 39.6574H72.8436L47.152 0.219727Z" fill="white"/>
<path d="M37.7076 26.3692L35.4321 22.8796L33.6458 20.1547L31.3703 16.6651L30.049 14.6334L20.7268 0.29248L5.31187 16.3783C5.26295 16.4261 5.21401 16.4739 5.16507 16.5456C3.91719 17.8841 1.47039 20.6567 0.442737 24.3854C0.14912 25.437 -0.0221559 26.5843 0.00231212 27.7793C0.00231212 29.0222 0.198056 30.3368 0.63848 31.6992C0.858694 32.3685 1.12784 33.0617 1.47039 33.7547C1.56827 33.946 1.66614 34.1611 1.78848 34.3523C2.0087 34.7586 2.25337 35.1649 2.54699 35.5473C3.10975 36.3123 3.79486 37.0292 4.57784 37.6745C5.8991 38.774 7.48953 39.7062 9.25123 40.3755C9.6672 40.5188 10.0587 40.6624 10.4991 40.8057C11.0129 40.9491 11.5512 41.0926 12.0895 41.212C12.2608 41.2599 12.4321 41.2838 12.6033 41.3077C12.7012 41.3315 12.7991 41.3316 12.897 41.3554C13.0193 41.3793 13.1417 41.3793 13.2395 41.4032C13.3619 41.4271 13.4842 41.4271 13.631 41.4511C13.8757 41.475 14.1204 41.4989 14.365 41.5228C14.8544 41.5705 15.3193 41.5705 15.7842 41.5705C16.3225 41.5705 16.8608 41.5467 17.3746 41.4989C17.497 41.475 17.6438 41.475 17.7661 41.4511C18.0353 41.4271 18.2799 41.3793 18.549 41.3316C18.6714 41.3077 18.8182 41.2838 18.9405 41.2599C19.0629 41.236 19.2097 41.212 19.3321 41.1881C19.6012 41.1403 19.8459 41.0687 20.0906 41.0208C20.2619 40.973 20.4087 40.9251 20.58 40.9012C21.0447 40.7579 21.5341 40.6145 21.9991 40.4233C23.5651 39.8019 25.082 38.9652 26.4523 37.8657C27.0639 37.3878 27.6267 36.838 28.165 36.2883L25.914 32.8226L25.0331 33.7309C24.8129 33.9698 24.5682 34.2088 24.299 34.4478C22.9044 35.6191 21.4852 36.3839 20.0906 36.8619C19.8704 36.9337 19.6746 37.0053 19.4789 37.0531C19.381 37.077 19.2586 37.101 19.1608 37.1488C19.0139 37.1966 18.8671 37.2204 18.7203 37.2682C18.4267 37.34 18.1331 37.3878 17.8395 37.4355C17.6927 37.4594 17.5459 37.4833 17.4236 37.4833C17.3012 37.5073 17.1544 37.5073 17.0321 37.5312H17.0076C16.5672 37.579 16.1267 37.6029 15.7108 37.6029C15.5151 37.6029 15.3193 37.6029 15.1236 37.579C14.9278 37.579 14.7565 37.5551 14.5853 37.5551C14.4629 37.5551 14.365 37.5312 14.2427 37.5312C13.998 37.5073 13.7534 37.4833 13.5331 37.4355C12.9704 37.34 12.4321 37.2204 11.8938 37.0531C9.00655 36.2166 6.5108 34.5196 5.40975 32.5597C5.40975 32.5357 5.38528 32.5357 5.38528 32.5118C5.04272 31.8426 4.7491 31.1972 4.5289 30.5519C4.25975 29.7393 4.11295 28.9027 4.08848 28.0901C3.96613 25.198 5.33634 22.2819 8.29697 19.103C8.32144 19.0791 8.32144 19.0791 8.34591 19.0552L20.0906 6.76982L33.6703 27.636L38.882 35.6669H34.7225L21.6809 15.5895L19.4055 12.0999L9.59379 22.3537C8.63953 23.5726 7.63635 25.3174 7.63635 27.3252C7.63635 28.0901 7.78315 28.9027 8.15017 29.7153C8.29697 30.0738 8.49273 30.4085 8.71294 30.767C9.81399 32.5118 11.6246 33.7547 13.8023 34.2566C14.0225 34.3045 14.2672 34.3523 14.4874 34.3763C14.9523 34.4478 15.4172 34.4718 15.8821 34.4718C16.347 34.4718 16.8119 34.4478 17.2768 34.3763C17.3012 34.3763 17.3012 34.3763 17.3257 34.3763C19.4299 34.0894 21.3384 33.0617 22.8065 31.5319L24.1767 30.0977L21.9256 26.632C21.265 27.3252 20.5066 28.1378 19.9193 28.7355C18.9405 29.7632 17.6193 30.4325 16.2001 30.504C15.7108 30.528 15.2214 30.4803 14.7565 30.3846C13.6555 30.1217 12.7502 29.5242 12.2363 28.6876C11.5023 27.5164 11.6246 26.4169 12.7991 24.9111L12.8236 24.8872L18.8671 18.5771L22.2193 23.74L31.1746 37.4833L32.5936 39.6584H46.4672L39.1267 28.4007L37.7076 26.3692Z" fill="white"/>
</g>
<defs>
<clipPath id="clip0">
<rect width="237.391" height="42" fill="white"/>
</clipPath>
</defs>
</svg>
