<svg width="158" height="50" viewBox="0 0 158 50" fill="none" xmlns="http://www.w3.org/2000/svg">
<g clip-path="url(#clip0)">
<path d="M50.4568 39.4602V11.4741C50.4568 10.8469 50.7736 10.5359 51.4019 10.5359H54.9642C55.5198 10.5359 55.9352 10.8629 56.2156 11.517L63.9116 30.1851L64.3271 30.2226L71.8357 11.5116C72.0902 10.8844 72.4797 10.5734 73.0094 10.5734H76.686C77.2416 10.5734 77.5219 10.8737 77.5219 11.4741V39.4602H74.2245V15.1143L73.8091 15.077L66.6065 33.3965C66.2795 34.2328 65.8485 34.651 65.3189 34.651H63.1222C62.5406 34.651 62.0628 34.2328 61.6838 33.3965L54.2528 15.1198H53.7595V39.4655H50.4568V39.4602Z" fill="#BDBDBD"/>
<path fill-rule="evenodd" clip-rule="evenodd" d="M103.185 27.0107V23.0595C103.185 14.7387 100.116 10.573 93.9729 10.573H91.3557C85.2125 10.573 82.1436 14.7334 82.1436 23.0595V27.0107C82.1436 35.3101 85.2125 39.4597 91.3557 39.4597H93.9729C100.116 39.4597 103.185 35.3101 103.185 27.0107ZM85.5969 23.1773C85.5969 16.9422 87.5026 13.822 91.3193 13.822H94.1235C97.8156 13.822 99.6591 16.9422 99.6591 23.1773V26.9357C99.6591 33.1977 97.8156 36.3286 94.1235 36.3286H91.3193C87.5026 36.3286 85.5969 33.1977 85.5969 26.9357V23.1773Z" fill="#BDBDBD"/>
<path d="M126.994 10.573V13.9773H118.655V39.5348H115.279V13.9828H106.254V10.5784H126.994V10.573Z" fill="#BDBDBD"/>
<path d="M134.275 10.6155V39.5398H130.977V10.6155H134.275Z" fill="#BDBDBD"/>
<path d="M143.825 10.573V32.2166C143.825 34.7471 144.24 36.0123 145.076 36.0123H157.549V39.4544H145.076C141.94 39.4544 140.376 37.0417 140.376 32.2113V10.573H143.825Z" fill="#BDBDBD"/>
<path d="M21.2927 16.2736C20.8233 16.2788 20.354 16.0962 19.9917 15.7415L4.64489 0.545582C3.92551 -0.163873 2.98675 -0.12214 2.32349 0.331702L21.2927 29.4871V16.2736Z" fill="#BDBDBD"/>
<path d="M40.2619 0.35C39.571 -0.122836 38.5921 -0.175373 37.8489 0.560149L22.617 15.6279C22.2507 15.9904 21.7691 16.1743 21.2927 16.1795V29.4871L40.2619 0.35Z" fill="#BCBCBC"/>
<path d="M39.4586 1.28223L21.2927 30.128V50.0002C21.9845 49.9949 22.6711 49.5944 22.972 48.7985L40.1254 3.52955C40.4812 2.59316 40.1003 1.74001 39.4586 1.28223Z" fill="#B7B6B6"/>
<path d="M1.91241 0C1.22973 0.467637 0.82324 1.36039 1.20888 2.32755L19.5164 48.7883C19.8394 49.6067 20.5691 50.0052 21.2934 50V29.7002L1.91241 0Z" fill="#9A9A9A"/>
</g>
<defs>
<clipPath id="clip0">
<rect width="158" height="50" fill="white"/>
</clipPath>
</defs>
</svg>
