<svg width="133" height="42" viewBox="0 0 133 42" fill="none" xmlns="http://www.w3.org/2000/svg">
<g clip-path="url(#clip0)">
<path d="M42.4727 33.1462V9.63797C42.4727 9.11106 42.7393 8.84985 43.2682 8.84985H46.2668C46.7346 8.84985 47.0842 9.12457 47.3202 9.674L53.7985 25.3551L54.1482 25.3867L60.4688 9.66949C60.683 9.14258 61.0109 8.88139 61.4568 8.88139H64.5516C65.0193 8.88139 65.2553 9.13358 65.2553 9.63797V33.1462H62.4796V12.6958L62.1299 12.6643L56.0671 28.0527C55.7917 28.7553 55.4289 29.1066 54.9831 29.1066H53.134C52.6444 29.1066 52.2423 28.7553 51.9232 28.0527L45.668 12.7003H45.2527V33.1508H42.4727V33.1462Z" fill="white"/>
<path fill-rule="evenodd" clip-rule="evenodd" d="M86.8567 22.689V19.37C86.8567 12.3805 84.2732 8.88135 79.1021 8.88135H76.899C71.7279 8.88135 69.1445 12.3761 69.1445 19.37V22.689C69.1445 29.6605 71.7279 33.1462 76.899 33.1462H79.1021C84.2732 33.1462 86.8567 29.6605 86.8567 22.689ZM72.0514 19.469C72.0514 14.2315 73.6556 11.6105 76.8684 11.6105H79.2289C82.3369 11.6105 83.8886 14.2315 83.8886 19.469V22.626C83.8886 27.8861 82.3369 30.5161 79.2289 30.5161H76.8684C73.6556 30.5161 72.0514 27.8861 72.0514 22.626V19.469Z" fill="white"/>
<path d="M106.9 8.88135V11.741H99.8798V33.2093H97.0385V11.7456H89.4414V8.88585H106.9V8.88135Z" fill="white"/>
<path d="M113.027 8.91724V33.2136H110.252V8.91724H113.027Z" fill="white"/>
<path d="M121.067 8.88135V27.062C121.067 29.1876 121.416 30.2504 122.12 30.2504H132.619V33.1417H122.12C119.48 33.1417 118.164 31.1151 118.164 27.0575V8.88135H121.067Z" fill="white"/>
<path d="M17.9228 13.6698C17.5277 13.6742 17.1326 13.5208 16.8276 13.2229L3.90917 0.458289C3.30362 -0.137653 2.5134 -0.102598 1.95508 0.27863L17.9228 24.7692V13.6698Z" fill="white"/>
<path d="M33.8916 0.294C33.3099 -0.103182 32.486 -0.147313 31.8604 0.470525L19.0386 13.1274C18.7302 13.4319 18.3248 13.5864 17.9238 13.5908V24.7692L33.8916 0.294Z" fill="#BCBCBC"/>
<path d="M33.2154 1.0769L17.9238 25.3074V42C18.5061 41.9956 19.0842 41.6591 19.3374 40.9906L33.7766 2.96465C34.0762 2.17809 33.7555 1.46144 33.2154 1.0769Z" fill="white"/>
<path d="M1.60852 0C1.03386 0.392815 0.691688 1.14273 1.01631 1.95514L16.427 40.9822C16.699 41.6696 17.3131 42.0044 17.9229 42V24.9482L1.60852 0Z" fill="#4B4B4B"/>
</g>
<defs>
<clipPath id="clip0">
<rect width="132" height="42" fill="white" transform="translate(0.890625)"/>
</clipPath>
</defs>
</svg>
