<svg width="52" height="50" viewBox="0 0 52 50" fill="none" xmlns="http://www.w3.org/2000/svg">
<path d="M10.26 5.22C11.26 3.66 12.64 2.4 14.4 1.44C16.16 0.48 18.22 0 20.58 0C23.34 0 25.84 0.7 28.08 2.1C30.32 3.5 32.08 5.5 33.36 8.1C34.68 10.7 35.34 13.72 35.34 17.16C35.34 20.6 34.68 23.64 33.36 26.28C32.08 28.88 30.32 30.9 28.08 32.34C25.84 33.74 23.34 34.44 20.58 34.44C18.26 34.44 16.2 33.96 14.4 33C12.64 32.04 11.26 30.8 10.26 29.28V49.92H0V0.480001H10.26V5.22ZM24.9 17.16C24.9 14.6 24.18 12.6 22.74 11.16C21.34 9.68 19.6 8.94 17.52 8.94C15.48 8.94 13.74 9.68 12.3 11.16C10.9 12.64 10.2 14.66 10.2 17.22C10.2 19.78 10.9 21.8 12.3 23.28C13.74 24.76 15.48 25.5 17.52 25.5C19.56 25.5 21.3 24.76 22.74 23.28C24.18 21.76 24.9 19.72 24.9 17.16Z" fill="#BDBDBD"/>
<path d="M45.5228 34.44C43.7228 34.44 42.2428 33.92 41.0828 32.88C39.9628 31.8 39.4028 30.48 39.4028 28.92C39.4028 27.32 39.9628 25.98 41.0828 24.9C42.2428 23.82 43.7228 23.28 45.5228 23.28C47.2828 23.28 48.7228 23.82 49.8428 24.9C51.0028 25.98 51.5828 27.32 51.5828 28.92C51.5828 30.48 51.0028 31.8 49.8428 32.88C48.7228 33.92 47.2828 34.44 45.5228 34.44Z" fill="#BDBDBD"/>
</svg>
